<?xml version="1.0" encoding="UTF-8"?>
<svg version="1.1" xmlns="http://www.w3.org/2000/svg" width="647" height="113">
<path d="M0 0 C7.26 0 14.52 0 22 0 C29.37338442 15.80808933 36.56557878 31.68655517 43.62158203 47.63842773 C47.36294865 56.09185302 51.13537163 64.52998077 54.953125 72.94921875 C55.36488983 73.85857178 55.77665466 74.7679248 56.20089722 75.70483398 C58.63111685 81.07207348 58.63111685 81.07207348 61.07110596 86.43487549 C62.19484744 88.89870473 63.31274343 91.36511471 64.4296875 93.83203125 C64.76228577 94.55653976 65.09488403 95.28104828 65.43756104 96.0275116 C65.74675476 96.71299576 66.05594849 97.39847992 66.37451172 98.10473633 C66.64157928 98.69120438 66.90864685 99.27767242 67.18380737 99.88191223 C68.32761402 102.85018563 69.12610434 105.94136518 70 109 C63.07 109 56.14 109 49 109 C45.13933987 101.3961781 41.50128748 93.76620883 38.125 85.9375 C31.82345029 71.46752435 25.23837001 57.1299287 18.65383911 42.78718567 C16.08834552 37.19790111 13.5387583 31.60148269 11 26 C10.64284912 26.76965088 10.28569824 27.53930176 9.91772461 28.33227539 C-2.67802009 55.47390346 -2.67802009 55.47390346 -9 69 C4.365 69.495 4.365 69.495 18 70 C19.32 72.743125 20.64 75.48625 22 78.3125 C22.41765625 79.17270752 22.8353125 80.03291504 23.265625 80.91918945 C23.75289062 81.94338989 23.75289062 81.94338989 24.25 82.98828125 C24.58515625 83.68477783 24.9203125 84.38127441 25.265625 85.09887695 C26 87 26 87 26 90 C11.15 90 -3.7 90 -19 90 C-19.99 92.97 -20.98 95.94 -22 99 C-23.54337179 102.41280804 -25.267494 105.67546147 -27 109 C-33.93 109 -40.86 109 -48 109 C-45.94238402 102.82715206 -43.81686292 97.06542278 -41.11328125 91.19921875 C-40.73914093 90.37724503 -40.36500061 89.5552713 -39.97952271 88.70838928 C-39.17747414 86.94733284 -38.37344635 85.18717666 -37.56759644 83.42785645 C-35.41871494 78.73602474 -33.28450878 74.03751782 -31.1484375 69.33984375 C-30.49816841 67.91129562 -30.49816841 67.91129562 -29.83476257 66.45388794 C-25.6463405 57.24397447 -21.53350939 48.00129923 -17.4375 38.75 C-11.69940585 25.79835214 -5.88970944 12.88373941 0 0 Z " fill="#00546E" transform="translate(143,4)"/>
<path d="M0 0 C24.42 0 48.84 0 74 0 C74 6.6 74 13.2 74 20 C56.18 20 38.36 20 20 20 C20 28.25 20 36.5 20 45 C33.2 45 46.4 45 60 45 C60 51.6 60 58.2 60 65 C47.13 65 34.26 65 21 65 C20.67 72.92 20.34 80.84 20 89 C37.82 89 55.64 89 74 89 C74 95.6 74 102.2 74 109 C49.58 109 25.16 109 0 109 C0 73.03 0 37.06 0 0 Z " fill="#00546E" transform="translate(224,4)"/>
<path d="M0 0 C56.53934741 0 56.53934741 0 69.12890625 12.03515625 C76.88461338 20.13365706 80.34731822 29.44546916 80.14453125 40.6171875 C79.49202345 51.37474858 74.82467179 61.20440305 66.83984375 68.5078125 C56.58795754 76.82250578 47.04369317 78.41628808 34 78 C34 71.4 34 64.8 34 58 C36.784375 57.8453125 36.784375 57.8453125 39.625 57.6875 C46.25507415 57.11097181 50.06245039 56.02562004 54.75 51.125 C58.54053961 45.86036166 59.79394769 41.51285215 59 35 C57.0965885 29.0894064 54.31109413 25.13618976 49.0625 21.75 C40.08355062 18.4849275 27.1686084 19.37130038 19 19 C19 48.7 19 78.4 19 109 C12.73 109 6.46 109 0 109 C0 73.03 0 37.06 0 0 Z " fill="#00546E" transform="translate(312,4)"/>
<path d="M0 0 C3.85731623 2.05506066 6.36459897 4.9640103 8 9 C8.53994543 14.03338956 8.01418635 19.05584156 7 24 C7.23783203 23.15115234 7.23783203 23.15115234 7.48046875 22.28515625 C8.18482204 20.07091855 8.90357621 18.05039882 10 16 C12.5625 14.875 12.5625 14.875 15 15 C15.99 15.99 15.99 15.99 17 17 C16.625 19.625 16.625 19.625 16 22 C14.68 22.33 13.36 22.66 12 23 C10.79650261 25.6205732 10.08439658 27.17845365 10 30 C11.57482555 33.0066242 13.82934958 35.27082258 16.1875 37.6875 C17.39002155 38.98242449 18.5918655 40.27797861 19.79296875 41.57421875 C20.35701416 42.17572754 20.92105957 42.77723633 21.50219727 43.39697266 C25.89789549 48.10148033 25.89789549 48.10148033 26.29296875 51.578125 C26.25816406 52.45984375 26.22335938 53.3415625 26.1875 54.25 C26.14689453 55.58804688 26.14689453 55.58804688 26.10546875 56.953125 C26.07066406 57.62859375 26.03585938 58.3040625 26 59 C24.515 59.495 24.515 59.495 23 60 C22.67 56.7 22.34 53.4 22 50 C21.01 50 20.02 50 19 50 C18.505 54.95 18.505 54.95 18 60 C14.37 60 10.74 60 7 60 C6.67 56.7 6.34 53.4 6 50 C5.01 50 4.02 50 3 50 C2.505 54.95 2.505 54.95 2 60 C-1.63 60 -5.26 60 -9 60 C-8.96744792 57.75390625 -8.93489583 55.5078125 -8.90234375 53.26171875 C-8.90342145 50.83138666 -8.90342145 50.83138666 -10 48 C-10.99 48.495 -10.99 48.495 -12 49 C-12.4683265 51.58605332 -12.4683265 51.58605332 -12.625 54.5625 C-12.810625 57.2540625 -12.810625 57.2540625 -13 60 C-16.63 60 -20.26 60 -24 60 C-24.495 55.05 -24.495 55.05 -25 50 C-25.99 50 -26.98 50 -28 50 C-28.33 53.3 -28.66 56.6 -29 60 C-32.63 60 -36.26 60 -40 60 C-40.33 56.7 -40.66 53.4 -41 50 C-41.99 50 -42.98 50 -44 50 C-44.33 53.3 -44.66 56.6 -45 60 C-46.98 60 -48.96 60 -51 60 C-51 59.01 -51 58.02 -51 57 C-50.01 57 -49.02 57 -48 57 C-48.0825 55.783125 -48.165 54.56625 -48.25 53.3125 C-48.27471684 49.83360474 -48.04111557 49.06167336 -46 46 C-45.34 45.34 -44.68 44.68 -44 44 C-41.46096004 44.35021241 -40.17906702 44.84011873 -38.25 46.5625 C-36.41538945 50.13999057 -36.80031417 53.00628343 -37 57 C-35.35 57 -33.7 57 -32 57 C-32.185625 55.72125 -32.37125 54.4425 -32.5625 53.125 C-32.61596617 48.28249284 -30.88487643 46.22372433 -27.625 42.75 C-26.81289063 41.96109375 -26.00078125 41.1721875 -25.1640625 40.359375 C-22.94885164 37.94423536 -21.8519197 36.1521029 -21 33 C-21.680625 32.13375 -21.680625 32.13375 -22.375 31.25 C-24.57425136 28.20488273 -24.53928157 25.88497967 -24.4296875 22.1953125 C-23.73951648 18.669166 -21.80721439 17.07199157 -19 15 C-18.34 15 -17.68 15 -17 15 C-17.0825 14.13375 -17.165 13.2675 -17.25 12.375 C-16.88349173 7.42713834 -14.55331445 4.72590494 -11.3125 1.125 C-7.58492512 -0.68841481 -4.05027823 -0.758111 0 0 Z M-12 6 C-13.54335239 8.93971885 -14 10.66843858 -14 14 C-13.01 14 -12.02 14 -11 14 C-10.4121875 12.5459375 -10.4121875 12.5459375 -9.8125 11.0625 C-8 8 -8 8 -5.625 6.8125 C-3 7 -3 7 -0.3125 9.125 C1.80971367 11.76342781 2.99374954 13.79829398 4 17 C4.33 17 4.66 17 5 17 C4.77873908 10.93638187 4.77873908 10.93638187 2.375 5.5 C-2.72241907 2.28057743 -7.36217106 2.02471805 -12 6 Z M-6 10 C-6.99 11.485 -6.99 11.485 -8 13 C-6.02 12.67 -4.04 12.34 -2 12 C-2 11.34 -2 10.68 -2 10 C-3.32 10 -4.64 10 -6 10 Z M-6 16 C-5.67 17.32 -5.34 18.64 -5 20 C-4.34 20 -3.68 20 -3 20 C-2.67 18.68 -2.34 17.36 -2 16 C-3.32 16 -4.64 16 -6 16 Z M-18.75 19.125 C-21.24774479 21.81947429 -21.24774479 21.81947429 -21.4375 25.1875 C-21.26298437 28.13036002 -21.26298437 28.13036002 -19 30 C-18.67 27.36 -18.34 24.72 -18 22 C-14.75 21.6875 -14.75 21.6875 -11 22 C-8.5625 24.5 -8.5625 24.5 -7 27 C-7.31720699 23.51072308 -7.66307231 21.44149146 -9.8125 18.625 C-13.38189685 15.97344806 -15.3503412 16.49799093 -18.75 19.125 Z M12 18 C12 18.66 12 19.32 12 20 C12.66 20 13.32 20 14 20 C14 19.34 14 18.68 14 18 C13.34 18 12.68 18 12 18 Z M0 19 C0.34444881 21.47266765 0.34444881 21.47266765 1 24 C1.66 24.33 2.32 24.66 3 25 C2.67 23.02 2.34 21.04 2 19 C1.34 19 0.68 19 0 19 Z M-4 23 C-4.28875 24.258125 -4.5775 25.51625 -4.875 26.8125 C-5.57303539 29.8539399 -6.20446585 31.30669878 -8 34 C-7.38125 34.598125 -6.7625 35.19625 -6.125 35.8125 C-4 38 -4 38 -2 41 C0.31 37.37 2.62 33.74 5 30 C2.01926159 27.61540927 -0.93755012 25.26848139 -4 23 Z M-15 24 C-16.01111093 27.04913228 -16.01111093 27.04913228 -15 30 C-14.01 29.67 -13.02 29.34 -12 29 C-12.33 27.35 -12.66 25.7 -13 24 C-13.66 24 -14.32 24 -15 24 Z M-9 28 C-8 30 -8 30 -8 30 Z M-14 32 C-15.70363175 33.90423514 -17.38711578 35.82117747 -19.0625 37.75 C-19.54783203 38.28882813 -20.03316406 38.82765625 -20.53320312 39.3828125 C-23.29914938 42.42993804 -23.29914938 42.42993804 -23.87109375 46.328125 C-23.11326168 47.9868583 -23.11326168 47.9868583 -22 49 C-21.54540142 51.65463121 -21.29756762 54.32189138 -21 57 C-19.68 57 -18.36 57 -17 57 C-16.896875 55.741875 -16.79375 54.48375 -16.6875 53.1875 C-16.2164452 49.25973424 -16.2164452 49.25973424 -14.4375 47.125 C-13.963125 46.75375 -13.48875 46.3825 -13 46 C-13 45.34 -13 44.68 -13 44 C-11.68 44 -10.36 44 -9 44 C-8.690625 44.639375 -8.38125 45.27875 -8.0625 45.9375 C-7.1654837 47.93610821 -7.1654837 47.93610821 -6 49 C-5.54540142 51.65463121 -5.29756762 54.32189138 -5 57 C-3.68 57 -2.36 57 -1 57 C-0.896875 55.7625 -0.79375 54.525 -0.6875 53.25 C-0.26198318 49.7207134 0.48112592 47.62839034 3 45 C5.19702465 45.37879735 6.83875922 45.90210381 8.75 47.0625 C10.79404368 50.23076771 10.182379 53.29162692 10 57 C11.65 57 13.3 57 15 57 C15.33820166 55.4176994 15.67035939 53.83410625 16 52.25 C16.2784375 50.92742188 16.2784375 50.92742188 16.5625 49.578125 C17.24561229 45.55264184 17.4280971 43.60816969 15.03125 40.203125 C14.1959375 39.22859375 13.360625 38.2540625 12.5 37.25 C11.6646875 36.26515625 10.829375 35.2803125 9.96875 34.265625 C8.99421875 33.14414062 8.99421875 33.14414062 8 32 C5.53522288 34.30193899 3.68244803 36.75988654 1.8125 39.5625 C1.01779297 40.74005859 1.01779297 40.74005859 0.20703125 41.94140625 C-1.16860117 43.88982225 -1.16860117 43.88982225 -1 46 C-3.37697923 43.792805 -5.16904202 41.73825752 -6.9375 39 C-9.02268564 35.96700271 -11.09995019 34.21684203 -14 32 Z " fill="#00546F" transform="translate(70,4)"/>
<path d="M0 0 C1.19109375 -0.00386719 1.19109375 -0.00386719 2.40625 -0.0078125 C4.5 0.125 4.5 0.125 6.5 1.125 C7.9465242 1.27567214 9.3987934 1.37361036 10.8515625 1.44140625 C12.12773438 1.50424805 12.12773438 1.50424805 13.4296875 1.56835938 C14.31914063 1.60767578 15.20859375 1.64699219 16.125 1.6875 C17.47078125 1.75227539 17.47078125 1.75227539 18.84375 1.81835938 C21.06234283 1.92456861 23.2810488 2.02661194 25.5 2.125 C25.17 3.445 24.84 4.765 24.5 6.125 C19.88 6.125 15.26 6.125 10.5 6.125 C10.995 9.59 10.995 9.59 11.5 13.125 C15.955 12.63 15.955 12.63 20.5 12.125 C20.17 13.445 19.84 14.765 19.5 16.125 C16.86 16.125 14.22 16.125 11.5 16.125 C11.5 18.435 11.5 20.745 11.5 23.125 C12.82 23.125 14.14 23.125 15.5 23.125 C15.5 24.115 15.5 25.105 15.5 26.125 C13.19 26.125 10.88 26.125 8.5 26.125 C8.44392578 24.47951172 8.44392578 24.47951172 8.38671875 22.80078125 C8.32103347 21.34632143 8.25458701 19.89189584 8.1875 18.4375 C8.15366211 17.3556543 8.15366211 17.3556543 8.11914062 16.25195312 C7.87448955 11.38117265 7.10458021 7.72958021 3.5 4.125 C-1.2029691 3.64381839 -1.2029691 3.64381839 -5.375 5.4375 C-7.99766824 9.37150236 -7.81966826 13.75442876 -8.0625 18.3125 C-8.12727539 19.43688477 -8.12727539 19.43688477 -8.19335938 20.58398438 C-8.29922685 22.43078375 -8.4000976 24.27786834 -8.5 26.125 C-11.27109307 26.17892397 -14.04113818 26.21863455 -16.8125 26.25 C-17.59818359 26.26675781 -18.38386719 26.28351563 -19.19335938 26.30078125 C-19.95068359 26.30722656 -20.70800781 26.31367187 -21.48828125 26.3203125 C-22.18477783 26.33078613 -22.88127441 26.34125977 -23.59887695 26.35205078 C-25.5 26.125 -25.5 26.125 -28.5 24.125 C-28.17 23.465 -27.84 22.805 -27.5 22.125 C-22.22 22.455 -16.94 22.785 -11.5 23.125 C-11.5 20.815 -11.5 18.505 -11.5 16.125 C-20.41 16.125 -29.32 16.125 -38.5 16.125 C-39.16 14.805 -39.82 13.485 -40.5 12.125 C-30.93 12.125 -21.36 12.125 -11.5 12.125 C-11.17 10.145 -10.84 8.165 -10.5 6.125 C-22.71 6.125 -34.92 6.125 -47.5 6.125 C-47.5 4.805 -47.5 3.485 -47.5 2.125 C-46.26846191 2.09994385 -45.03692383 2.0748877 -43.76806641 2.04907227 C-39.20952507 1.95507388 -34.65113882 1.85483485 -30.09277344 1.75268555 C-28.11787538 1.70930797 -26.14293913 1.667635 -24.16796875 1.62768555 C-21.3332161 1.57005127 -18.49865622 1.5063373 -15.6640625 1.44140625 C-14.77756012 1.42469376 -13.89105774 1.40798126 -12.97769165 1.39076233 C-8.39124608 1.27929931 -4.50498853 -0.01462659 0 0 Z " fill="#00536E" transform="translate(66.5,67.875)"/>
<path d="M0 0 C1.32 0 2.64 0 4 0 C4.15855469 1.01578125 4.31710938 2.0315625 4.48046875 3.078125 C7.46213583 21.11556047 14.57759452 36.14061236 29 48 C42.80323677 57.60076617 57.40572455 60.56388238 74 61 C73.67 62.32 73.34 63.64 73 65 C53.97910082 65.89980601 37.04201314 61.73466554 22.625 48.625 C11.10066606 37.66816625 0.87857966 22.69785567 -0.171875 6.3203125 C-0.1850059 4.21280372 -0.10352486 2.10500553 0 0 Z " fill="#069FA7" transform="translate(0,48)"/>
<path d="M0 0 C1.65 0 3.3 0 5 0 C6.98 3.63 8.96 7.26 11 11 C11.886875 9.370625 12.77375 7.74125 13.6875 6.0625 C16.32003287 1.22598612 16.32003287 1.22598612 19.64453125 0.12109375 C20.42183594 0.08113281 21.19914062 0.04117188 22 0 C23 1 23 1 23.11352539 3.04125977 C23.10828857 3.91580811 23.10305176 4.79035645 23.09765625 5.69140625 C23.09443359 6.63564453 23.09121094 7.57988281 23.08789062 8.55273438 C23.07951172 9.54595703 23.07113281 10.53917969 23.0625 11.5625 C23.05798828 12.55958984 23.05347656 13.55667969 23.04882812 14.58398438 C23.03700007 17.05604849 23.02051849 19.52799518 23 22 C21.35 22 19.7 22 18 22 C17.505 17.05 17.505 17.05 17 12 C15.68 14.64 14.36 17.28 13 20 C9 19 9 19 7.734375 17.15234375 C6.82291667 15.1015625 5.91145833 13.05078125 5 11 C4.67 14.63 4.34 18.26 4 22 C2.68 22 1.36 22 0 22 C0 14.74 0 7.48 0 0 Z " fill="#059EA7" transform="translate(433,39)"/>
<path d="M0 0 C13.55555556 0 13.55555556 0 18.9375 4.6875 C20.52451 8.14158059 20.76857502 11.32635245 20 15 C18.02321824 18.52185256 15.9012851 20.69957163 12 22 C7.99616868 22.13399703 4.0072645 22.04308887 0 22 C0 14.74 0 7.48 0 0 Z M5 5 C5 8.96 5 12.92 5 17 C9.0100934 17.17864631 9.0100934 17.17864631 13 17 C15.36410488 15.06268472 15.36410488 15.06268472 15.3125 11.5625 C15.25440855 8.15573049 15.25440855 8.15573049 13.9375 6.0625 C10.98831309 4.44520395 8.29132441 4.81369862 5 5 Z " fill="#069DA6" transform="translate(411,72)"/>
<path d="M0 0 C4.73198365 0.03389673 8.8131016 0.7506016 12.3125 4.25 C12.58564815 9.98611111 12.58564815 9.98611111 12.3125 12.25 C11.6525 12.91 10.9925 13.57 10.3125 14.25 C10.58867533 16.19074861 10.58867533 16.19074861 11.3125 18.25 C11.64583333 19.58333333 11.97916667 20.91666667 12.3125 22.25 C10 22.5625 10 22.5625 7.3125 22.25 C6.29383771 20.59467377 5.29439187 18.92739862 4.3125 17.25 C1.72127257 16.36341534 1.72127257 16.36341534 -0.6875 16.25 C-0.6875 18.23 -0.6875 20.21 -0.6875 22.25 C-2.3375 21.92 -3.9875 21.59 -5.6875 21.25 C-5.71638146 17.93751813 -5.73425799 14.62506833 -5.75 11.3125 C-5.75837891 10.36697266 -5.76675781 9.42144531 -5.77539062 8.44726562 C-5.77861328 7.54814453 -5.78183594 6.64902344 -5.78515625 5.72265625 C-5.79039307 4.89000244 -5.79562988 4.05734863 -5.80102539 3.19946289 C-5.57964316 -0.60212236 -3.28894628 0.05899455 0 0 Z M-0.6875 5.25 C-0.6875 7.23 -0.6875 9.21 -0.6875 11.25 C1.9525 11.25 4.5925 11.25 7.3125 11.25 C7.9939823 9.35820797 7.9939823 9.35820797 8.3125 7.25 C6.35616025 4.83878141 6.35616025 4.83878141 2.6875 5.125 C1.016875 5.186875 1.016875 5.186875 -0.6875 5.25 Z " fill="#069DA6" transform="translate(489.6875,38.75)"/>
<path d="M0 0 C11.44444444 0 11.44444444 0 15 2 C17 4 17 4 17.25 7.875 C17.18064077 11.05396475 16.80254921 13.29617618 15 16 C15.495 16.61875 15.99 17.2375 16.5 17.875 C18 20 18 20 18 22 C15.6875 22.25 15.6875 22.25 13 22 C11.02389614 19.95575462 10 18.8823175 10 16 C8.35 16.33 6.7 16.66 5 17 C4.67 18.65 4.34 20.3 4 22 C2.68 22 1.36 22 0 22 C0 14.74 0 7.48 0 0 Z M4 5 C4 6.98 4 8.96 4 11 C6.64 11 9.28 11 12 11 C13.01111093 7.95086772 13.01111093 7.95086772 12 5 C9.36 5 6.72 5 4 5 Z " fill="#069AA4" transform="translate(575,39)"/>
<path d="M0 0 C5.28 0 10.56 0 16 0 C16 1.65 16 3.3 16 5 C12.37 5 8.74 5 5 5 C5 6.32 5 7.64 5 9 C8.3 9 11.6 9 15 9 C15 10.32 15 11.64 15 13 C11.7 13 8.4 13 5 13 C5 14.32 5 15.64 5 17 C8.63 17 12.26 17 16 17 C16 18.65 16 20.3 16 22 C10.72 22 5.44 22 0 22 C0 14.74 0 7.48 0 0 Z " fill="#069DA7" transform="translate(508,39)"/>
<path d="M0 0 C5.28 0 10.56 0 16 0 C16 1.65 16 3.3 16 5 C12.37 5 8.74 5 5 5 C5 6.32 5 7.64 5 9 C8.3 9 11.6 9 15 9 C15 10.32 15 11.64 15 13 C11.7 13 8.4 13 5 13 C5 14.32 5 15.64 5 17 C8.63 17 12.26 17 16 17 C16 18.65 16 20.3 16 22 C10.72 22 5.44 22 0 22 C0 14.74 0 7.48 0 0 Z " fill="#059DA7" transform="translate(411,39)"/>
<path d="M0 0 C1.39456452 0.00667256 2.78911118 0.01863093 4.18359375 0.03515625 C4.89451172 0.03966797 5.60542969 0.04417969 6.33789062 0.04882812 C8.09899388 0.06064761 9.86005411 0.07858362 11.62109375 0.09765625 C11.62109375 1.74765625 11.62109375 3.39765625 11.62109375 5.09765625 C7.99109375 5.09765625 4.36109375 5.09765625 0.62109375 5.09765625 C0.62109375 6.41765625 0.62109375 7.73765625 0.62109375 9.09765625 C3.92109375 9.09765625 7.22109375 9.09765625 10.62109375 9.09765625 C10.62109375 10.41765625 10.62109375 11.73765625 10.62109375 13.09765625 C7.32109375 13.09765625 4.02109375 13.09765625 0.62109375 13.09765625 C0.62109375 14.41765625 0.62109375 15.73765625 0.62109375 17.09765625 C4.25109375 17.09765625 7.88109375 17.09765625 11.62109375 17.09765625 C11.62109375 18.74765625 11.62109375 20.39765625 11.62109375 22.09765625 C6.34109375 22.09765625 1.06109375 22.09765625 -4.37890625 22.09765625 C-4.40573826 18.6184389 -4.42566295 15.13942586 -4.44140625 11.66015625 C-4.44978516 10.66693359 -4.45816406 9.67371094 -4.46679688 8.65039062 C-4.47001953 7.70615234 -4.47324219 6.76191406 -4.4765625 5.7890625 C-4.48179932 4.91451416 -4.48703613 4.03996582 -4.49243164 3.13891602 C-4.29828606 -0.35194686 -3.60712831 0.10425226 0 0 Z " fill="#069EA7" transform="translate(440.37890625,71.90234375)"/>
<path d="M0 0 C10.24 0 10.24 0 16 3 C17 4 17 4 17.1875 7.8125 C17.1585691 11.03540201 16.82970185 13.25544723 15 16 C15.66 16.99 16.32 17.98 17 19 C17 19.99 17 20.98 17 22 C15.35 22 13.7 22 12 22 C11.34 20.02 10.68 18.04 10 16 C8.02 16 6.04 16 4 16 C4 17.98 4 19.96 4 22 C2.68 22 1.36 22 0 22 C0 14.74 0 7.48 0 0 Z M4 5 C4 6.98 4 8.96 4 11 C6.64 11 9.28 11 12 11 C12.6814823 9.10820797 12.6814823 9.10820797 13 7 C11.04366025 4.58878141 11.04366025 4.58878141 7.375 4.875 C5.704375 4.936875 5.704375 4.936875 4 5 Z " fill="#069FA7" transform="translate(517,72)"/>
<path d="M0 0 C4.57627119 3.15254237 4.57627119 3.15254237 6 6 C6.64330802 10.6777683 6.66351687 13.97261904 4.0625 18 C0.06794851 20.60868669 -3.25360765 21.30204315 -8 21 C-11.68514299 19.47787572 -14.16974759 17.56417575 -16 14 C-16.51197712 9.39220596 -16.65440831 7.15779932 -14.375 3.125 C-9.9046497 -0.87478711 -5.72496093 -1.70530751 0 0 Z M-9.8125 5.25 C-11.21205 7.31249474 -11.85264484 8.49496229 -12 11 C-10.66692063 14.18457849 -9.8432672 15.64494013 -6.625 17 C-3.10369569 17 -1.60354452 16.38038356 1 14 C1.50098542 10.49310205 1.68287817 8.17606796 -0.125 5.0625 C-3.41690756 3.19708572 -6.6648089 3.07917856 -9.8125 5.25 Z " fill="#069EA7" transform="translate(505,73)"/>
<path d="M0 0 C3.11141288 1.6437653 5.28893717 3.03036886 7.375 5.875 C8.25151896 8.85516446 8.43422592 10.89838626 8 14 C6.17452064 16.92483867 4.13141589 19.43429205 1 21 C-3.539219 21.54399285 -6.9544269 21.62289461 -10.9375 19.25 C-14.10961473 15.7895112 -15.02454958 14.35022674 -14.9375 9.5625 C-13.82940237 5.35172899 -12.31363542 3.74789278 -9 1 C-5.89046621 -0.5547669 -3.43733239 -0.28644437 0 0 Z M-9 7 C-10.24677006 9.89706707 -10.24677006 9.89706707 -10 13 C-8.6469872 15.60314994 -8.6469872 15.60314994 -6 17 C-2.37350049 17.08916154 -2.37350049 17.08916154 1 16 C3.15502531 12.76746204 3.46856135 11.74849077 3 8 C1.55695903 5.97974264 0.36340187 5.16958754 -1.875 4.125 C-5.1104211 3.93468111 -6.54741319 4.94512997 -9 7 Z " fill="#069EA7" transform="translate(498,6)"/>
<path d="M0 0 C3.06471302 1.65023009 5.30778907 3.056076 7.375 5.875 C8.43037874 9.46328773 8.43445164 12.61765389 7.3125 16.1875 C5.43744933 18.77685568 3.96441013 19.73854888 1 21 C-3.68796448 21.70617251 -6.92694207 21.67066121 -11 19.125 C-14.30360128 15.61492364 -14.3931012 12.93566857 -14.35546875 8.26171875 C-13.78672178 4.64298801 -11.84834388 3.11969777 -9 1 C-5.64870516 -0.11709828 -3.51689744 -0.34479387 0 0 Z M-9 7 C-10.06716381 9.7746259 -10.14189581 11.36146884 -9.5 14.25 C-7.99020236 16.34043785 -7.99020236 16.34043785 -4.625 16.9375 C-1.11081766 17.24909176 -1.11081766 17.24909176 1.4375 15.9375 C3.25733209 14.01717417 3.25733209 14.01717417 3.4375 11 C3.23391478 8.05284464 3.23391478 8.05284464 1.75 6.1875 C-2.53024372 3.2830489 -4.95456414 3.71991687 -9 7 Z " fill="#069FA7" transform="translate(639,6)"/>
<path d="M0 0 C12.85714286 0 12.85714286 0 16.875 3.75 C18.4472882 6.8945764 17.98936706 8.67855345 17 12 C15.41933106 13.99301736 14.26913298 14.86543351 12 16 C9.6670134 16.04022391 7.33293334 16.04320247 5 16 C5 17.98 5 19.96 5 22 C3.35 22 1.7 22 0 22 C0 14.74 0 7.48 0 0 Z M5 5 C5 6.98 5 8.96 5 11 C7.31 11 9.62 11 12 11 C12.38218767 9.34385343 12.71395102 7.67542976 13 6 C11.81575674 4.58422523 11.81575674 4.58422523 8.4375 4.9375 C6.7359375 4.9684375 6.7359375 4.9684375 5 5 Z " fill="#069EA7" transform="translate(462,39)"/>
<path d="M0 0 C2.475 0.495 2.475 0.495 5 1 C5.33 5.95 5.66 10.9 6 16 C8.31 16.33 10.62 16.66 13 17 C13.33 11.39 13.66 5.78 14 0 C15.65 0.33 17.3 0.66 19 1 C19.0814222 3.22855574 19.13938079 5.45797655 19.1875 7.6875 C19.23970703 9.54955078 19.23970703 9.54955078 19.29296875 11.44921875 C18.97972188 15.2457708 18.30757653 17.01467371 16 20 C12.27420911 22.48386059 10.41288598 22.3804212 6 22 C1.4 19.8 1.4 19.8 0 17 C-0.07194869 14.11629667 -0.09291708 11.25760336 -0.0625 8.375 C-0.05798828 7.57320313 -0.05347656 6.77140625 -0.04882812 5.9453125 C-0.03703168 3.96350994 -0.01909605 1.98174567 0 0 Z " fill="#059DA5" transform="translate(560,72)"/>
<path d="M0 0 C10.44444444 0 10.44444444 0 15 2 C17.59335905 4.59335905 17.27726563 6.48747032 17.36328125 10.02734375 C16.88504853 12.62419884 16.12554519 13.4550002 14 15 C11.73828125 15.51171875 11.73828125 15.51171875 9.3125 15.6875 C8.10013672 15.78611328 8.10013672 15.78611328 6.86328125 15.88671875 C6.24839844 15.92410156 5.63351562 15.96148437 5 16 C5 17.98 5 19.96 5 22 C3.35 22 1.7 22 0 22 C0 14.74 0 7.48 0 0 Z M5 5 C5 6.98 5 8.96 5 11 C7.31 11 9.62 11 12 11 C12.6814823 9.10820797 12.6814823 9.10820797 13 7 C11.10244856 4.65026182 11.10244856 4.65026182 7.875 4.875 C6.92625 4.91625 5.9775 4.9575 5 5 Z " fill="#069DA5" transform="translate(468,72)"/>
<path d="M0 0 C2.875 1.5 2.875 1.5 5 3 C4.34 4.32 3.68 5.64 3 7 C1.9275 6.62875 0.855 6.2575 -0.25 5.875 C-3.77163122 4.75965601 -3.77163122 4.75965601 -6.375 5.5625 C-8.1859746 6.94562305 -8.1859746 6.94562305 -8.9375 9.375 C-9.16132999 12.01108187 -9.16132999 12.01108187 -8.125 14.375 C-5.48188475 16.39620578 -4.65635015 16.08661669 -1.4375 15.6875 C-0.25994141 15.47673828 -0.25994141 15.47673828 0.94140625 15.26171875 C3 15 3 15 5 16 C5 16.99 5 17.98 5 19 C3.02 19.99 1.04 20.98 -1 22 C-0.67 22.99 -0.34 23.98 0 25 C-1.25 26.5625 -1.25 26.5625 -3 28 C-5.1875 27.6875 -5.1875 27.6875 -7 27 C-6.67 25.35 -6.34 23.7 -6 22 C-6.94875 21.401875 -7.8975 20.80375 -8.875 20.1875 C-11.92522574 18.05234198 -13.7025828 16.67179772 -14.37109375 12.9140625 C-14.49915865 8.49959016 -14.47464987 6.61576199 -11.6875 3 C-7.75902197 0.07648147 -4.81539867 -0.38523189 0 0 Z " fill="#059DA7" transform="translate(589,6)"/>
<path d="M0 0 C0.66 0.33 1.32 0.66 2 1 C1.67 2.32 1.34 3.64 1 5 C-1.97 5 -4.94 5 -8 5 C-5.35603236 7.64396764 -2.42496181 8.56774324 1 10 C2 11 2 11 2.375 14.375 C2 18 2 18 0.0625 20 C-4.11963157 21.36559398 -7.75117208 21.05822868 -12 20 C-12.99 19.34 -13.98 18.68 -15 18 C-14.67 16.68 -14.34 15.36 -14 14 C-10.37 14.66 -6.74 15.32 -3 16 C-3 15.01 -3 14.02 -3 13 C-3.62648438 12.81824219 -4.25296875 12.63648438 -4.8984375 12.44921875 C-5.71570313 12.19785156 -6.53296875 11.94648437 -7.375 11.6875 C-8.18710937 11.44386719 -8.99921875 11.20023438 -9.8359375 10.94921875 C-12 10 -12 10 -14 7 C-13.9375 4.5 -13.9375 4.5 -13 2 C-8.73366891 -1.87848281 -5.2910665 -1.04086554 0 0 Z " fill="#069BA6" transform="translate(543,40)"/>
<path d="M0 0 C2.23046875 -0.0546875 2.23046875 -0.0546875 5 1 C6.8696132 3.7686922 8.05930628 6.78838626 9.3125 9.875 C9.67150391 10.70386719 10.03050781 11.53273438 10.40039062 12.38671875 C13 18.51684524 13 18.51684524 13 22 C11.35 21.67 9.7 21.34 8 21 C7.67 19.68 7.34 18.36 7 17 C3.7 17 0.4 17 -3 17 C-3.33 18.65 -3.66 20.3 -4 22 C-5.65 22 -7.3 22 -9 22 C-6.66062389 14.33204498 -3.45231194 7.22862726 0 0 Z M2 7 C1.01 8.98 0.02 10.96 -1 13 C0.98 13 2.96 13 5 13 C4.34 11.02 3.68 9.04 3 7 C2.67 7 2.34 7 2 7 Z " fill="#069DA6" transform="translate(557,39)"/>
<path d="M0 0 C3.46291079 1.61894205 4.35567473 4.85359022 5.7890625 8.19921875 C6.088125 8.85986328 6.3871875 9.52050781 6.6953125 10.20117188 C8.42253865 14.07214553 9.89227636 17.96340941 11.1640625 22.01171875 C9.5140625 22.01171875 7.8640625 22.01171875 6.1640625 22.01171875 C5.5040625 20.69171875 4.8440625 19.37171875 4.1640625 18.01171875 C1.1940625 18.01171875 -1.7759375 18.01171875 -4.8359375 18.01171875 C-5.4959375 19.33171875 -6.1559375 20.65171875 -6.8359375 22.01171875 C-8.4859375 22.01171875 -10.1359375 22.01171875 -11.8359375 22.01171875 C-10.34689955 17.20040517 -8.42177986 12.73952992 -6.2734375 8.19921875 C-5.79874023 7.17924805 -5.79874023 7.17924805 -5.31445312 6.13867188 C-2.4390976 0.01556871 -2.4390976 0.01556871 0 0 Z M-0.8359375 6.01171875 C-1.4959375 8.32171875 -2.1559375 10.63171875 -2.8359375 13.01171875 C-1.1859375 13.01171875 0.4640625 13.01171875 2.1640625 13.01171875 C1.5040625 10.70171875 0.8440625 8.39171875 0.1640625 6.01171875 C-0.1659375 6.01171875 -0.4959375 6.01171875 -0.8359375 6.01171875 Z " fill="#069EA6" transform="translate(618.8359375,38.98828125)"/>
<path d="M0 0 C1.65 0 3.3 0 5 0 C6.53687482 3.09647525 8.05165282 6.20325282 9.5625 9.3125 C10.21895508 10.63411133 10.21895508 10.63411133 10.88867188 11.98242188 C11.29794922 12.82998047 11.70722656 13.67753906 12.12890625 14.55078125 C12.51119385 15.33106689 12.89348145 16.11135254 13.28735352 16.9152832 C14 19 14 19 13 22 C11.35 21.34 9.7 20.68 8 20 C8 19.01 8 18.02 8 17 C3.05 17.495 3.05 17.495 -2 18 C-2.33 18.99 -2.66 19.98 -3 21 C-4.65 21 -6.3 21 -8 21 C-7.32512263 16.18080529 -5.42034091 12.08116134 -3.4375 7.6875 C-2.9434668 6.57665039 -2.9434668 6.57665039 -2.43945312 5.44335938 C-1.63082877 3.62688438 -0.81602884 1.81316069 0 0 Z M2 6 C1.34 7.98 0.68 9.96 0 12 C1.65 12 3.3 12 5 12 C4.34 10.02 3.68 8.04 3 6 C2.67 6 2.34 6 2 6 Z " fill="#069EA5" transform="translate(557,6)"/>
<path d="M0 0 C1.65 0 3.3 0 5 0 C6.34242421 2.93342898 7.67234067 5.87236252 9 8.8125 C9.3815625 9.64587891 9.763125 10.47925781 10.15625 11.33789062 C10.5171875 12.14033203 10.878125 12.94277344 11.25 13.76953125 C11.58515625 14.50792236 11.9203125 15.24631348 12.265625 16.00708008 C13 18 13 18 13 21 C11.35 21 9.7 21 8 21 C7.67 20.01 7.34 19.02 7 18 C3.7 17.67 0.4 17.34 -3 17 C-3.33 18.32 -3.66 19.64 -4 21 C-5.65 21.33 -7.3 21.66 -9 22 C-6.66062389 14.33204498 -3.45231194 7.22862726 0 0 Z M2 6 C1.34 7.98 0.68 9.96 0 12 C1.65 12 3.3 12 5 12 C4.34 10.02 3.68 8.04 3 6 C2.67 6 2.34 6 2 6 Z " fill="#069EA6" transform="translate(420,6)"/>
<path d="M0 0 C1.92871094 0.19189453 1.92871094 0.19189453 4 1 C5.18847656 2.71826172 5.18847656 2.71826172 6.140625 4.9296875 C6.48867188 5.72503906 6.83671875 6.52039063 7.1953125 7.33984375 C7.54335938 8.17644531 7.89140625 9.01304688 8.25 9.875 C8.61351562 10.70386719 8.97703125 11.53273438 9.3515625 12.38671875 C12 18.54981203 12 18.54981203 12 22 C10.35 21.67 8.7 21.34 7 21 C6.67 19.68 6.34 18.36 6 17 C4.54052295 17.06006078 3.08220728 17.1488689 1.625 17.25 C0.81289063 17.29640625 0.00078125 17.3428125 -0.8359375 17.390625 C-3.18838927 17.7922092 -3.18838927 17.7922092 -4.2890625 20.046875 C-4.52367187 20.69140625 -4.75828125 21.3359375 -5 22 C-6.65 22 -8.3 22 -10 22 C-4.85714286 4.85714286 -4.85714286 4.85714286 0 0 Z M1 7 C0.01 8.98 -0.98 10.96 -2 13 C-0.02 13 1.96 13 4 13 C3.34 11.02 2.68 9.04 2 7 C1.67 7 1.34 7 1 7 Z " fill="#069EA7" transform="translate(617,72)"/>
<path d="M0 0 C1.65 0 3.3 0 5 0 C6.31478326 2.93648329 7.6264295 5.87435739 8.9375 8.8125 C9.31068359 9.64587891 9.68386719 10.47925781 10.06835938 11.33789062 C10.42607422 12.14033203 10.78378906 12.94277344 11.15234375 13.76953125 C11.48226318 14.50792236 11.81218262 15.24631348 12.15209961 16.00708008 C13 18 13 18 14 21 C12.35 21 10.7 21 9 21 C8.67 19.68 8.34 18.36 8 17 C3.05 17.495 3.05 17.495 -2 18 C-2.33 18.99 -2.66 19.98 -3 21 C-4.65 21 -6.3 21 -8 21 C-7.32512263 16.18080529 -5.42034091 12.08116134 -3.4375 7.6875 C-2.9434668 6.57665039 -2.9434668 6.57665039 -2.43945312 5.44335938 C-1.63082877 3.62688438 -0.81602884 1.81316069 0 0 Z M2 6 C1.34 7.98 0.68 9.96 0 12 C1.65 12 3.3 12 5 12 C4.34 10.02 3.68 8.04 3 6 C2.67 6 2.34 6 2 6 Z " fill="#069FA8" transform="translate(607,6)"/>
<path d="M0 0 C2.4375 1 2.4375 1 4 2 C3.67 3.32 3.34 4.64 3 6 C0.03 5.67 -2.94 5.34 -6 5 C-4.64450853 7.71098294 -3.30743091 7.73719265 -0.5 8.75 C3.82427048 10.59833252 3.82427048 10.59833252 5.3125 14 C5 17 5 17 3.625 19.375 C-0.14802675 21.71068322 -3.66402593 21.65650312 -8 21 C-10.28125 19.9765625 -10.28125 19.9765625 -12 19 C-11.67 17.35 -11.34 15.7 -11 14 C-9.9171875 14.495 -9.9171875 14.495 -8.8125 15 C-5.98302573 16.00603529 -3.97104534 16.16977402 -1 16 C-2.27929846 13.44140308 -3.44271068 13.13851266 -6 11.9375 C-9.91525424 10.08474576 -9.91525424 10.08474576 -11 9 C-11.3125 6.125 -11.3125 6.125 -11 3 C-7.9229225 -0.692493 -4.55425718 -0.4066301 0 0 Z " fill="#069DA5" transform="translate(473,6)"/>
<path d="M0 0 C2.4375 1 2.4375 1 4 2 C3.67 3.32 3.34 4.64 3 6 C-0.3 5.67 -3.6 5.34 -7 5 C-7 5.66 -7 6.32 -7 7 C-6.37351562 7.19335938 -5.74703125 7.38671875 -5.1015625 7.5859375 C-3.87566406 7.97652344 -3.87566406 7.97652344 -2.625 8.375 C-1.81289063 8.63023438 -1.00078125 8.88546875 -0.1640625 9.1484375 C2 10 2 10 4 12 C4.42151163 15.30184112 4.62848726 17.18023401 2.5625 19.875 C-1.22627545 21.53836483 -4.92174832 21.55286158 -9 21 C-11.28125 19.98046875 -11.28125 19.98046875 -13 19 C-12.67 17.35 -12.34 15.7 -12 14 C-11.0925 14.33 -10.185 14.66 -9.25 15 C-5.92954193 16.19605723 -5.92954193 16.19605723 -2 16 C-2 15.34 -2 14.68 -2 14 C-2.63808594 13.76925781 -3.27617187 13.53851563 -3.93359375 13.30078125 C-10.62867288 10.65826172 -10.62867288 10.65826172 -12.375 7.5625 C-12 5 -12 5 -10 2.1875 C-6.30250418 -0.5085907 -4.48524773 -0.57084971 0 0 Z " fill="#069DA6" transform="translate(451,6)"/>
<path d="M0 0 C0.79664063 0.15984375 1.59328125 0.3196875 2.4140625 0.484375 C3.38472656 0.86335938 3.38472656 0.86335938 4.375 1.25 C4.705 2.24 5.035 3.23 5.375 4.25 C5.045 4.91 4.715 5.57 4.375 6.25 C3.32699219 6.12431641 3.32699219 6.12431641 2.2578125 5.99609375 C1.34773437 5.89425781 0.43765625 5.79242188 -0.5 5.6875 C-1.40492188 5.58308594 -2.30984375 5.47867188 -3.2421875 5.37109375 C-5.64153057 5.05325148 -5.64153057 5.05325148 -7.625 6.25 C-8.46739972 9.13695186 -8.46739972 9.13695186 -8.625 12.25 C-7.02019216 15.37606964 -7.02019216 15.37606964 -4.6796875 15.76171875 C-3.96039062 15.81972656 -3.24109375 15.87773438 -2.5 15.9375 C-1.22125 16.040625 0.0575 16.14375 1.375 16.25 C1.375 14.27 1.375 12.29 1.375 10.25 C2.695 10.25 4.015 10.25 5.375 10.25 C5.375 13.22 5.375 16.19 5.375 19.25 C1.24089566 21.25441422 -2.04995281 21.65848636 -6.625 21.25 C-10.1636994 19.59860695 -11.43570153 18.53394771 -13.625 15.25 C-14.22639317 11.83825026 -14.26094724 8.65802495 -13.625 5.25 C-10.19334545 0.45434395 -5.62845961 -1.21002715 0 0 Z " fill="#069DA6" transform="translate(597.625,72.75)"/>
<path d="M0 0 C2.875 1.5 2.875 1.5 5 3 C4.34 4.32 3.68 5.64 3 7 C1.9275 6.62875 0.855 6.2575 -0.25 5.875 C-3.77163122 4.75965601 -3.77163122 4.75965601 -6.375 5.5625 C-8.1859746 6.94562305 -8.1859746 6.94562305 -8.9375 9.375 C-9.16132999 12.01108187 -9.16132999 12.01108187 -8.125 14.375 C-5.48188475 16.39620578 -4.65635015 16.08661669 -1.4375 15.6875 C-0.25994141 15.47673828 -0.25994141 15.47673828 0.94140625 15.26171875 C3 15 3 15 5 16 C5 16.99 5 17.98 5 19 C0.69321224 21.44148966 -3.13610811 21.72828328 -8 21 C-10.87029869 19.20606332 -12.49131638 18.01736724 -14 15 C-14.42074378 11.94059163 -14.47999423 9.0540292 -14 6 C-10.0012191 0.81239234 -6.44569159 -0.51565533 0 0 Z " fill="#069FA8" transform="translate(526,6)"/>
<path d="M0 0 C0.99 0 1.98 0 3 0 C3 1.32 3 2.64 3 4 C5.64 4 8.28 4 11 4 C11 4.99 11 5.98 11 7 C10.34 7 9.68 7 9 7 C8.34 8.65 7.68 10.3 7 12 C6.360625 11.814375 5.72125 11.62875 5.0625 11.4375 C4.0415625 11.2209375 4.0415625 11.2209375 3 11 C2.67 11.33 2.34 11.66 2 12 C0.65732587 12.08631874 -0.68974322 12.10706473 -2.03515625 12.09765625 C-2.84404297 12.09443359 -3.65292969 12.09121094 -4.48632812 12.08789062 C-5.33646484 12.07951172 -6.18660156 12.07113281 -7.0625 12.0625 C-7.91650391 12.05798828 -8.77050781 12.05347656 -9.65039062 12.04882812 C-11.76695663 12.03700373 -13.88348685 12.01906769 -16 12 C-16 9.36 -16 6.72 -16 4 C-12.37 4 -8.74 4 -5 4 C-4.67 4.66 -4.34 5.32 -4 6 C-3.401875 5.01 -2.80375 4.02 -2.1875 3 C-1.1046875 1.515 -1.1046875 1.515 0 0 Z M-13 7 C-12 10 -12 10 -12 10 Z M-9 7 C-8 9 -8 9 -8 9 Z M3 7 C3.66 7.66 4.32 8.32 5 9 C5 8.34 5 7.68 5 7 C4.34 7 3.68 7 3 7 Z " fill="#00516E" transform="translate(530,101)"/>
<path d="M0 0 C0.99 0 1.98 0 3 0 C3 2.31 3 4.62 3 7 C3.556875 6.319375 4.11375 5.63875 4.6875 4.9375 C5.450625 4.298125 6.21375 3.65875 7 3 C9.75 3.25 9.75 3.25 12 4 C11.7525 4.86625 11.7525 4.86625 11.5 5.75 C10.85537969 8.26664369 10.85537969 8.26664369 11 12 C7.04 12 3.08 12 -1 12 C-1.33 11.01 -1.66 10.02 -2 9 C-1.67 8.34 -1.34 7.68 -1 7 C-2.32 7.33 -3.64 7.66 -5 8 C-5.33 9.32 -5.66 10.64 -6 12 C-6.99 12 -7.98 12 -9 12 C-9.33 10.35 -9.66 8.7 -10 7 C-10.33 8.65 -10.66 10.3 -11 12 C-12.32 12 -13.64 12 -15 12 C-14.85892253 10.54119891 -14.71197585 9.08296449 -14.5625 7.625 C-14.48128906 6.81289062 -14.40007813 6.00078125 -14.31640625 5.1640625 C-14 3 -14 3 -13 1 C-12.01 1 -11.02 1 -10 1 C-10 1.99 -10 2.98 -10 4 C-7.03 4 -4.06 4 -1 4 C-0.67 2.68 -0.34 1.36 0 0 Z M7 6 C6.67 7.32 6.34 8.64 6 10 C6.66 8.68 7.32 7.36 8 6 C7.67 6 7.34 6 7 6 Z " fill="#00526F" transform="translate(635,101)"/>
<path d="M0 0 C5.61 0 11.22 0 17 0 C17.33 1.65 17.66 3.3 18 5 C15.69 5 13.38 5 11 5 C11 10.61 11 16.22 11 22 C9.35 22 7.7 22 6 22 C6 16.39 6 10.78 6 5 C4.02 5 2.04 5 0 5 C0 3.35 0 1.7 0 0 Z " fill="#05A2A9" transform="translate(538,72)"/>
<path d="M0 0 C3.875 1.75 3.875 1.75 5 4 C8.63 4 12.26 4 16 4 C16 6.64 16 9.28 16 12 C15.443125 11.814375 14.88625 11.62875 14.3125 11.4375 C12.02890312 10.85368345 12.02890312 10.85368345 9.875 11.4375 C5.62051073 12.26990007 1.32360801 12.27222717 -3 12 C-4 11 -4 11 -4.125 8.6875 C-4.01081586 6.23254106 -3.86966475 4.29275251 -3 2 C-2.01 1.34 -1.02 0.68 0 0 Z M-1 6 C0 9 0 9 0 9 Z M3 7 C3.33 7.99 3.66 8.98 4 10 C4.33 9.01 4.66 8.02 5 7 C4.34 7 3.68 7 3 7 Z M8 7 C9 10 9 10 9 10 Z M12 7 C13 9 13 9 13 9 Z " fill="#00526F" transform="translate(427,101)"/>
<path d="M0 0 C1.65 0 3.3 0 5 0 C5 5.61 5 11.22 5 17 C7.64 17 10.28 17 13 17 C13 18.65 13 20.3 13 22 C8.71 22 4.42 22 0 22 C0 14.74 0 7.48 0 0 Z " fill="#06A1A9" transform="translate(634,39)"/>
<path d="M0 0 C2.475 0.495 2.475 0.495 5 1 C5 6.28 5 11.56 5 17 C7.64 17 10.28 17 13 17 C13 18.65 13 20.3 13 22 C8.71 22 4.42 22 0 22 C0 14.74 0 7.48 0 0 Z " fill="#079FA9" transform="translate(634,72)"/>
<path d="M0 0 C0.99 0 1.98 0 3 0 C3 1.65 3 3.3 3 5 C5.46278801 5 6.85224119 4.14547137 9 3 C9.99 3.66 10.98 4.32 12 5 C11.25 9.75 11.25 9.75 9 12 C6.99548879 11.69496569 4.99551782 11.35919321 3 11 C0.72349255 11.3577614 0.72349255 11.3577614 -1 12 C-1.33 11.34 -1.66 10.68 -2 10 C-2.66 10.66 -3.32 11.32 -4 12 C-6.625 11.625 -6.625 11.625 -9 11 C-9.33 9.68 -9.66 8.36 -10 7 C-7.75 4.9375 -7.75 4.9375 -5 3 C-2.6875 3.25 -2.6875 3.25 -1 4 C-0.67 2.68 -0.34 1.36 0 0 Z M-5 5 C-5.66 6.65 -6.32 8.3 -7 10 C-6.01 9.67 -5.02 9.34 -4 9 C-4.33 7.68 -4.66 6.36 -5 5 Z M7 6 C6.67 7.32 6.34 8.64 6 10 C6.66 10 7.32 10 8 10 C8.33 8.68 8.66 7.36 9 6 C8.34 6 7.68 6 7 6 Z M2 7 C3 9 3 9 3 9 Z " fill="#00536C" transform="translate(551,101)"/>
<path d="M0 0 C2.44225796 2.17089597 3.85827843 3.80200982 4.25 7.11328125 C4.25 9.07728956 4.13284815 11.04048986 4 13 C5.65 12.67 7.3 12.34 9 12 C8.67 13.32 8.34 14.64 8 16 C5.36 16 2.72 16 0 16 C0.01160156 15.38511719 0.02320313 14.77023438 0.03515625 14.13671875 C0.04417969 13.32847656 0.05320312 12.52023438 0.0625 11.6875 C0.07410156 10.88699219 0.08570313 10.08648437 0.09765625 9.26171875 C0.09657855 6.83138666 0.09657855 6.83138666 -1 4 C-1.99 4.495 -1.99 4.495 -3 5 C-3.4683265 7.58605332 -3.4683265 7.58605332 -3.625 10.5625 C-3.73714844 12.08037109 -3.73714844 12.08037109 -3.8515625 13.62890625 C-3.90054688 14.41136719 -3.94953125 15.19382812 -4 16 C-5.9375 15.625 -5.9375 15.625 -8 15 C-9.63327049 11.73345901 -8.85113052 8.42416354 -8 5 C-4.97916667 0 -4.97916667 0 0 0 Z " fill="#004F66" transform="translate(61,48)"/>
<path d="M0 0 C0.89847656 0.00257812 1.79695313 0.00515625 2.72265625 0.0078125 C3.61855469 0.00523438 4.51445312 0.00265625 5.4375 0 C7.78515625 0.1328125 7.78515625 0.1328125 9.78515625 1.1328125 C9.78515625 1.7928125 9.78515625 2.4528125 9.78515625 3.1328125 C10.77515625 3.4628125 11.76515625 3.7928125 12.78515625 4.1328125 C10.80515625 5.1228125 10.80515625 5.1228125 8.78515625 6.1328125 C8.45515625 5.1428125 8.12515625 4.1528125 7.78515625 3.1328125 C5.47515625 3.4628125 3.16515625 3.7928125 0.78515625 4.1328125 C0.75828346 5.94523302 0.7388191 7.75776483 0.72265625 9.5703125 C0.71105469 10.57964844 0.69945312 11.58898437 0.6875 12.62890625 C0.49902949 15.07302317 0.49902949 15.07302317 1.78515625 16.1328125 C1.82596408 18.13239614 1.82769981 20.13326504 1.78515625 22.1328125 C0.13515625 21.8028125 -1.51484375 21.4728125 -3.21484375 21.1328125 C-3.24372521 17.82033063 -3.26160174 14.50788083 -3.27734375 11.1953125 C-3.28572266 10.24978516 -3.29410156 9.30425781 -3.30273438 8.33007812 C-3.30595703 7.43095703 -3.30917969 6.53183594 -3.3125 5.60546875 C-3.31773682 4.77281494 -3.32297363 3.94016113 -3.32836914 3.08227539 C-3.16442329 0.26699012 -2.81386421 0.1687326 0 0 Z " fill="#05AEB7" transform="translate(487.21484375,38.8671875)"/>
<path d="M0 0 C0.66 0 1.32 0 2 0 C1.67 1.32 1.34 2.64 1 4 C1.99 4 2.98 4 4 4 C4 5.32 4 6.64 4 8 C4.99 6.35 5.98 4.7 7 3 C8.32 3.66 9.64 4.32 11 5 C10.34 7.31 9.68 9.62 9 12 C8.195625 11.814375 7.39125 11.62875 6.5625 11.4375 C5.716875 11.293125 4.87125 11.14875 4 11 C3.67 11.33 3.34 11.66 3 12 C0.66702567 12.04092937 -1.66705225 12.04241723 -4 12 C-4.59732819 9.23735711 -5 6.83967231 -5 4 C-4.01 4 -3.02 4 -2 4 C-1.34 2.68 -0.68 1.36 0 0 Z " fill="#00546E" transform="translate(609,101)"/>
<path d="M0 0 C1.65 0 3.3 0 5 0 C5 7.26 5 14.52 5 22 C3.35 22 1.7 22 0 22 C0 14.74 0 7.48 0 0 Z " fill="#059DA6" transform="translate(598,39)"/>
<path d="M0 0 C1.65 0 3.3 0 5 0 C5 6.93 5 13.86 5 21 C3.35 21 1.7 21 0 21 C0 14.07 0 7.14 0 0 Z " fill="#04999E" transform="translate(538,6)"/>
<path d="M0 0 C1.32 0.99 2.64 1.98 4 3 C3.01 3 2.02 3 1 3 C1.020625 4.299375 1.04125 5.59875 1.0625 6.9375 C1.08399454 8.29165633 1.07148199 9.64756083 1 11 C0.67 11.33 0.34 11.66 0 12 C3.465 13.485 3.465 13.485 7 15 C7 15.33 7 15.66 7 16 C3.37 16 -0.26 16 -4 16 C-4.33 17.65 -4.66 19.3 -5 21 C-5.66 21 -6.32 21 -7 21 C-4.66666667 14 -2.33333333 7 0 0 Z " fill="#06A4AD" transform="translate(557,39)"/>
<path d="M0 0 C-0.33 3.96 -0.66 7.92 -1 12 C-4.70152678 12.92538169 -5.63458162 13.08174162 -9 12 C-9.3125 9.75 -9.3125 9.75 -9 7 C-6.5 4.8125 -6.5 4.8125 -4 3 C-4 2.34 -4 1.68 -4 1 C-1 0 -1 0 0 0 Z M-6 8 C-5 11 -5 11 -5 11 Z " fill="#004F6F" transform="translate(604,100)"/>
<path d="M0 0 C1.01936725 3.05810176 1.00186825 4.49801207 0.625 7.625 C0.53476562 8.42164062 0.44453125 9.21828125 0.3515625 10.0390625 C0 12 0 12 -1 13 C-3.33297433 13.04092937 -5.66705225 13.04241723 -8 13 C-8.125 10.125 -8.125 10.125 -8 7 C-7.34 6.34 -6.68 5.68 -6 5 C-5.01 5 -4.02 5 -3 5 C-3 3.68 -3 2.36 -3 1 C-2.01 0.67 -1.02 0.34 0 0 Z M-5 7 C-4 10 -4 10 -4 10 Z " fill="#00546F" transform="translate(481,100)"/>
<path d="M0 0 C1.65 0 3.3 0 5 0 C5 5.61 5 11.22 5 17 C6.98 17 8.96 17 11 17 C11 17.33 11 17.66 11 18 C8.66705225 18.04241723 6.33297433 18.04092937 4 18 C3 17 3 17 2.90234375 13.62109375 C2.90901631 12.22652923 2.92097468 10.83198257 2.9375 9.4375 C2.94201172 8.72658203 2.94652344 8.01566406 2.95117188 7.28320312 C2.96299136 5.52209987 2.98092737 3.76103964 3 2 C2.34 2 1.68 2 1 2 C1 8.6 1 15.2 1 22 C0.67 22 0.34 22 0 22 C0 14.74 0 7.48 0 0 Z " fill="#0399A2" transform="translate(634,39)"/>
<path d="M0 0 C0 1.32 0 2.64 0 4 C-0.66 4 -1.32 4 -2 4 C-2 3.34 -2 2.68 -2 2 C-4.52363988 2.62533375 -4.52363988 2.62533375 -7 4 C-7.89386164 6.54775306 -7.89386164 6.54775306 -8 9 C-4.535 8.505 -4.535 8.505 -1 8 C-1.99 9.485 -1.99 9.485 -3 11 C-5.9375 11.375 -5.9375 11.375 -9 11 C-10.875 9.5 -10.875 9.5 -12 8 C-11.12794785 4.43251393 -10.5425095 2.45453499 -7.6875 0.0625 C-4.60143265 -1.15757314 -3.12197549 -0.9811923 0 0 Z " fill="#00506D" transform="translate(505,102)"/>
<path d="M0 0 C-0.33 1.32 -0.66 2.64 -1 4 C-1.66 4 -2.32 4 -3 4 C-3 3.34 -3 2.68 -3 2 C-4.32 2 -5.64 2 -7 2 C-7.33 3.98 -7.66 5.96 -8 8 C-5.69 8 -3.38 8 -1 8 C-1.99 9.485 -1.99 9.485 -3 11 C-6.18959781 11.4071827 -8.16000247 11.51483719 -10.9375 9.8125 C-12 8 -12 8 -11.875 5.5 C-10.94495748 2.84273567 -10.21147717 1.70113629 -8 0 C-4.71023192 -1.09658936 -3.28696233 -0.79953138 0 0 Z " fill="#00556F" transform="translate(423,102)"/>
<path d="M0 0 C10.125 0 10.125 0 15 2 C14.67 2.99 14.34 3.98 14 5 C13.505 4.855625 13.01 4.71125 12.5 4.5625 C9.04776557 3.78574725 5.51121524 3.43890191 2 3 C2 8.94 2 14.88 2 21 C1.67 21 1.34 21 1 21 C0.67 14.07 0.34 7.14 0 0 Z " fill="#05A6AD" transform="translate(468,72)"/>
<path d="M0 0 C2.64 0 5.28 0 8 0 C8 2.64 8 5.28 8 8 C7.4225 7.814375 6.845 7.62875 6.25 7.4375 C3.79307475 6.95976454 2.35602466 7.24270636 0 8 C0 5.36 0 2.72 0 0 Z M4 2 C5 5 5 5 5 5 Z " fill="#00526C" transform="translate(586,105)"/>
<path d="M0 0 C0.86625 0.37125 0.86625 0.37125 1.75 0.75 C1.75 3.39 1.75 6.03 1.75 8.75 C-0.56 8.75 -2.87 8.75 -5.25 8.75 C-6 6.5 -6 6.5 -6.25 3.75 C-3.32317073 -0.36924119 -3.32317073 -0.36924119 0 0 Z M-3.25 3.75 C-2.25 6.75 -2.25 6.75 -2.25 6.75 Z " fill="#005471" transform="translate(466.25,104.25)"/>
<path d="M0 0 C0.86625 0.3403125 0.86625 0.3403125 1.75 0.6875 C1.75 2.9975 1.75 5.3075 1.75 7.6875 C-1.30263664 8.66870464 -3.19736336 8.66870464 -6.25 7.6875 C-6.5 5.375 -6.5 5.375 -6.25 2.6875 C-4.11319077 0.39806154 -3.15626895 -0.43837069 0 0 Z M-3.25 3.6875 C-2.25 6.6875 -2.25 6.6875 -2.25 6.6875 Z " fill="#00536D" transform="translate(450.25,104.3125)"/>
<path d="M0 0 C2.475 0.495 2.475 0.495 5 1 C5 6.28 5 11.56 5 17 C7.31 17 9.62 17 12 17 C12 17.33 12 17.66 12 18 C9.36 18 6.72 18 4 18 C3.92652344 16.39318359 3.92652344 16.39318359 3.8515625 14.75390625 C3.77654706 13.35674361 3.7009987 11.9596095 3.625 10.5625 C3.5940625 9.85544922 3.563125 9.14839844 3.53125 8.41992188 C3.42719371 6.60760812 3.22080108 4.80182012 3 3 C2.34 2.67 1.68 2.34 1 2 C1 8.6 1 15.2 1 22 C0.67 22 0.34 22 0 22 C0 14.74 0 7.48 0 0 Z " fill="#0297A3" transform="translate(634,72)"/>
<path d="M0 0 C1.32 0.66 2.64 1.32 4 2 C4.125 4.375 4.125 4.375 4 7 C2 9 2 9 -0.5625 9.1875 C-3 9 -3 9 -4 8 C-4.3125 5.625 -4.3125 5.625 -4 3 C-2 1.1875 -2 1.1875 0 0 Z " fill="#00536D" transform="translate(571,104)"/>
<path d="M0 0 C1.32 0.66 2.64 1.32 4 2 C4.125 4.375 4.125 4.375 4 7 C2 9 2 9 -0.5625 9.1875 C-3 9 -3 9 -4 8 C-4.3125 5.625 -4.3125 5.625 -4 3 C-2 1.1875 -2 1.1875 0 0 Z M0 3 C-0.33 4.32 -0.66 5.64 -1 7 C-0.34 6.67 0.32 6.34 1 6 C0.67 5.01 0.34 4.02 0 3 Z " fill="#005871" transform="translate(509,104)"/>
<path d="M0 0 C0.99 0.33 1.98 0.66 3 1 C3.19561869 3.0825867 3.38119313 5.16611856 3.5625 7.25 C3.66691406 8.41015625 3.77132812 9.5703125 3.87890625 10.765625 C3.98198087 13.51871477 3.86213473 15.419982 3 18 C2.01 17.67 1.02 17.34 0 17 C0 11.39 0 5.78 0 0 Z " fill="#06A2AC" transform="translate(560,72)"/>
<path d="M0 0 C0.99 0.33 1.98 0.66 3 1 C3.33 2.98 3.66 4.96 4 7 C1 9 1 9 -1.6875 8.625 C-2.450625 8.41875 -3.21375 8.2125 -4 8 C-4.25 5.6875 -4.25 5.6875 -4 3 C-2.1875 1.125 -2.1875 1.125 0 0 Z " fill="#00546E" transform="translate(486,104)"/>
<path d="M0 0 C10 0 10 0 14 2 C10.04 2 6.08 2 2 2 C1.67 8.6 1.34 15.2 1 22 C0.67 22 0.34 22 0 22 C0 14.74 0 7.48 0 0 Z " fill="#028E9C" transform="translate(462,39)"/>
<path d="M0 0 C0.66 0 1.32 0 2 0 C2 2.31 2 4.62 2 7 C3.65 6.67 5.3 6.34 7 6 C6.67 7.32 6.34 8.64 6 10 C3.36 10 0.72 10 -2 10 C-2.1953125 3.9453125 -2.1953125 3.9453125 -2 2 C-1.34 1.34 -0.68 0.68 0 0 Z " fill="#004459" transform="translate(63,54)"/>
<path d="M0 0 C1.23556641 0.01740234 1.23556641 0.01740234 2.49609375 0.03515625 C3.32238281 0.04417969 4.14867187 0.05320313 5 0.0625 C5.63808594 0.07410156 6.27617188 0.08570313 6.93359375 0.09765625 C6.60359375 1.41765625 6.27359375 2.73765625 5.93359375 4.09765625 C2.55340844 5.13771327 -0.54443415 5.17770107 -4.06640625 5.09765625 C-2.94676868 0.13926128 -2.94676868 0.13926128 0 0 Z " fill="#059AA2" transform="translate(608.06640625,-0.09765625)"/>
<path d="M0 0 C1.65 0 3.3 0 5 0 C4.34 3.63 3.68 7.26 3 11 C1.35 11 -0.3 11 -2 11 C-1.34 7.37 -0.68 3.74 0 0 Z " fill="#005470" transform="translate(581,102)"/>
<path d="M0 0 C3.58357037 0.27565926 5.34858004 1.20193885 8.25 3.25 C7.59 4.57 6.93 5.89 6.25 7.25 C-1.32142857 4.25 -1.32142857 4.25 -3.75 1.25 C-2.75 0.25 -2.75 0.25 0 0 Z " fill="#06959E" transform="translate(522.75,5.75)"/>
<path d="M0 0 C0.66 0.33 1.32 0.66 2 1 C1.67 1.66 1.34 2.32 1 3 C0.76725791 5.87910588 0.58027243 8.74146495 0.4375 11.625 C0.39431641 12.42679688 0.35113281 13.22859375 0.30664062 14.0546875 C0.20048543 16.0362511 0.09973145 18.01810271 0 20 C-0.66 20 -1.32 20 -2 20 C-2.05379226 17.04142591 -2.09357093 14.08382279 -2.125 11.125 C-2.14175781 10.28324219 -2.15851562 9.44148437 -2.17578125 8.57421875 C-2.18222656 7.76855469 -2.18867187 6.96289062 -2.1953125 6.1328125 C-2.21102295 5.01737061 -2.21102295 5.01737061 -2.22705078 3.87939453 C-2 2 -2 2 0 0 Z " fill="#06A6AF" transform="translate(541,6)"/>
<path d="M0 0 C1.32 0 2.64 0 4 0 C6.25 3 6.25 3 8 6 C6.68 6.33 5.36 6.66 4 7 C3.67 6.01 3.34 5.02 3 4 C1.35 4.66 -0.3 5.32 -2 6 C-1.49396008 3.83125748 -1.00016187 2.00032373 0 0 Z " fill="#005373" transform="translate(57,48)"/>
<path d="M0 0 C1.8125 0.0625 1.8125 0.0625 4 1 C5.75 4.5625 5.75 4.5625 7 8 C6.34 8 5.68 8 5 8 C4.34 7.34 3.68 6.68 3 6 C3.66 8.31 4.32 10.62 5 13 C3.29159719 11.36587557 2.06546953 10.13093906 1 8 C0.34 7.67 -0.32 7.34 -1 7 C-0.649375 6.21625 -0.29875 5.4325 0.0625 4.625 C0.371875 3.75875 0.68125 2.8925 1 2 C0.67 1.34 0.34 0.68 0 0 Z " fill="#05969E" transform="translate(558,39)"/>
<path d="M0 0 C2.31 0 4.62 0 7 0 C7 0.99 7 1.98 7 3 C6.01 3.33 5.02 3.66 4 4 C3.26676204 6.01508358 3.26676204 6.01508358 3 8 C2.01 8 1.02 8 0 8 C0 5.36 0 2.72 0 0 Z " fill="#00506A" transform="translate(453,105)"/>
<path d="M0 0 C0.0825 0.61875 0.165 1.2375 0.25 1.875 C0.79394438 4.17972859 0.79394438 4.17972859 3 5.0625 C3.66 5.371875 4.32 5.68125 5 6 C5.33 6.99 5.66 7.98 6 9 C4.35 9 2.7 9 1 9 C-1.09230769 4.56923077 -1.09230769 4.56923077 -0.625 1.6875 C-0.41875 1.130625 -0.2125 0.57375 0 0 Z " fill="#06A0A8" transform="translate(587,52)"/>
<path d="M0 0 C0.99 0.33 1.98 0.66 3 1 C3.33 3.97 3.66 6.94 4 10 C2.68 9.34 1.36 8.68 0 8 C0 5.36 0 2.72 0 0 Z " fill="#06A1AA" transform="translate(584,80)"/>
<path d="M0 0 C2.125 0.9375 2.125 0.9375 4 2 C3.67 2.99 3.34 3.98 3 5 C-1 5 -1 5 -3 4 C-2.67 3.01 -2.34 2.02 -2 1 C-1.34 0.67 -0.68 0.34 0 0 Z " fill="#005066" transform="translate(509,104)"/>
<path d="M0 0 C1.0625 1.8125 1.0625 1.8125 2 4 C1.67 4.99 1.34 5.98 1 7 C-0.32 6.67 -1.64 6.34 -3 6 C-2.67 4.68 -2.34 3.36 -2 2 C-1.34 2 -0.68 2 0 2 C0 1.34 0 0.68 0 0 Z " fill="#004F64" transform="translate(645,106)"/>
<path d="M0 0 C2.475 0.495 2.475 0.495 5 1 C4.34 2.32 3.68 3.64 3 5 C2.01 4.34 1.02 3.68 0 3 C0 2.01 0 1.02 0 0 Z " fill="#059EA7" transform="translate(526,8)"/>
</svg>
