<svg xmlns="http://www.w3.org/2000/svg" viewBox="0 0 169.95 47.27"><defs><style>.cls-1{fill:#1a171b;}.cls-2{fill:#e41a1b;}.cls-3{fill:#295aa1;}.cls-4{fill:#2d9036;}.cls-5{fill:#85341f;}.cls-6{fill:#2d9035;}.cls-7{fill:#fff;}</style></defs><title>logotipo-adl</title><g id="Layer_2" data-name="Layer 2"><g id="Layer_1-2" data-name="Layer 1"><path class="cls-1" d="M87.22,35.4v-.6l.6-.14a2.7,2.7,0,0,0,.83-.24,1.33,1.33,0,0,0,.36-.53l1.83-4.74,1.92-5.07V27l0-.11-1.29,3.46c.53,0,1,0,1.34,0v.93H91.06c-.12.28-.38,1-.78,2.1a2.47,2.47,0,0,0-.16.65.4.4,0,0,0,.11.33,1.7,1.7,0,0,0,.8.25,5.67,5.67,0,0,0,.63.1c0,.21,0,.36,0,.45a1.21,1.21,0,0,1,0,.19c-.37,0-1.26,0-2.65-.14l-.37.06a8.34,8.34,0,0,1-1.28.1Zm20.1-11.72v1a5.16,5.16,0,0,0-1.44-.21,4.71,4.71,0,0,0-1.58.26c0,.19,0,.32,0,.39v2.86c0,.43,0,.8,0,1.13l0,.85,0,1.42,0,.88a2.24,2.24,0,0,0,.47,1.67,2.5,2.5,0,0,0,1.82.63c.28,0,.52,0,.73,0v.91h-.18l-1.84-.06-.53,0-.73,0-.22,0-.76,0-1,0s-.34,0-.92.07c-.18,0-.44,0-.74,0H100a5.89,5.89,0,0,1,0-.71,4.26,4.26,0,0,1,.55-.12,2.17,2.17,0,0,0,1.09-.38.93.93,0,0,0,.22-.58c0-.08,0-1,.05-2.73V28.69l0-3.05,0-.37a.53.53,0,0,0-.13-.36.61.61,0,0,0-.35-.07,4.09,4.09,0,0,0-.53.07,3.63,3.63,0,0,0-.71.07L100,25l0-.8a14.39,14.39,0,0,1,1.53-.33,25.14,25.14,0,0,1,4-.26c.71,0,1.33,0,1.84.06m-14.55.4.2-.48h1l.08.15,1.56,3.7c.36.77.68,1.54,1,2.28s.51,1.35.73,1.81q.18.42.48,1.26c.12.3.28.7.5,1.14a1.72,1.72,0,0,0,.26.45,1.26,1.26,0,0,0,.53.18,2.72,2.72,0,0,1,.78.2,2.32,2.32,0,0,1,0,.45v.18c-.45,0-.94,0-1.47,0s-1-.06-1.43-.06h-1l-1.52.08-.43,0c0-.21,0-.41,0-.6l1-.21a2.8,2.8,0,0,0,.53-.18.37.37,0,0,0,.08-.22.53.53,0,0,0,0-.23l-.35-.88-.71-1.76H92.77v-.93l1.12,0,.24,0c-.19-.53-.42-1.14-.72-1.86S93,27.38,92.77,27Zm21.5,10.59a7,7,0,0,1,.77-.15,5.28,5.28,0,0,1,.6-.08.67.67,0,0,0,.46-.12,1.13,1.13,0,0,0,.07-.36l0-1.14,0-1.16V29.09l0-2,0-.91v-.12a6.71,6.71,0,0,0-.12-1,1.1,1.1,0,0,0-.53-.24l-.33-.13a2,2,0,0,0-.4-.13,1.42,1.42,0,0,1-.45-.18c0-.17,0-.29,0-.37a1.87,1.87,0,0,1,0-.21.25.25,0,0,1,.17-.05l1.56.08,1.27,0,1,0c.41,0,.94,0,1.59-.08l.33,0a.2.2,0,0,1,.18.07.61.61,0,0,1,.07.36.45.45,0,0,1-.1.3c0,.05-.17.08-.4.12l-1.11.26-.15.07a.58.58,0,0,1-.05.11l0,.25v.83s0,.18,0,.48a1,1,0,0,0,0,.23c0,.1,0,.27,0,.5s0,.66,0,.93,0,.68,0,1.08v.58l0,4.26a.45.45,0,0,0,.1.34l.85,0,.53,0,.56,0a5.86,5.86,0,0,0,2.27-.34,2,2,0,0,0,.81-.49,3,3,0,0,0,.5-.58,5.23,5.23,0,0,0,.43-1.05h.3c.13,0,.3,0,.48,0v.25c0,.43,0,1.19-.17,2.27a2.34,2.34,0,0,1-.13.77.78.78,0,0,1-.25,0h-.79c-.07,0-.42,0-1.08-.06-.12,0-.68,0-1.71-.07s-2,0-3,0l-1.84,0c-.69,0-1.36.05-2,.1h-.13a.65.65,0,0,1-.18,0,.47.47,0,0,1,0-.16,1.52,1.52,0,0,1,.07-.55m-7,.73v-.91a3.16,3.16,0,0,0,.58-.13,3.54,3.54,0,0,0,1.39-.91,3.8,3.8,0,0,0,.8-1.61,9.29,9.29,0,0,0,.26-2.14,6.59,6.59,0,0,0-.58-2.95A4,4,0,0,0,108.18,25a4.13,4.13,0,0,0-.86-.37v-1a9.71,9.71,0,0,1,1.08.15,5.76,5.76,0,0,1,2.27,1.05A6.05,6.05,0,0,1,112.44,27a6.23,6.23,0,0,1,.58,2.66,5.87,5.87,0,0,1-.79,3.11A5.61,5.61,0,0,1,110,34.85a5.91,5.91,0,0,1-2.65.55"/><path class="cls-1" d="M.12,45l.11,0H.41c.2,0,.34,0,.37-.07a.88.88,0,0,0,.31-.25,10.21,10.21,0,0,0,.78-1.14c.15-.23.23-.36.27-.41s.21-.34.33-.5l.66-1,.25-.41v.26c-.15.23-.26.42-.35.57l-.2.31a1.38,1.38,0,0,1-.13.2.42.42,0,0,1-.07.13l0,0c.22,0,.47,0,.73,0v.18H2.52l-.12.17-.64,1.08c-.27.41-.4.64-.42.68a.2.2,0,0,0,0,.11l.2,0,.53.05s0,0,0,0a.12.12,0,0,1,0,.07H1.79c-.2,0-.45,0-.71,0H.51l-.2,0-.23,0v0s0,0,0-.07m9.23-.88a2.32,2.32,0,0,0,.08.48A.7.7,0,0,0,9.7,45a.61.61,0,0,0,.41.13.87.87,0,0,0,.5-.19.63.63,0,0,0,.25-.34.56.56,0,0,0,0-.46,1.27,1.27,0,0,0-.58-.41,1.13,1.13,0,0,1-.58-.42.61.61,0,0,1,0-.5,1.15,1.15,0,0,1,.27-.48,1.32,1.32,0,0,1,.5-.29,1.07,1.07,0,0,1,.49-.12,2.57,2.57,0,0,1,.5.05.91.91,0,0,1,.33.13c0,.13,0,.33-.11.6l0,.11h-.15a.75.75,0,0,0-.22-.51.55.55,0,0,0-.41-.18.78.78,0,0,0-.43.13.82.82,0,0,0-.25.38.44.44,0,0,0,0,.32,1.19,1.19,0,0,0,.47.31,2.34,2.34,0,0,1,.54.33.63.63,0,0,1,.19.37,1.41,1.41,0,0,1,0,.41,1.12,1.12,0,0,1-.33.5,1.31,1.31,0,0,1-.53.33,1.58,1.58,0,0,1-.52.1,2.09,2.09,0,0,1-.86-.18.15.15,0,0,1,0-.12,1,1,0,0,1,0-.11c.05-.35.08-.57.1-.63a.21.21,0,0,1,.05-.07l.1,0m-2.94,0a4.74,4.74,0,0,0,.09.48.69.69,0,0,0,.26.35.66.66,0,0,0,.42.13.85.85,0,0,0,.49-.19.55.55,0,0,0,.25-.34.53.53,0,0,0,0-.46,1.16,1.16,0,0,0-.58-.41,1.23,1.23,0,0,1-.58-.42.66.66,0,0,1,0-.5A1,1,0,0,1,7,42.31,1.24,1.24,0,0,1,7.44,42a1.1,1.1,0,0,1,.5-.12,2.57,2.57,0,0,1,.5.05,1,1,0,0,1,.33.13,4.54,4.54,0,0,1-.1.6l0,.11H8.49a.8.8,0,0,0-.22-.51.57.57,0,0,0-.41-.18.78.78,0,0,0-.43.13.82.82,0,0,0-.25.38.39.39,0,0,0,0,.32,1.21,1.21,0,0,0,.46.31,2.24,2.24,0,0,1,.55.33.57.57,0,0,1,.18.37,1.13,1.13,0,0,1,0,.41,1.07,1.07,0,0,1-.34.5,1.14,1.14,0,0,1-.53.33,1.48,1.48,0,0,1-.51.1,2.09,2.09,0,0,1-.86-.18s0-.07,0-.12a.66.66,0,0,0,0-.11,4,4,0,0,1,.11-.63s0-.05,0-.07l.1,0M13.89,42v.2l-.1,0a1.55,1.55,0,0,0-.58.47,2.42,2.42,0,0,0-.46,1,1.38,1.38,0,0,0,0,1.09.79.79,0,0,0,.71.36,1.2,1.2,0,0,0,.42-.08v.18a2,2,0,0,1-.5,0,1.53,1.53,0,0,1-.84-.24,1.15,1.15,0,0,1-.4-.58,1.44,1.44,0,0,1,0-.87,2.27,2.27,0,0,1,.26-.56,2.57,2.57,0,0,1,.5-.55,2.7,2.7,0,0,1,.58-.36,3.4,3.4,0,0,1,.38-.12M3.38,41.19l.48-.72c.08-.13.22-.33.37-.58h.24a4,4,0,0,1,.1.72c0,.13,0,.33,0,.61l.15,1.61.07.88c0,.49.07.79.08.91a.42.42,0,0,0,.09.23l.13,0,.16,0a1.23,1.23,0,0,1,.24.1.1.1,0,0,1,0,.07.08.08,0,0,1,0,0H4.62l-.39,0-.48,0-.1,0H3.48l-.07,0,0-.1.1,0L4,45a1,1,0,0,0,.25-.05l.06-.1v-.36c0-.14,0-.27,0-.39s0-.49-.08-1.16l-.29,0-.51,0V42.7H3.6a4.36,4.36,0,0,0,.54,0V42.4c0-.47-.06-.72-.08-.77L4,40.74l0-.08s-.11.16-.28.41l-.28.38Zm10.51,4V45a.84.84,0,0,0,.2-.08,1.84,1.84,0,0,0,.58-.51,2.56,2.56,0,0,0,.4-.83,2.51,2.51,0,0,0,.08-.72.82.82,0,0,0-.23-.59.76.76,0,0,0-.57-.2,1.09,1.09,0,0,0-.46.08V42a3,3,0,0,1,.55,0,1.19,1.19,0,0,1,1.07.52,1.32,1.32,0,0,1,.15,1.21,2.15,2.15,0,0,1-.83,1.11,2.53,2.53,0,0,1-.94.44M19.16,45A.43.43,0,0,1,19,45a.22.22,0,0,0-.1.09.06.06,0,0,0,0,0h.25Zm0-2.93v.65H19a.43.43,0,0,1-.37-.25,1.83,1.83,0,0,0-.21-.2.62.62,0,0,0-.25,0,.94.94,0,0,0-.66.29,2.06,2.06,0,0,0-.6,1,1.23,1.23,0,0,0,0,1,.76.76,0,0,0,.68.39,1.85,1.85,0,0,0,.57-.1,3.78,3.78,0,0,0,.66-.38l-.07.26a2.49,2.49,0,0,1-.73.45,2.26,2.26,0,0,1-.74.13,1.16,1.16,0,0,1-.73-.23,1,1,0,0,1-.37-.65,1.79,1.79,0,0,1,.05-.83,2.15,2.15,0,0,1,.47-.84,2.24,2.24,0,0,1,.76-.58,2.49,2.49,0,0,1,1-.2,1.6,1.6,0,0,1,.63.1m1.64-1.73a.36.36,0,0,1,.17-.21.37.37,0,0,1,.26-.1.22.22,0,0,1,.22.12.26.26,0,0,1,.05.21.41.41,0,0,1-.19.23.36.36,0,0,1-.28.12.23.23,0,0,1-.21-.1.3.3,0,0,1,0-.27M19.16,42.7l.1-.07a.3.3,0,0,0,.13-.2.22.22,0,0,0-.08-.28s-.1-.07-.15-.1Zm0,2.45V45l.27,0a.38.38,0,0,0,.18-.08.52.52,0,0,0,.15-.27c0-.19.21-.74.46-1.65a1,1,0,0,0,.07-.33s0-.07-.07-.1a.8.8,0,0,0-.33-.14l.05-.11.3-.09a2.11,2.11,0,0,0,.35-.19c.11-.09.23-.19.33-.29h.13c0,.12-.05.22-.07.27a.6.6,0,0,1-.05.18l-.06.2-.32,1.14-.35,1.2c0,.1,0,.16,0,.2a.57.57,0,0,0,.27.13.83.83,0,0,1,.21.07v0a.17.17,0,0,1,0,.07l-.39,0a4.1,4.1,0,0,0-.43,0l-.63,0Zm3.35-1.49v.2a1.81,1.81,0,0,0-.5.39.66.66,0,0,0-.21.33.28.28,0,0,0,0,.27A.26.26,0,0,0,22,45a1.08,1.08,0,0,0,.34-.08l.13-.07v.13l-.13.09a2.44,2.44,0,0,1-.4.16,2.51,2.51,0,0,1-.5.07.3.3,0,0,1-.28-.14.32.32,0,0,1,0-.29,1.56,1.56,0,0,1,.51-.65,3,3,0,0,1,.83-.51m0-1.48v.25a1.25,1.25,0,0,0-.33.48,1.43,1.43,0,0,1-.15.22.7.7,0,0,1-.32.11.15.15,0,0,1-.13-.05s0,0,0-.06a4.21,4.21,0,0,1,.34-.47,2.73,2.73,0,0,1,.62-.48m0,2.75V44.8a3.09,3.09,0,0,0,.43-.3c.11-.33.2-.56.23-.69s0-.17.07-.29a3.14,3.14,0,0,0-.63.29l-.1,0v-.2a1.15,1.15,0,0,1,.25-.12,3.3,3.3,0,0,0,.54-.22,1.83,1.83,0,0,0,.1-.28,1.13,1.13,0,0,0,.05-.66.34.34,0,0,0-.35-.18,1,1,0,0,0-.58.21v-.23l.1,0a1.7,1.7,0,0,1,.63-.18,1.18,1.18,0,0,1,.48.07.34.34,0,0,1,.23.21.52.52,0,0,1,.05.33,4.4,4.4,0,0,1-.15.62l-.18.63-.13.44c0,.07,0,.12-.05.15s0,.13,0,.17a.28.28,0,0,0,0,.21.21.21,0,0,0,.17.09.39.39,0,0,0,.28-.15l.07-.07s.05,0,.1,0v.08l-.15.2a1.81,1.81,0,0,1-.35.3.78.78,0,0,1-.28,0c-.19,0-.32,0-.37-.17a.55.55,0,0,1,0-.36Zm3,1.64v.17a.7.7,0,0,1-.4.12.41.41,0,0,1-.3-.12c-.06-.08-.1-.15-.08-.22a.44.44,0,0,1,.1-.15.14.14,0,0,1,.1,0c.06,0,.11,0,.16.17s.12.17.2.17a.27.27,0,0,0,.22-.09m0-.81v.12l-.07,0a.29.29,0,0,0,.07-.08m0-3.33v.75a2.23,2.23,0,0,0-.12.34,1.3,1.3,0,0,0,.05,1l.07.12v.6a1.15,1.15,0,0,1-.45-.2,1.07,1.07,0,0,1-.36-.65,1.67,1.67,0,0,1,.05-.83,2.12,2.12,0,0,1,.46-.84l.3-.3m0,2.82a2.66,2.66,0,0,0,.28,0,2.36,2.36,0,0,0,.75-.13,2.6,2.6,0,0,0,.72-.45l.07-.26a3.45,3.45,0,0,1-.66.38,1.8,1.8,0,0,1-.57.1.77.77,0,0,1-.59-.27Zm0,1.49v-.17h0a.57.57,0,0,0,.17-.27.33.33,0,0,0,0-.26.35.35,0,0,0-.15-.15v-.12l.13-.1c.13-.13.32-.31.53-.56h.13l-.44.5a.5.5,0,0,1,.15.54.91.91,0,0,1-.34.5.39.39,0,0,1-.16.1m2.3-2v.38a.3.3,0,0,1,0-.29s0-.07,0-.09m0-2.55v.33a.19.19,0,0,1-.1.12.38.38,0,0,1-.23.08.45.45,0,0,1-.36-.25.82.82,0,0,0-.22-.2.59.59,0,0,0-.23,0,.87.87,0,0,0-.66.29,1.91,1.91,0,0,0-.5.68v-.75a1.67,1.67,0,0,1,.48-.28,2.33,2.33,0,0,1,1-.2,1.2,1.2,0,0,1,.78.2s0,0,0,0m0,.33v-.33a.24.24,0,0,1,0,.25.13.13,0,0,1,0,.08m1.31,1.15v.2a2,2,0,0,0-.5.39.85.85,0,0,0-.21.33.3.3,0,0,0,0,.27.25.25,0,0,0,.23.1,1,1,0,0,0,.32-.08l.13-.07v.13L29,45a2.13,2.13,0,0,1-.4.16,2.41,2.41,0,0,1-.5.07.32.32,0,0,1-.28-.14v-.38a2,2,0,0,1,.48-.56,3.13,3.13,0,0,1,.83-.51m0-1.48v.25a1.37,1.37,0,0,0-.33.48.72.72,0,0,1-.15.22.61.61,0,0,1-.31.11.19.19,0,0,1-.14-.05s0,0,0-.06a1.77,1.77,0,0,1,.34-.47,2.64,2.64,0,0,1,.6-.48m0-1.41v.28l0,0H29v0a.79.79,0,0,1,.13-.28m0,.28v-.28a1.21,1.21,0,0,1,.18-.23.69.69,0,0,1,.55-.23.64.64,0,0,1,.25,0,1.18,1.18,0,0,1,.3.2.77.77,0,0,0,.46.23.3.3,0,0,0,.23-.1.83.83,0,0,0,.25-.36h.12s0,0,0,0a1,1,0,0,1-.35.54.73.73,0,0,1-.51.2.55.55,0,0,1-.27-.06,1.37,1.37,0,0,1-.26-.18c-.12-.1-.22-.15-.27-.19a.45.45,0,0,0-.19-.05.42.42,0,0,0-.25.1,1,1,0,0,0-.22.33m0,3.88V44.8a3.09,3.09,0,0,0,.43-.3c.12-.33.2-.56.23-.69a2.49,2.49,0,0,0,.07-.29,3.14,3.14,0,0,0-.63.29l-.1,0v-.2a1.42,1.42,0,0,1,.25-.12,4.52,4.52,0,0,0,.56-.22A2.22,2.22,0,0,1,30,43a1.23,1.23,0,0,0,.05-.66.36.36,0,0,0-.35-.18.94.94,0,0,0-.57.21l0,0v-.25l.1,0a1.7,1.7,0,0,1,.63-.18,1.15,1.15,0,0,1,.48.07.34.34,0,0,1,.23.21.52.52,0,0,1,.05.33,4.4,4.4,0,0,1-.15.62l-.18.63-.13.44a.64.64,0,0,1,0,.15.71.71,0,0,1-.05.17c0,.1,0,.16,0,.21a.2.2,0,0,0,.16.09.43.43,0,0,0,.3-.15l0-.07s.05,0,.1,0a.06.06,0,0,1,0,.08s-.05.1-.15.2a1.56,1.56,0,0,1-.35.3.74.74,0,0,1-.28,0c-.18,0-.31,0-.36-.17a.61.61,0,0,1,0-.36Zm3.95-3v.2a.29.29,0,0,0-.1,0,1.55,1.55,0,0,0-.58.47,2.56,2.56,0,0,0-.47,1,1.42,1.42,0,0,0,0,1.09.78.78,0,0,0,.7.36,1.35,1.35,0,0,0,.43-.08v.18a2.18,2.18,0,0,1-.5,0,1.49,1.49,0,0,1-.85-.24,1.2,1.2,0,0,1-.39-.58,1.36,1.36,0,0,1,0-.87,2,2,0,0,1,.27-.56,2.8,2.8,0,0,1,.49-.55,2.48,2.48,0,0,1,.58-.36,3.59,3.59,0,0,1,.39-.12m0,3.23V45a.77.77,0,0,0,.19-.08,1.65,1.65,0,0,0,.58-.51,2.21,2.21,0,0,0,.4-.83,1.78,1.78,0,0,0,.07-.72.78.78,0,0,0-.22-.59.74.74,0,0,0-.56-.2,1.09,1.09,0,0,0-.46.08V42a2.89,2.89,0,0,1,.53,0,1.21,1.21,0,0,1,1.09.52,1.38,1.38,0,0,1,.15,1.21A2.21,2.21,0,0,1,34,44.77a2.78,2.78,0,0,1-.94.44m6-3.08v.2a1.24,1.24,0,0,0-.48.28,2,2,0,0,0-.62,1,1.17,1.17,0,0,0,.08,1,.84.84,0,0,0,.75.37l.27,0v.18a3.3,3.3,0,0,1-.82.13,1,1,0,0,1-.58-.19,1.06,1.06,0,0,1-.33-.57,1.54,1.54,0,0,1,0-.74,2.5,2.5,0,0,1,.29-.65,3.28,3.28,0,0,1,.43-.51,4.44,4.44,0,0,1,.42-.27,3.65,3.65,0,0,1,.41-.17l.14,0m2.42,1.49s0,0,0,0a1.54,1.54,0,0,0,0,.92.33.33,0,0,0,.05.12Zm0-3.76v.4c0,.06-.05.13-.07.2L41,42l-.45,1.7-.26.91c-.07.19-.09.29-.05.32s.13.08.31.08h.15l0,.09s0,0,0,0l-.26,0-.6.12a.79.79,0,0,1-.2,0l.1-.37a1.64,1.64,0,0,0-.23.07l-.38.13V45a1.43,1.43,0,0,0,.28-.07,1.06,1.06,0,0,0,.36-.15c0-.18.17-.53.32-1.07a3.24,3.24,0,0,0,.18-.88.49.49,0,0,0-.23-.35.77.77,0,0,0-.53-.17.92.92,0,0,0-.38.07v-.2l.34-.05a1.89,1.89,0,0,1,.83.15l.15.08,0-.11.11-.47.25-.86a.83.83,0,0,0,.05-.46c0-.07-.17-.13-.4-.2l-.08,0,0,0a.13.13,0,0,1,0-.08,4.91,4.91,0,0,0,1-.2Zm0,.4v-.4h.1c0,.13-.07.27-.1.4M43.14,42v.19a1.29,1.29,0,0,0-.51.3.94.94,0,0,0-.35.48h.18l.68,0v.18h-.59a2.36,2.36,0,0,0-.37,0,1.12,1.12,0,0,0-.08.17v0l0,0-.06.18a1.5,1.5,0,0,0,0,.6.74.74,0,0,0,.28.51.94.94,0,0,0,.64.2.65.65,0,0,0,.2,0v.3l-.26.1a2.49,2.49,0,0,1-.45,0,1.41,1.41,0,0,1-.51-.11.86.86,0,0,1-.43-.45V43.62a1.69,1.69,0,0,1,.16-.39,2.88,2.88,0,0,1,.4-.58,1.25,1.25,0,0,1,.38-.35,1.86,1.86,0,0,1,.48-.27c.07,0,.15-.05.23-.06m0,1.12v-.18l.53,0a.34.34,0,0,0,.2,0,.29.29,0,0,0,.12-.13.65.65,0,0,0,0-.28.35.35,0,0,0-.18-.23.75.75,0,0,0-.35-.09,1.07,1.07,0,0,0-.32,0V42a2.35,2.35,0,0,1,.4,0,.9.9,0,0,1,.55.14.75.75,0,0,1,.35.44,1,1,0,0,1,0,.52v0Zm0,2v-.3a.43.43,0,0,0,.17,0,2.46,2.46,0,0,0,.43-.2l.35-.23,0,.15v.06a2.64,2.64,0,0,1-.57.4,2.17,2.17,0,0,1-.35.15m6.78-5.05v.21h-.18a1.78,1.78,0,0,0-.63.08.13.13,0,0,1-.07.05,1,1,0,0,0-.06.19,1,1,0,0,0,0,.13c-.08.3-.14.55-.19.73l-.25.88A19.37,19.37,0,0,0,48,44.53a.57.57,0,0,0,.3.4,1.61,1.61,0,0,0,.58.1,3,3,0,0,0,.81-.13l.28-.1v.33l-.2,0a6.37,6.37,0,0,1-.94,0c-.3,0-.53,0-.71,0a.9.9,0,0,0-.24,0h0l-1.62,0v0s0,0,0,0l0-.05a1.45,1.45,0,0,1,.36-.08,1.28,1.28,0,0,0,.45-.13,4,4,0,0,0,.42-1.11l.18-.62.11-.36.07-.28L48,42l.35-1.27c0-.14.05-.24,0-.29a1,1,0,0,0-.43-.18.35.35,0,0,1-.18-.05.11.11,0,0,1,0-.11.32.32,0,0,1,.12,0h.28l.15,0a1.76,1.76,0,0,1,.31,0c.24,0,.48,0,.73,0l.32,0h.31m0,5.05V44.8a3.33,3.33,0,0,0,.5-.25A2.55,2.55,0,0,0,51,44a2.34,2.34,0,0,0,.42-.52,3.24,3.24,0,0,0,.35-.86,2.55,2.55,0,0,0,.08-1,1.32,1.32,0,0,0-.33-.71,1.65,1.65,0,0,0-.75-.48,3.75,3.75,0,0,0-.88-.15v-.21c.22,0,.37,0,.48,0a3.3,3.3,0,0,1,.87.1,2.42,2.42,0,0,1,.77.35,1.5,1.5,0,0,1,.43.51,1.94,1.94,0,0,1,.24.75,2.93,2.93,0,0,1-.12.93,3.17,3.17,0,0,1-.41.91,3.72,3.72,0,0,1-.7.78,2.47,2.47,0,0,1-.75.49,2.68,2.68,0,0,1-.81.25"/><path class="cls-1" d="M54.7,43.09h-.58a2.55,2.55,0,0,0-.39,0c0,.08-.06.13-.08.16v.09l0,.18a1.47,1.47,0,0,0,0,.6.74.74,0,0,0,.28.51,1,1,0,0,0,.65.2.71.71,0,0,0,.2,0v.3l-.27.1a2.49,2.49,0,0,1-.45,0,1.41,1.41,0,0,1-.51-.11.92.92,0,0,1-.48-.57,1.62,1.62,0,0,1,0-.92,4.13,4.13,0,0,1,.18-.44,4.34,4.34,0,0,1,.4-.58A1.69,1.69,0,0,1,54,42.3a2,2,0,0,1,.48-.27L54.7,42v.2a1.44,1.44,0,0,0-.87.78H54l.68,0Zm1.8,1.06a1.35,1.35,0,0,0,.09.48.61.61,0,0,0,.24.35.77.77,0,0,0,.42.13.9.9,0,0,0,.5-.19.71.71,0,0,0,.26-.34.53.53,0,0,0-.07-.46,1.08,1.08,0,0,0-.58-.41,1.23,1.23,0,0,1-.58-.42.76.76,0,0,1,0-.5,1.17,1.17,0,0,1,.28-.48,1.5,1.5,0,0,1,.48-.3,1.38,1.38,0,0,1,.5-.11,2.41,2.41,0,0,1,.5.05,1,1,0,0,1,.35.13c0,.13-.07.33-.12.6l0,.11h-.14a.79.79,0,0,0-.21-.51.61.61,0,0,0-.43-.18.77.77,0,0,0-.42.13.63.63,0,0,0-.24.38.39.39,0,0,0,0,.32,1.54,1.54,0,0,0,.47.31,2,2,0,0,1,.54.33.63.63,0,0,1,.19.37,1,1,0,0,1,0,.41,1,1,0,0,1-.32.5,1.39,1.39,0,0,1-.54.33,1.58,1.58,0,0,1-.52.1,2.09,2.09,0,0,1-.86-.18.12.12,0,0,1,0-.12.26.26,0,0,1,0-.11c0-.35.1-.57.11-.63s0-.05,0-.07a.42.42,0,0,1,.11,0M61,42v.2a1.33,1.33,0,0,0-.52.3,1.22,1.22,0,0,0-.34.48h.18l.68,0v.18H60.4a2.42,2.42,0,0,0-.38,0l-.09.16v.09l-.05.18a1.47,1.47,0,0,0,0,.6.74.74,0,0,0,.28.51,1,1,0,0,0,.65.2.68.68,0,0,0,.2,0v.3l-.27.1a2.44,2.44,0,0,1-.44,0,1.42,1.42,0,0,1-.52-.11.92.92,0,0,1-.48-.57,1.62,1.62,0,0,1,0-.92,2.91,2.91,0,0,1,.19-.44,4.21,4.21,0,0,1,.39-.58,1.54,1.54,0,0,1,.39-.34,1.71,1.71,0,0,1,.48-.27L61,42M54.7,44.83l.18,0,.43-.2.35-.23,0,.15s0,0,0,.06a2.51,2.51,0,0,1-.55.4c-.13.05-.25.12-.36.15ZM56,43.08H54.7v-.18l.53,0a.34.34,0,0,0,.2,0,.32.32,0,0,0,.11-.13.66.66,0,0,0,0-.28.32.32,0,0,0-.18-.23.66.66,0,0,0-.35-.09,1.12,1.12,0,0,0-.31,0V42c.13,0,.24,0,.39,0a1,1,0,0,1,.57.13.86.86,0,0,1,.33.45A1.17,1.17,0,0,1,56,43Zm5,2.05v-.3a.41.41,0,0,0,.16,0,3.35,3.35,0,0,0,.45-.2l.35-.23,0,.15,0,.06a2.84,2.84,0,0,1-.56.4,3.35,3.35,0,0,1-.35.15M62.19,45v.15h-.12v0s0,0,0-.08l.09,0m0-2.68v.75H61v-.18l.53,0a.34.34,0,0,0,.2,0c.06-.05.1-.08.11-.13a.66.66,0,0,0,0-.28.35.35,0,0,0-.18-.23.66.66,0,0,0-.35-.09,1.06,1.06,0,0,0-.31,0V42c.13,0,.25,0,.4,0a.83.83,0,0,1,.54.13.87.87,0,0,1,.27.27m0,.75h.08l0,0a1.17,1.17,0,0,0,0-.52,1,1,0,0,0-.08-.18Zm0,2.08V45l.16,0a.76.76,0,0,0,.32-.08s.08-.1.11-.22l0-.13a1.29,1.29,0,0,0,.05-.21l.34-1.2a.52.52,0,0,0,0-.31c0-.09-.17-.14-.35-.15l0-.15a1.8,1.8,0,0,0,.5-.2,2.28,2.28,0,0,0,.51-.48h.14c0,.11,0,.21-.07.26l-.07.27v.07l.13-.09a3.25,3.25,0,0,1,.56-.28,3,3,0,0,1,.48-.16,1.35,1.35,0,0,1,.29,0,.68.68,0,0,1,.49.18.54.54,0,0,1,.2.4,3.75,3.75,0,0,1-.2.93l-.16.6,0,.16c0,.09-.07.19-.1.3a1.66,1.66,0,0,0-.07.35s0,.07.07.1c.25,0,.38.08.41.13v0a.21.21,0,0,1,0,.09H64.29v-.09a.2.2,0,0,1,0-.05,1.22,1.22,0,0,1,.32-.06,1.32,1.32,0,0,0,.16,0,.45.45,0,0,0,.12-.06.82.82,0,0,0,.1-.17.56.56,0,0,0,0-.1c0-.13.11-.43.23-.91l.06-.2.1-.32c.09-.33.09-.56,0-.69a.58.58,0,0,0-.48-.2,1.51,1.51,0,0,0-.55.12,2.61,2.61,0,0,0-.6.34,2,2,0,0,1-.1.34l-.23.86a5.92,5.92,0,0,0-.2.83s0,.08,0,.08a.2.2,0,0,0,.1.07.64.64,0,0,1,.22,0l.15,0s.06,0,.08.07l0,.08H62.19m8.22-1.92a.87.87,0,0,0-.13.33,1.41,1.41,0,0,0,0,.86.94.94,0,0,0,.15.32Zm0-1.18v.17a.06.06,0,0,1,0,0,1.38,1.38,0,0,0-.45.08,1.77,1.77,0,0,0-.3.41,2.89,2.89,0,0,1-.3.45l-.33.5c0,.06-.1.15-.16.23l-1,1.39h-.13c0-.05,0-.11,0-.18l-.13-.65-.23-1.64a2.21,2.21,0,0,0-.12-.51,1.47,1.47,0,0,0-.44-.17s0-.06,0-.08v0l.75,0h.88l.13,0a0,0,0,0,1,0,0,.09.09,0,0,1,0,.09l-.15,0a5,5,0,0,0-.51.08.09.09,0,0,0,0,0,.12.12,0,0,0,0,.12.46.46,0,0,0,0,.1l.12.93c.07.44.12.79.18,1.09a3.36,3.36,0,0,0,.45-.6c.15-.2.36-.53.66-1,.08-.12.17-.29.27-.47a.29.29,0,0,0,0-.1s0-.06,0-.1l-.15-.1-.34,0a.07.07,0,0,1,0-.05v0a.08.08,0,0,0,0-.05h.61l.22,0Zm0,.17h0l.13,0a.13.13,0,0,0,0-.07,0,0,0,0,0,0-.05l-.16,0ZM72,42v.2l-.1,0a1.77,1.77,0,0,0-.6.47,2.71,2.71,0,0,0-.44,1,1.38,1.38,0,0,0,0,1.09.78.78,0,0,0,.7.36A1.31,1.31,0,0,0,72,45v.18a2.12,2.12,0,0,1-.5,0,1.37,1.37,0,0,1-.84-.25,1.23,1.23,0,0,1-.25-.26V43.24a1.34,1.34,0,0,1,.13-.23,2.57,2.57,0,0,1,.5-.55,2.29,2.29,0,0,1,.58-.36A2.11,2.11,0,0,1,72,42m1.77,3,0,0s0,0,0,0,0,.05,0,.07h.06Zm0-2.28v.93a2.14,2.14,0,0,1-.83,1.11,2.69,2.69,0,0,1-.94.44V45l.2-.08a1.86,1.86,0,0,0,.58-.52,2.41,2.41,0,0,0,.4-.82,2.28,2.28,0,0,0,.06-.72A.81.81,0,0,0,73,42.3a.75.75,0,0,0-.57-.2,1.12,1.12,0,0,0-.46.08V42a3.07,3.07,0,0,1,.53,0,1.2,1.2,0,0,1,1.09.52.76.76,0,0,1,.15.28m0,.93h0a1.47,1.47,0,0,0,0-.93Zm2.54-1.6,0,0v.08h0Zm0-2.12v0a1.37,1.37,0,0,0,0,.18c-.6,2.14-1,3.43-1.09,3.84a2.51,2.51,0,0,0-.12.38,5,5,0,0,0-.12.5s.12.08.27.1.25,0,.26.05,0,0,0,0a.15.15,0,0,1,0,.07H75l-.5,0-.68,0h0V45L74,45a1.56,1.56,0,0,0,.31-.06.22.22,0,0,0,.09-.13c0-.1.11-.37.25-.8l.24-.91.27-.93.26-.93.14-.46a.28.28,0,0,0,0-.2s-.06-.08-.15-.12a2,2,0,0,1-.24-.13v-.08a1.73,1.73,0,0,1,.27-.08l.63-.19Zm0,0v0h0Zm3.41,5a2.42,2.42,0,0,1-.36.06s-.08.05-.1.1a.06.06,0,0,0,0,0h.44Zm0-2.89v.2a1,1,0,0,0-.24.07,1.77,1.77,0,0,0-.3.41q-.11.18-.3.45l-.35.5c0,.06-.1.15-.15.23l-1,1.39h-.12a.67.67,0,0,0,0-.18l-.12-.65-.23-1.64c-.06-.31-.1-.48-.11-.51a1.8,1.8,0,0,0-.45-.17V42l.76,0H78l.13,0s0,0,0,0l-.05.09-.15,0a5.26,5.26,0,0,0-.52.08l0,0a.12.12,0,0,0,0,.12v.1l.13.93a9.26,9.26,0,0,0,.19,1.09,5.82,5.82,0,0,0,.44-.6c.15-.2.37-.53.67-1,.08-.12.16-.29.26-.47a.17.17,0,0,0,0-.1s0-.06,0-.1l-.17-.1-.33,0a.05.05,0,0,1,0-.05v0a.12.12,0,0,0,0-.05h.6a1.27,1.27,0,0,0,.23,0Zm0,.2h.2l.07,0,.13,0a.1.1,0,0,0,0-.07s0-.05,0-.05a1.92,1.92,0,0,0-.42,0ZM81.33,45h0c0,.05,0,.07,0,.09v0h.08Zm0-3.32V42s0,0,0,.1l-.07.2-.31,1.14-.35,1.2c0,.1,0,.16,0,.2a.72.72,0,0,0,.26.13,1.29,1.29,0,0,1,.22.06v0s0,0,0,.07l-.4,0-.42,0-.48,0V45l.07,0a.34.34,0,0,0,.18-.08.41.41,0,0,0,.15-.27c0-.2.22-.74.47-1.65a1.78,1.78,0,0,0,.08-.34.22.22,0,0,0-.08-.09.81.81,0,0,0-.32-.14l0-.11.3-.09A1.89,1.89,0,0,0,81,42a3.07,3.07,0,0,0,.35-.28Zm0-1.57v.56a.22.22,0,0,1-.15-.08.35.35,0,0,1,0-.27.35.35,0,0,1,.16-.21m0,.56v-.56a.39.39,0,0,1,.27-.1.21.21,0,0,1,.21.12.16.16,0,0,1,0,.21.39.39,0,0,1-.16.23.43.43,0,0,1-.3.12.1.1,0,0,1-.07,0m0,1.36a.2.2,0,0,0,0-.08c0-.05,0-.15.06-.27h-.08Zm0,3.12V45a.27.27,0,0,1,.15,0,1,1,0,0,0,.27-.06.55.55,0,0,0,.13-.17,9.77,9.77,0,0,0,.31-1,9,9,0,0,0,.25-1.08.47.47,0,0,0-.2-.1l-.16,0,0-.13a1.83,1.83,0,0,0,.42-.17c.11-.08.29-.22.53-.43h.09s0,0,0,0l-.13.44c0,.09,0,.19-.07.3A5.1,5.1,0,0,1,83.9,42a1.6,1.6,0,0,1,.53-.09.8.8,0,0,1,.51.13,1.14,1.14,0,0,1,.24.46,4,4,0,0,1,.76-.48,1.81,1.81,0,0,1,.61-.13.76.76,0,0,1,.65.28,1.06,1.06,0,0,1,0,.86l-.1.32-.1.36-.25.91a.34.34,0,0,0,0,.25A1.91,1.91,0,0,0,87,45l.13.06s0,0,0,.05a.93.93,0,0,0,0,.1H86.7a.72.72,0,0,0-.23,0l-.53,0h-.37s0,0,0,0,0-.05,0-.09a2.46,2.46,0,0,1,.3-.08.39.39,0,0,0,.26-.1,2.12,2.12,0,0,0,.22-.61c.22-.76.33-1.21.35-1.34a.56.56,0,0,0-.12-.47.64.64,0,0,0-.46-.16,1.28,1.28,0,0,0-.5.13,2.26,2.26,0,0,0-.53.36l0,.1-.17.6-.13.46c-.13.48-.22.75-.22.82a.24.24,0,0,0,0,.15.8.8,0,0,0,.3.08l.15,0a.11.11,0,0,1,0,.1.13.13,0,0,1-.06.07H83.34a.22.22,0,0,1,0-.09l0-.05a1.29,1.29,0,0,1,.35-.08,1.86,1.86,0,0,0,.26-.08s0,0,0-.05a1.22,1.22,0,0,0,.12-.32L84.3,44l.13-.52.08-.28a.85.85,0,0,0,0-.71.45.45,0,0,0-.43-.22,1.53,1.53,0,0,0-.59.14,2,2,0,0,0-.57.36,1.36,1.36,0,0,0-.06.2l-.35,1.33a1.4,1.4,0,0,0-.1.49.27.27,0,0,0,.18.09c.17,0,.27,0,.3.08s0,0,0,.06,0,0,0,.09l-.6,0H82l-.2,0H81.7ZM89.67,42v.2a1.14,1.14,0,0,0-.5.3,1,1,0,0,0-.35.48H89l.66,0v.18h-.58a2.3,2.3,0,0,0-.37,0,.44.44,0,0,0-.08.16l0,0v0l-.06.18a1.47,1.47,0,0,0,0,.6.74.74,0,0,0,.28.51,1,1,0,0,0,.65.2.59.59,0,0,0,.2,0v.3l-.27.1a2.15,2.15,0,0,1-.44,0,1.51,1.51,0,0,1-.52-.11.83.83,0,0,1-.46-.57,1.69,1.69,0,0,1,0-.92,2.27,2.27,0,0,1,.2-.44,2.64,2.64,0,0,1,.4-.58A1.47,1.47,0,0,1,89,42.3a2.07,2.07,0,0,1,.49-.27l.22-.07m0,3.17v-.3a.52.52,0,0,0,.18,0,3.4,3.4,0,0,0,.43-.2l.35-.23,0,.15s0,0,0,.06A2.64,2.64,0,0,1,90,45a2.75,2.75,0,0,1-.36.15M90.9,45v.15h-.14l0,0,0-.08.09,0m0-2.68v.75H89.67v-.18l.55,0a.35.35,0,0,0,.19,0c.07-.05.1-.08.1-.13a.34.34,0,0,0,0-.28.32.32,0,0,0-.16-.23.81.81,0,0,0-.37-.09,1.18,1.18,0,0,0-.31,0V42c.13,0,.26,0,.4,0a.9.9,0,0,1,.56.13.87.87,0,0,1,.27.27m0,.75H91l0,0a.92.92,0,0,0,0-.52c0-.06,0-.13-.08-.18Zm0,2.08V45L91,45a.9.9,0,0,0,.34-.08.65.65,0,0,0,.1-.22l0-.13.07-.21.33-1.2c0-.16,0-.26,0-.31s-.17-.14-.35-.15l0-.15a1.4,1.4,0,0,0,.5-.2,2.12,2.12,0,0,0,.52-.48h.13c0,.11,0,.21,0,.26l-.08.27,0,.07.13-.09a4.87,4.87,0,0,1,.56-.28,2.75,2.75,0,0,1,.49-.16,1.35,1.35,0,0,1,.28,0,.77.77,0,0,1,.51.18.55.55,0,0,1,.18.4,4.5,4.5,0,0,1-.18.93l-.18.6a1.08,1.08,0,0,0,0,.16,2.11,2.11,0,0,0-.1.3,2.49,2.49,0,0,0-.09.35.27.27,0,0,0,.09.1c.23,0,.38.08.39.13v0l0,.09H93v-.09L93,45a1.3,1.3,0,0,1,.32-.06,1.32,1.32,0,0,0,.16,0l.14-.06a.32.32,0,0,0,.08-.17s0-.05,0-.1.1-.43.23-.91l.05-.2.1-.32q.15-.49,0-.69a.58.58,0,0,0-.49-.2,1.51,1.51,0,0,0-.55.12,3,3,0,0,0-.58.34,2.37,2.37,0,0,0-.1.34l-.23.86c-.13.44-.2.73-.22.83v.08a.19.19,0,0,0,.12.07.54.54,0,0,1,.2,0l.15,0a.08.08,0,0,1,.08.07l0,.08H90.9m6.92-1.64a.11.11,0,0,0,0,0,1.41,1.41,0,0,0,0,.86s0,0,0,.07Zm0-1.41v.29h-.07l-.61,0h-.3l-.08,0a1,1,0,0,0-.1.21l-.15.6-.3,1a1.13,1.13,0,0,0,0,.54c0,.1.13.13.28.13l.4,0a1.14,1.14,0,0,0,.26-.14h0s.05,0,.05,0a0,0,0,0,1,0,.05v0a1.25,1.25,0,0,1-.47.27,1.69,1.69,0,0,1-.59.1.51.51,0,0,1-.4-.14.33.33,0,0,1-.13-.26,3.89,3.89,0,0,1,.14-.71l.27-.88.12-.43,0-.15.07-.22h-.49a.11.11,0,0,1,0-.05.13.13,0,0,1,0-.07,1.17,1.17,0,0,1,.2-.1,1.2,1.2,0,0,0,.3-.17c.09-.08.19-.16.29-.26a2.33,2.33,0,0,0,.22-.3l.16-.23.12,0-.1.36-.13.48.08,0,.4,0a2.3,2.3,0,0,1,.36,0Zm0,.27a.55.55,0,0,0,.05-.13s0-.09,0-.14h-.09Zm1.71-.4v.2l-.1,0a1.77,1.77,0,0,0-.6.47,2.71,2.71,0,0,0-.44,1,1.38,1.38,0,0,0,0,1.09.78.78,0,0,0,.7.36,1.31,1.31,0,0,0,.43-.08v.18a2.12,2.12,0,0,1-.5,0,1.37,1.37,0,0,1-.84-.25,1,1,0,0,1-.37-.51v-1a2.39,2.39,0,0,1,.25-.51,2.57,2.57,0,0,1,.5-.55,2.29,2.29,0,0,1,.58-.36,2.4,2.4,0,0,1,.38-.12m0,3.23V45l.2-.08a1.76,1.76,0,0,0,.58-.52,2.41,2.41,0,0,0,.4-.82,2.28,2.28,0,0,0,.06-.72.81.81,0,0,0-.21-.59.75.75,0,0,0-.57-.2,1.15,1.15,0,0,0-.46.08V42a3.07,3.07,0,0,1,.53,0,1.2,1.2,0,0,1,1.09.52,1.32,1.32,0,0,1,.15,1.21,2.17,2.17,0,0,1-.82,1.11,2.82,2.82,0,0,1-1,.44"/><path class="cls-1" d="M105.53,45.13a3.3,3.3,0,0,1-.81.13.89.89,0,0,1-.91-.76,1.54,1.54,0,0,1,0-.74,2.92,2.92,0,0,1,.3-.65,2.46,2.46,0,0,1,.43-.51c.12-.09.25-.17.41-.27l.4-.17.15,0v.2a1.31,1.31,0,0,0-.48.28,2,2,0,0,0-.61,1,1.13,1.13,0,0,0,.08,1,.84.84,0,0,0,.75.37l.26,0ZM108,43.51s0,.05,0,.06a1.36,1.36,0,0,0,0,.87.26.26,0,0,0,0,.08Zm-1.09-1.2,0-.11.12-.47.24-.86c.07-.25.09-.4,0-.46s-.16-.13-.39-.2l-.09,0,0,0s0,0,0-.08a4.76,4.76,0,0,0,1-.2H108v.37a1.19,1.19,0,0,1-.07.23L107.45,42l-.44,1.7-.29.91c0,.19-.06.29,0,.32s.13.08.32.08h.14v.09s0,0,0,0l-.27,0-.6.12a.79.79,0,0,1-.2,0l.1-.37a2.19,2.19,0,0,0-.23.07,3.43,3.43,0,0,1-.38.13V45a1.43,1.43,0,0,0,.28-.07,1.38,1.38,0,0,0,.37-.15c0-.18.16-.53.31-1.07a4.4,4.4,0,0,0,.18-.88.46.46,0,0,0-.23-.35.75.75,0,0,0-.53-.17,1,1,0,0,0-.38.07v-.2l.35-.05a1.89,1.89,0,0,1,.83.15.74.74,0,0,0,.15.08m2.8-.33v.2a.29.29,0,0,0-.1,0,1.55,1.55,0,0,0-.58.47,2.56,2.56,0,0,0-.47,1,1.42,1.42,0,0,0,0,1.09.79.79,0,0,0,.71.36,1.25,1.25,0,0,0,.42-.08v.18a2,2,0,0,1-.5,0,1.56,1.56,0,0,1-.85-.24,1.1,1.1,0,0,1-.36-.5v-1a2.11,2.11,0,0,1,.25-.5,2.57,2.57,0,0,1,.5-.55,2.48,2.48,0,0,1,.58-.36l.38-.12M108,39.86H108a3.11,3.11,0,0,1-.08.37Zm1.71,5.35V45a1,1,0,0,0,.2-.08,2,2,0,0,0,.59-.51,2.52,2.52,0,0,0,.38-.83,2.18,2.18,0,0,0,.09-.72.86.86,0,0,0-.23-.59.75.75,0,0,0-.57-.2,1.15,1.15,0,0,0-.46.08V42a3.19,3.19,0,0,1,.54,0,1.2,1.2,0,0,1,1.08.52,1.38,1.38,0,0,1,.15,1.21,2.1,2.1,0,0,1-.83,1.11,2.46,2.46,0,0,1-.94.44m8.45-.21L118,45s-.09,0-.1.09a.1.1,0,0,0,0,0h.17Zm0-1.08v.32c-.15.31-.26.58-.35.79a.88.88,0,0,1-.05.15l-1.46,0c-1.26,0-2,0-2.25,0a1,1,0,0,1-.23,0h-.42a.67.67,0,0,1,.07-.11A3.52,3.52,0,0,1,114,45c.14,0,.24,0,.28-.09a1,1,0,0,0,.15-.38l.32-1,.2-.7.26-.91.07-.25c.15-.55.25-.89.28-1v-.11l-.15-.07-.59-.11a.13.13,0,0,0,0-.05.13.13,0,0,1,0-.07h.23l.59,0h.83l.32,0,.45,0-.07.14a2.61,2.61,0,0,1-.43,0,1.73,1.73,0,0,0-.43,0,.58.58,0,0,0-.17.32,1.68,1.68,0,0,0-.08.26l-.07.23-.2.73-.06.25-.37,1.29-.31,1.11-.07.25c0,.07,0,.12,0,.14h.83l.7,0a1.18,1.18,0,0,0,.39-.05,2.12,2.12,0,0,0,.45-.27,1.32,1.32,0,0,0,.33-.28.91.91,0,0,1,.1-.1,2.06,2.06,0,0,0,.25-.33m1.72-3.6a.47.47,0,0,1,.17-.21.39.39,0,0,1,.27-.1.22.22,0,0,1,.21.12.17.17,0,0,1,0,.21.41.41,0,0,1-.17.23.39.39,0,0,1-.29.12.26.26,0,0,1-.22-.1.39.39,0,0,1,0-.27m-1.72,3.92.07-.12.13-.28h-.13a.27.27,0,0,1-.07.08Zm0,.91V45l.35-.07a.34.34,0,0,0,.18-.08.41.41,0,0,0,.15-.27c0-.19.22-.74.46-1.65a2.16,2.16,0,0,0,.09-.33.21.21,0,0,0-.09-.1.75.75,0,0,0-.31-.14l0-.11.3-.09a1.77,1.77,0,0,0,.35-.19c.13-.09.23-.19.35-.29h.11c0,.12,0,.22-.06.27a1.37,1.37,0,0,1,0,.18l-.07.2-.31,1.14-.35,1.2c0,.1,0,.16,0,.2s.11.08.26.13a1.15,1.15,0,0,1,.22.07v0s0,0,0,.07l-.4,0-.42,0-.64,0Zm4.74-1.63s0,0,0,0a1.52,1.52,0,0,0,0,.87s0,.05,0,.06Zm0-1.41v.27l0,0h-.06l-.62,0h-.29l-.07,0a.51.51,0,0,0-.1.21l-.15.6-.3,1c-.08.28-.1.46,0,.54a.26.26,0,0,0,.27.14l.4,0a1.39,1.39,0,0,0,.26-.14h0a.06.06,0,0,1,0,0v.05l0,0a1,1,0,0,1-.46.27,1.63,1.63,0,0,1-.6.1.52.52,0,0,1-.38-.14.3.3,0,0,1-.15-.26,3.4,3.4,0,0,1,.15-.71l.27-.88.11-.43,0-.15a2.25,2.25,0,0,0,0-.22h-.48a0,0,0,0,1,0-.05s0,0,0-.07.09,0,.2-.1a1.2,1.2,0,0,0,.28-.16,1.59,1.59,0,0,0,.3-.27,2.15,2.15,0,0,0,.23-.3l.15-.23.12,0-.08.36-.15.48.1,0c.06,0,.19,0,.39,0a2.11,2.11,0,0,1,.35,0Zm0,.27.07-.13s0-.09,0-.14h-.08Zm1.72-.4v.2l-.11,0a1.55,1.55,0,0,0-.58.47,2.89,2.89,0,0,0-.47,1,1.42,1.42,0,0,0,0,1.09.79.79,0,0,0,.71.36,1.31,1.31,0,0,0,.43-.08v.18a2.1,2.1,0,0,1-.51,0,1.5,1.5,0,0,1-.84-.24,1.06,1.06,0,0,1-.37-.52v-1a2,2,0,0,1,.25-.51,2.57,2.57,0,0,1,.5-.55,2.48,2.48,0,0,1,.58-.36c.13-.05.25-.08.39-.12m1.81,3.1s0,0,0,0v0h0Zm0-2.17v.53c0,.07,0,.13,0,.22a2.2,2.2,0,0,1-.85,1.11,2.49,2.49,0,0,1-.93.44V45a1.32,1.32,0,0,0,.19-.08,2,2,0,0,0,.59-.51,2.52,2.52,0,0,0,.38-.83,2.18,2.18,0,0,0,.09-.72.86.86,0,0,0-.23-.59.75.75,0,0,0-.57-.2,1.07,1.07,0,0,0-.45.08V42a3,3,0,0,1,.54,0,1.19,1.19,0,0,1,1.07.52,1.06,1.06,0,0,1,.2.46m0,.53a1.57,1.57,0,0,0,0-.53Zm3.12,1.08a.77.77,0,0,0-.17.3.4.4,0,0,0,0,.29.26.26,0,0,0,.14.1Zm0-2.59v.63a.39.39,0,0,1-.23.07.7.7,0,0,1-.24-.07.56.56,0,0,0-.21-.06.34.34,0,0,0-.17,0,2,2,0,0,0-.36.36,1,1,0,0,0-.23.37l-.17.64-.2.78a.41.41,0,0,0,0,.17.1.1,0,0,0,0,.07l.5,0h.07a.39.39,0,0,1,.23.05s0,0,0,0,0,0,0,.07h-2.11v-.08s0,0,.05,0l.23-.05.35,0a.13.13,0,0,0,.07-.06,1.4,1.4,0,0,0,.11-.3c.25-.9.38-1.39.42-1.54s0-.22,0-.25-.12-.07-.27-.1a.35.35,0,0,1-.18,0l0-.12a3.77,3.77,0,0,0,.65-.28,2.86,2.86,0,0,0,.46-.46h.14c0,.13-.1.41-.24.86v.07a.29.29,0,0,0,0,.08,3.52,3.52,0,0,1,.52-.5l.11-.1.13-.08a1.11,1.11,0,0,1,.47-.17Zm0,.63v-.63a.61.61,0,0,1,.15.12.43.43,0,0,1-.12.48s0,0,0,0m1.17,1.1v.2a1.92,1.92,0,0,0-.49.39,1.17,1.17,0,0,0-.24.33.38.38,0,0,0,0,.27.26.26,0,0,0,.23.1,1,1,0,0,0,.33-.08l.13-.07v.13l-.14.09a1.55,1.55,0,0,1-.4.16,2.21,2.21,0,0,1-.48.07.42.42,0,0,1-.15,0v-.69a1.65,1.65,0,0,1,.35-.35,3.07,3.07,0,0,1,.82-.51m0-1.48v.25a1.37,1.37,0,0,0-.33.48,1,1,0,0,1-.16.22.68.68,0,0,1-.3.11.15.15,0,0,1-.13-.05.06.06,0,0,1,0-.06,2.28,2.28,0,0,1,.35-.47,2.48,2.48,0,0,1,.61-.48m1.55,2.89h0v0Zm0-.45v.1a.8.8,0,0,1-.14.18,1.53,1.53,0,0,1-.34.3.84.84,0,0,1-.29,0,.4.4,0,0,1-.38-.17.8.8,0,0,1,0-.36l-.39.21V44.8a2.65,2.65,0,0,0,.44-.3c.11-.33.18-.56.23-.69s0-.17.06-.29a3.2,3.2,0,0,0-.64.29s0,0-.09,0v-.2l.25-.12a3.59,3.59,0,0,0,.55-.22c0-.08.07-.18.1-.28a1.23,1.23,0,0,0,.05-.66.36.36,0,0,0-.37-.18,1,1,0,0,0-.56.21l0,0v-.25l.1,0a1.76,1.76,0,0,1,.62-.18,1.18,1.18,0,0,1,.49.07.4.4,0,0,1,.24.21.59.59,0,0,1,0,.33,4.4,4.4,0,0,1-.15.62l-.2.63-.12.44a.37.37,0,0,1,0,.15.43.43,0,0,1-.05.17.33.33,0,0,0,0,.21.17.17,0,0,0,.15.09.43.43,0,0,0,.3-.15l.06-.07s.05,0,.09,0m0,.1s0,0,0,0v-.08h0Zm0,.43v-.08l0,0,.31-.06a3.09,3.09,0,0,0,.32-.07.6.6,0,0,0,.08-.13c0-.1.12-.37.23-.8l.25-.91.28-.93.25-.93.15-.46a.55.55,0,0,0,0-.2.34.34,0,0,0-.17-.12l-.25-.13,0-.08.27-.08.64-.19h.18a2.2,2.2,0,0,1-.06.22c-.6,2.14-1,3.43-1.1,3.84-.06.24-.11.37-.11.39a1.52,1.52,0,0,0-.1.49s.1.09.25.1L134,45a.06.06,0,0,1,0,0s0,.05,0,.07h-.48l-.51,0-.66,0h-.1m7.06-4v.26a4.75,4.75,0,0,0-.37.57l-.2.31a1.59,1.59,0,0,0-.11.2l-.09.13,0,0c.22,0,.46,0,.75,0v.18h-.88l-.12.17-.64,1.08c-.27.41-.4.64-.42.68v.11a.8.8,0,0,0,.22,0L138,45a.09.09,0,0,1,0,0l0,.07h-.28c-.2,0-.45,0-.71,0h-.57l-.2,0-.23,0v0s0,0,0-.07l.12,0h.18a.8.8,0,0,0,.68-.32,10.21,10.21,0,0,0,.78-1.14c.15-.23.23-.36.27-.41l.33-.5.66-1c.05-.08.13-.21.27-.41m0,1.69V42.7h.2a4.36,4.36,0,0,0,.54,0V42.4c-.05-.47-.06-.72-.08-.77l-.1-.89,0-.08s-.11.16-.28.41a3.24,3.24,0,0,0-.26.38v-.26c.11-.19.26-.42.46-.72.1-.13.22-.33.37-.58h.24a4,4,0,0,1,.1.72c0,.13,0,.33.07.61l.13,1.61.09.88a7.34,7.34,0,0,0,.06.91.53.53,0,0,0,.08.23l.14,0,.16,0a1.08,1.08,0,0,1,.23.1v.07s0,0,0,0h-.88l-.39,0-.49,0-.08,0h-.18l-.07,0a.47.47,0,0,0,.05-.1l.1,0,.42,0a1.2,1.2,0,0,0,.26-.05.3.3,0,0,1,0-.1,1,1,0,0,0,0-.36,2.68,2.68,0,0,1,0-.39c0-.11,0-.49-.09-1.16l-.29,0Zm4.75.74s0,0,0,0a1.63,1.63,0,0,0,0,.92l.05.12Zm0-3.68v.35c-.58,2.07-.92,3.3-1.06,3.71a2.58,2.58,0,0,0-.11.39,1.25,1.25,0,0,0-.1.49s.1.09.25.1l.28.05a.11.11,0,0,1,0,0,.18.18,0,0,1-.05.07h-.46l-.51,0-.67,0h-.1a.16.16,0,0,1,0-.07l0,0,.3-.06a2.18,2.18,0,0,0,.31-.07.36.36,0,0,0,.1-.13c0-.1.12-.37.23-.8l.25-.91.28-.93.25-.93.15-.46a.32.32,0,0,0,0-.2s-.07-.08-.15-.12l-.25-.13,0-.08.26-.08.65-.19Zm0,.35v-.35h.1a2.2,2.2,0,0,1-.06.22ZM145.69,42v.19a1.23,1.23,0,0,0-.51.3,1.16,1.16,0,0,0-.35.48H145l.68,0v.18h-.58a2.48,2.48,0,0,0-.38,0c0,.08-.07.13-.08.17v0l0,0,0,.18a1.47,1.47,0,0,0,0,.6.79.79,0,0,0,.29.51.93.93,0,0,0,.64.2.68.68,0,0,0,.2,0v.3l-.26.1a2.49,2.49,0,0,1-.45,0,1.46,1.46,0,0,1-.52-.11.94.94,0,0,1-.43-.45V43.62a3.87,3.87,0,0,1,.17-.39,2.88,2.88,0,0,1,.4-.58,1.38,1.38,0,0,1,.38-.35,2.25,2.25,0,0,1,.48-.27c.08,0,.15-.05.23-.06m0,3.16v-.3a.48.48,0,0,0,.18,0,3.4,3.4,0,0,0,.43-.2l.35-.23,0,.15s0,0,0,.06a2.7,2.7,0,0,1-.54.4c-.14.05-.25.12-.37.15M146.9,45v.14h-.12v0s0,0,0-.08h.08m0-2.69v.75h-1.21v-.18l.53,0a.32.32,0,0,0,.2,0,.29.29,0,0,0,.12-.13,1.3,1.3,0,0,0,0-.28.33.33,0,0,0-.19-.23.65.65,0,0,0-.34-.09,1.19,1.19,0,0,0-.32,0V42a2.71,2.71,0,0,1,.4,0,.89.89,0,0,1,.56.14.69.69,0,0,1,.25.26m0,.75H147l0,0a1.17,1.17,0,0,0,0-.52.58.58,0,0,0-.08-.18Zm0,2.08V45l.17,0a.62.62,0,0,0,.31-.08c.05,0,.08-.1.12-.22l.05-.13c0-.06,0-.13,0-.21l.33-1.2a.52.52,0,0,0,0-.31c-.05-.09-.16-.13-.35-.15l0-.15a1.42,1.42,0,0,0,.49-.2,2.32,2.32,0,0,0,.52-.48h.13a2.06,2.06,0,0,1-.07.26l-.06.27,0,.07.13-.09a3.75,3.75,0,0,1,.57-.28,2.68,2.68,0,0,1,.48-.16,1.18,1.18,0,0,1,.28,0,.71.71,0,0,1,.51.19.52.52,0,0,1,.19.39,4.3,4.3,0,0,1-.2.93l-.17.6-.05.16c0,.09,0,.19-.08.3a2,2,0,0,0-.08.35.14.14,0,0,0,.08.1.7.7,0,0,1,.4.13l0,0-.05.08H149v-.08s0,0,.05,0a1.1,1.1,0,0,1,.31-.07l.17,0,.11-.06a.53.53,0,0,0,.1-.17.56.56,0,0,0,0-.1c0-.13.11-.43.25-.91l0-.2.1-.31a.8.8,0,0,0,0-.7.58.58,0,0,0-.48-.2,1.56,1.56,0,0,0-.55.12,3.29,3.29,0,0,0-.59.34c0,.14-.07.24-.09.34l-.23.86c-.13.45-.2.73-.22.83s0,.08,0,.08a.19.19,0,0,0,.12.07.45.45,0,0,1,.2,0,.37.37,0,0,1,.15.05s.08,0,.08.06l0,.08H146.9m6.93-1.54a.06.06,0,0,0,0,0,1.62,1.62,0,0,0,0,.92.73.73,0,0,0,.05.12Zm0-1.51v.29h-.07l-.61,0h-.32l-.06,0a2.09,2.09,0,0,0-.1.21l-.15.6-.3,1c-.08.28-.1.46-.05.54a.26.26,0,0,0,.27.14l.41,0,.27-.14h0a.06.06,0,0,1,0,0s0,0,0,.05v0a1.31,1.31,0,0,1-.46.27,1.83,1.83,0,0,1-.62.1.51.51,0,0,1-.38-.14.28.28,0,0,1-.13-.26,3.4,3.4,0,0,1,.15-.71l.26-.88.1-.43,0-.15c0-.08,0-.15.05-.22h-.48s0,0,0-.05,0,0,0-.07.08,0,.2-.1a1.45,1.45,0,0,0,.28-.16,2.85,2.85,0,0,0,.32-.27l.21-.3.15-.23.13,0-.1.36-.13.48a.15.15,0,0,0,.08,0l.4,0a2.18,2.18,0,0,1,.35,0Zm0,.29a1.13,1.13,0,0,1,.07-.15s0-.09,0-.14h-.08Zm1.66-.43v.19a1.44,1.44,0,0,0-.87.78h.19l.68,0v.18h-.58a2.36,2.36,0,0,0-.38,0,1.52,1.52,0,0,0-.09.17v.08l-.05.18a1.47,1.47,0,0,0,0,.6.74.74,0,0,0,.28.51,1,1,0,0,0,.65.2.71.71,0,0,0,.2,0v.3l-.27.1a2.49,2.49,0,0,1-.45,0,1.41,1.41,0,0,1-.51-.11.86.86,0,0,1-.43-.45V43.62a1.69,1.69,0,0,1,.16-.39,3.35,3.35,0,0,1,.4-.58,1.53,1.53,0,0,1,.38-.35,2,2,0,0,1,.48-.27c.09,0,.15-.05.24-.06m0,1.12v-.18l.53,0a.34.34,0,0,0,.2,0c.06-.05.1-.08.11-.13a.65.65,0,0,0,0-.28.3.3,0,0,0-.18-.23.66.66,0,0,0-.35-.09,1.12,1.12,0,0,0-.31,0V42a2.45,2.45,0,0,1,.39,0,.94.94,0,0,1,.57.14.8.8,0,0,1,.33.44,1.17,1.17,0,0,1,0,.52l0,0Zm0,2v-.3a.62.62,0,0,0,.18,0l.43-.2.35-.23,0,.15s0,0,0,.06a2.51,2.51,0,0,1-.55.4c-.13.05-.25.12-.36.15"/><path class="cls-1" d="M156,47.19l.4-.37a2.29,2.29,0,0,0,.48-.81c.1-.3.2-.56.27-.8,0-.06,0-.15.06-.28l.17-.59c.21-.78.36-1.28.4-1.5a.46.46,0,0,0,0-.26s-.13-.07-.31-.08l-.08,0,0-.15a1.74,1.74,0,0,0,.87-.43l.15-.13h.09l-.4,1.43c-.27,1-.4,1.54-.43,1.62a6.27,6.27,0,0,1-.38,1.1,2.92,2.92,0,0,1-.48.68,3.67,3.67,0,0,1-.57.48l-.2.15-.06,0a.12.12,0,0,1,0-.08m4-3.53v.19a2.25,2.25,0,0,0-.5.4,1.17,1.17,0,0,0-.23.33.38.38,0,0,0,0,.27.25.25,0,0,0,.23.1,1,1,0,0,0,.33-.08l.13-.07v.13l-.13.08a1.51,1.51,0,0,1-.42.17,2,2,0,0,1-.48.07.3.3,0,0,1-.28-.14.36.36,0,0,1,0-.29,1.56,1.56,0,0,1,.51-.65,3.13,3.13,0,0,1,.83-.51m0-1.48v.25a1.37,1.37,0,0,0-.33.48.66.66,0,0,1-.17.21.56.56,0,0,1-.29.12.24.24,0,0,1-.14-.05.07.07,0,0,1,0-.07,2.22,2.22,0,0,1,.35-.46,2.48,2.48,0,0,1,.61-.48m-1.79-1.77a.44.44,0,0,1,.17-.25.42.42,0,0,1,.28-.1.25.25,0,0,1,.21.1.27.27,0,0,1,0,.25.46.46,0,0,1-.18.28.36.36,0,0,1-.25.08.26.26,0,0,1-.23-.1.32.32,0,0,1,0-.26M161.74,45,162,45a.75.75,0,0,0,.31-.08.34.34,0,0,0,.12-.22l0-.13a2.09,2.09,0,0,1,.05-.21l.33-1.2c0-.16.07-.26,0-.31s-.16-.14-.35-.15l0-.15a1.42,1.42,0,0,0,.49-.2,2.32,2.32,0,0,0,.52-.48h.13c0,.11-.05.21-.07.26l-.06.27,0,.07.13-.09a4.27,4.27,0,0,1,.57-.28,2.68,2.68,0,0,1,.48-.16,1.18,1.18,0,0,1,.28,0,.75.75,0,0,1,.51.18.56.56,0,0,1,.19.4,4.3,4.3,0,0,1-.2.93l-.17.6a.67.67,0,0,1-.05.16,2.26,2.26,0,0,1-.08.3,2,2,0,0,0-.08.35.14.14,0,0,0,.08.1.7.7,0,0,1,.4.13v0l-.07.09h-1.61v-.09L164,45a1.13,1.13,0,0,1,.31-.06l.17,0,.13-.06a.42.42,0,0,0,.08-.17.56.56,0,0,0,0-.1c0-.13.12-.43.25-.91l.05-.2.1-.32q.15-.49,0-.69a.63.63,0,0,0-.5-.2,1.56,1.56,0,0,0-.55.12,2.5,2.5,0,0,0-.58.34,2.37,2.37,0,0,0-.1.34l-.23.86a6.69,6.69,0,0,0-.21.83s0,.08,0,.08,0,0,.11.07a.58.58,0,0,1,.2,0l.15,0a.08.08,0,0,1,.08.07l0,.08h-1.72v0a.1.1,0,0,1,0-.08m-1.68-.1V44.8a3.09,3.09,0,0,0,.43-.3c.12-.33.18-.56.23-.7s0-.16.07-.28a4.24,4.24,0,0,0-.65.28l-.08.05v-.19a1.42,1.42,0,0,1,.25-.12,3.59,3.59,0,0,0,.55-.22c0-.08.06-.18.1-.28a1.23,1.23,0,0,0,0-.66.37.37,0,0,0-.37-.18,1,1,0,0,0-.56.21l0,0v-.25l.1,0a1.53,1.53,0,0,1,.61-.18,1.24,1.24,0,0,1,.5.06.41.41,0,0,1,.23.22.52.52,0,0,1,.05.33,4.1,4.1,0,0,1-.15.61l-.2.63-.11.45a.64.64,0,0,1-.05.15.91.91,0,0,1,0,.17c0,.1,0,.16,0,.21a.17.17,0,0,0,.15.09.43.43,0,0,0,.29-.15l.07-.07s0,0,.1,0v.08l-.15.2a1.56,1.56,0,0,1-.35.3.74.74,0,0,1-.28,0,.4.4,0,0,1-.38-.17.94.94,0,0,1,0-.36Zm8.06-3v.2l-.12,0a1.55,1.55,0,0,0-.58.47,2.42,2.42,0,0,0-.46,1,1.38,1.38,0,0,0,0,1.09.8.8,0,0,0,.72.36,1.41,1.41,0,0,0,.43-.08v.18a2.19,2.19,0,0,1-.52,0,1.46,1.46,0,0,1-.84-.25,1.13,1.13,0,0,1-.4-.58,1.49,1.49,0,0,1,0-.86,2.27,2.27,0,0,1,.26-.56,2.57,2.57,0,0,1,.5-.55,2.7,2.7,0,0,1,.58-.36,2.34,2.34,0,0,1,.4-.12m0,3.23V45l.18-.08a2,2,0,0,0,.6-.52,2.82,2.82,0,0,0,.38-.82,2.55,2.55,0,0,0,.08-.72.82.82,0,0,0-.23-.59.75.75,0,0,0-.57-.2,1,1,0,0,0-.44.08V42a2.81,2.81,0,0,1,.53,0,1.19,1.19,0,0,1,1.07.52,1.32,1.32,0,0,1,.15,1.21,2.08,2.08,0,0,1-.83,1.11,2.52,2.52,0,0,1-.92.44"/><path class="cls-2" d="M16.64,30.18c2.82,0,5.11-1.62,5.11-3.65s-2.29-3.63-5.11-3.63-5.12,1.63-5.12,3.63,2.3,3.65,5.12,3.65"/><path class="cls-3" d="M0,30.84V36l6.66,0A27.61,27.61,0,0,1,13,30.88Z"/><path class="cls-4" d="M8.6,36H70.24l-.08-1.19c-.18-.33-.83-.51-.83-.63,0-1.13-.84-.79-1.27-1.9-.55-.93-1.66-1.55-2.31-1.21s-1-.45-1.67-.32-2.26.95-2.75.12A1.29,1.29,0,0,0,60,30.05L58.11,30c-.1-.23-.51-.93-1.24-.63-.55.2-.86,0-1-.5a1.6,1.6,0,0,0-1.48-.64l-1.17.1-2.46-.57L43.89,28l-1.49.5-2.77.15a2.63,2.63,0,0,0-2.45.38l-11.94-.1a7.43,7.43,0,0,0-2.88,1.82c-1.09-.33-1.79-.41-2.35.28-3.14-.3-5,.08-6.1.9L11.6,33.15c-1.24-.14-1.22,1.26-1.82,1.67-.5.7-1.58.7-1.18,1.19"/><path class="cls-5" d="M28.29,29,34,29c-1.24-.25-2.32-.66-2.4-1.87-.4-2.67.51-3.85,2.34-4l-.48-1.05-1.06.58c-.67.37-1.16.25-.67-.31l.85-1-.2-.45A1,1,0,0,1,31,20.88l-.68,0-.06.77a.33.33,0,0,1-.66,0l0-.68a.8.8,0,0,1-.48-.68l-.91,0a2.18,2.18,0,0,1-2.49-1.13l-.5.1a2.35,2.35,0,0,1,.95,1.13l-1.31.35c-.66,0-.91-.17-1-1l-1,2c.23.19.47,0,.7-.23a4.5,4.5,0,0,0,2.4.93c4,.08,5.9,4.21,2.37,6.4"/><path class="cls-6" d="M22.82,21.89A7.44,7.44,0,0,1,17.77,21a2.4,2.4,0,0,1,0-3.47c.58-.63-.78-.73,1.39-2.63.13-.12.61.31.7-.73.18-2.11,3-1.63,3.53-2.36s2.53-.94,3.39-.64a1.37,1.37,0,0,1,1.86.68c.52-.2,1.26-.5,1.77-.17a2.59,2.59,0,0,1,2.67,0c1.54-.42,2,1,2.79.76s1.26.26,1.7,1.16c1.41-.17,2.46,1.09,1.8,2.07s.39.6.13,1.23,0,.74.49,1.22A7.07,7.07,0,0,1,41.4,21.5c.29,1.27-.36,2.07-1.77,2.45C37,27.21,34.72,25.46,35,23.37l-1.07-.25-.4-1c.68-.58.25-1-.91-.71L32.42,21l.27-.17-.2-.3c-1.45.45-1.25.17-1.48.4l-.68,0V20.2c0-1-1.13-.79-1.25.19l-1.06,0a3,3,0,0,0-.86-1.54c-.32-.41-.93-.2-1.43.27,0,0,0,.1,0,.11l-.48.1c-.58.12-1-.24-1.31.5Z"/><path class="cls-7" d="M25.41,21c-.37.07-.57.57-.08.6l1.77.18c1.26.12-.86-.92-1.69-.78"/><path class="cls-5" d="M41.92,17.1l.88,1.08a2.43,2.43,0,0,0,1.92,1.59c2.9.53,1.9,7.53.15,8.19l6.28-.15c-3.95-3.33-.85-8.54,4.69-6.91l1.09-4.68-1.16,1-1.52-.4c-.83,0-1.18-.16-.61-.84l-1.28-.13-.93.74-.35-.36.22-.68-1.11-.66-.75,3.18c-.2.84-1.59.56-1.37-.13l1.09-3.37-.53-.08c-.13,1.72-.7,2.83-1.57,3.33.69,1.46.26,2.4-.67,1.28a2.43,2.43,0,0,1-1.74-2.31Z"/><path class="cls-7" d="M51.15,19.18c-.3,1.19.36.77,1.06.41.9-.5,2-.73,2.7-1.49.28-.33.81-.65-.71-.53s-3,.56-3.05,1.61"/><path class="cls-7" d="M55.08,19l-.14.91c0,.32.87.24.88-.19l0-.67Z"/><path class="cls-6" d="M70.79,10.21c-.05.28-.51.11-.78-.08H69.5a.38.38,0,0,1-.73-.05l-.12-.62,2.27,0ZM66.3,18.6l-.42-.22c-.89.7-.86-.33-.92-.93q.08-1.29,1.17,0c.33.07.5.52.65.85s-.12.63-.48.3m-4.19,0c.46-1.19,1.21-.85,1.09.3,1,1.27-1.82,1.51-1.09-.3m-.63,1.11c-.12,0-.25-.17-.32-.42s0-.48.1-.51.27.17.31.42,0,.48-.09.51m-1.74.07c-.54.06-.6-.2-.47-.63.32-1.1,1.24,0,1.59.36-.11.61-.54.58-1.12.27m-1.48-3.29-.6,1.63c-.21.63-.94,1.21-.74-.2l.63-2.19c.91-3.16,5.5-.26,2-.13-.68-.13-1,.26-1.26.89m1.46-8.95L59.52,7c-.23-.7.22-.63.68-.63a1.56,1.56,0,0,1,.08,2,.49.49,0,0,1-.88-.06c-.1-.22.55-.57.32-.82M52.51,10.9a.79.79,0,0,1-.91.47l-1,.25-.91.74c-.38.58-.65.57-.78,0-.41-.38-.45-.7.33-.86.37-.25.55-.75,1.11-.73a1.9,1.9,0,0,1,1.88-.35c.51,0,.61.35.28.51m-11.42.73c-.23-.15-1.34-1-.27-.71.5.12,1,.3,1,.78-.05.66-.52.7-.68-.07M39,4.09a1.37,1.37,0,0,1-.36-1.32c0-1.3.63.53,1.06.43,1.46-.3.84,2-.7.89m-.83,0c-.11,0-.19-.1-.19-.24a.2.2,0,0,1,.19-.21.22.22,0,0,1,.22.21.23.23,0,0,1-.22.24m-1.26,6.19c-1.16,0-.87-1.85-.09-1.09l1.12.93c.43.36-.53.73-1,.16M35.65,2.88c-.38-.46.48-.63.4-1.16a.5.5,0,0,1,.8.48c-.2.7-.7,1.08-1.2.68M32.93,5h-.31c-.23.32-.7.43-.71,0l.05-1c0-.25.24-.3.59-.14l1,.7c.39.43.11.89-.62.4m39.68,7.7-.28-1.17c1.1-.35,1.36-1,.63-2L71.85,8.2c.66-1.62-.76-1.77-1.34-.76s-1.36.41-1-1.23c.71-.11.93-.41.66-.89a4.68,4.68,0,0,0-3-1.24L68.49,5.2c-2.37,2.56-1.35-1.27-3.09-1.79a6.59,6.59,0,0,0-3.1-.23c-.91.5-1.26.22-1.37-.43-.55-1.28-2-1.38-4.11-.66-.78.33-.83.18-1.18-.1-1.52-1.28-2.49-.25-3.7-.45C50.69.51,49.76.18,49.39,1H47.57c.16-.83-.61-.88-1-.13-.83-.3-1-.84-1.86.38-1,1.59-1.9.7-2.13-.31C42.23-.55,41.49,0,40.92.78a1.29,1.29,0,0,1-2.1-.14C38.34-.08,37.76,0,37.14.43l-1,.56-1.26.63c-1.3-.16-1.73.14-2,1.41-.17.86-.94.6-1.62.13s-1.61-.13-2,.78l-.91,1-.91,1L27,6.53c-1.19,2.07-.53,3.1,2,3.08,1.37.13,1.45,1.18,2.8.42l.68-.39a1.18,1.18,0,0,0,2.08.49c.39-.39.49-.55.73-.24.45.5.07,1.51,1.31,1.48s.9,1.36,1.69,1.11l1.83.84a2.62,2.62,0,0,0,.63,1.89c-.5,1.06.13,1.73,1.21,1.91l2.78-.3c.13-.46.7-.5,1.21,0l1.15,1.05c1.44-.48,1.79-3.2,1.66-3.33l.44.09c.38-.43.71-.18,1,.32l1.13.63,0-.58,1.08.88,1.23.13,2.58-.1.7.38-1,4.61.78.15c.56,1.16,1.13,1.54,1.29.4.6-.32.25.31.76.91l.3.35c.57.79.91.68,1.05-.3a3.45,3.45,0,0,0,2.53.69A3,3,0,0,0,65.12,23a1.33,1.33,0,0,0,1.82-.83c.29-.6.57-.73,1-.56,1.67.44,2.72.16,2-2.11l1.89-3.15c1.41-2.35,1.79-3.81.69-3.6"/></g></g></svg>