<?xml version="1.0" encoding="UTF-8"?>
<svg version="1.1" xmlns="http://www.w3.org/2000/svg" width="768" height="335">
<path d="M0 0 C0.61875 0.70125 1.2375 1.4025 1.875 2.125 C3.96452704 4.29248457 3.96452704 4.29248457 7.375 4.625 C11.7077108 3.8779809 12.85639278 2.59269462 15.4453125 -0.78515625 C17 -2 17 -2 19.50390625 -2 C22.85157147 -0.65883835 23.37230786 0.81178059 24.8125 4.0625 C25.23144531 4.98160156 25.65039062 5.90070312 26.08203125 6.84765625 C26.38496094 7.55792969 26.68789063 8.26820312 27 9 C30.09297269 8.67331464 31.59002059 8.44406759 33.73828125 6.1171875 C34.25777344 5.37726562 34.77726563 4.63734375 35.3125 3.875 C38.41133964 0.06727547 38.41133964 0.06727547 41.05078125 -0.234375 C43.04635965 0.11137493 45.02443065 0.5539037 47 1 C49.89765372 0.1956805 49.89765372 0.1956805 52 -1 C52.99 0.98 52.99 0.98 54 3 C59.98877292 2.59751551 59.98877292 2.59751551 65.625 0.75 C68 0 68 0 71.5625 1.1875 C75 3 75 3 76.79296875 4.64453125 C79.95766848 6.58816099 82.11532409 5.97615842 85.75 5.5 C92.7037029 4.82776053 96.91843528 5.42261441 102.88671875 9.19140625 C105.79194823 10.30301901 107.27211119 9.609417 110.1875 8.625 C116.61513652 6.70527923 121.86151461 5.99331601 128.3125 8.0625 C131.86286983 10.62206895 133.0821505 13.09053756 135 17 C135.49886719 16.84015625 135.99773437 16.6803125 136.51171875 16.515625 C139.94017724 15.8051752 143.32652261 15.77575053 146.8125 15.75 C147.49892578 15.729375 148.18535156 15.70875 148.89257812 15.6875 C154.9319314 15.64179061 159.78436055 16.84590609 164.25 21.1875 C166.42855574 24.68875029 167.67647324 28.09559605 169 32 C170.98491642 31.73323796 170.98491642 31.73323796 173 31 C173.33 30.01 173.66 29.02 174 28 C173.01 27.195625 172.02 26.39125 171 25.5625 C170.01 24.716875 169.02 23.87125 168 23 C168 22.67 168 22.34 168 22 C175.37532955 21.358667 181.69524137 23.61749959 187.6875 27.9375 C189 30 189 30 188.75 32.75 C188.37875 33.86375 188.37875 33.86375 188 35 C186.68 35.33 185.36 35.66 184 36 C184.12375 37.299375 184.2475 38.59875 184.375 39.9375 C184.44460938 40.66839844 184.51421875 41.39929688 184.5859375 42.15234375 C184.72257812 42.76207031 184.85921875 43.37179688 185 44 C185.66 44.33 186.32 44.66 187 45 C187.4021875 43.824375 187.4021875 43.824375 187.8125 42.625 C189 40 189 40 192 38 C194.5625 37.75 194.5625 37.75 197 38 C197.66 38.66 198.32 39.32 199 40 C198.979375 41.11375 198.95875 42.2275 198.9375 43.375 C199.00486422 47.28212487 199.50000209 48.18750235 202 51 C202 51.66 202 52.32 202 53 C202.66 53 203.32 53 204 53 C206.80858753 56.67276831 207.59885798 59.4087555 207 64 C205.6875 65.875 205.6875 65.875 204 67 C203.01 67 202.02 67 201 67 C201.33 68.98 201.66 70.96 202 73 C203.32 73.33 204.64 73.66 206 74 C206.39192953 80.30586616 205.49334779 84.1746708 202.5 89.6875 C202.14341309 90.37231445 201.78682617 91.05712891 201.41943359 91.76269531 C198.41776 97.43997371 195.11340701 102.91361609 191.6640625 108.328125 C188.54021479 113.010889 188.54021479 113.010889 188.5 118.4375 C189.02750493 122.19597261 188.85712925 123.75002381 187 127 C182.7532226 129.83118493 179.71237879 128.67463089 174.8125 127.99609375 C172.00837366 127.72284538 172.00837366 127.72284538 170.21484375 129.3125 C168.88344382 131.09517943 168.88344382 131.09517943 167.5625 133.5625 C162.64734265 138.23789357 155.05480619 138.04628573 148.5 138.25 C141.6163236 138.07381815 134.06667677 137.42961775 128 134 C127.34 134.99 126.68 135.98 126 137 C123.875 137 123.875 137 121 136 C118.74515308 133.50224217 116.85734917 130.80198037 115 128 C114.34 128.99 113.68 129.98 113 131 C110.625 130.25 110.625 130.25 108 129 C107.5978125 128.01 107.5978125 128.01 107.1875 127 C106.06956975 124.65086369 106.06956975 124.65086369 102.8125 123.75 C91.75910292 121.50698889 81.24847745 121.91445705 71.75 128.125 C67.38617884 132.68717667 65.31750353 137.36925647 64.5625 143.625 C65.06745158 147.52034077 66.10300804 150.60423959 68 154 C68.37898437 154.69738281 68.75796875 155.39476562 69.1484375 156.11328125 C71.85725317 160.39571528 74.24031472 162.5078483 79.125 164 C84.2214804 165.11398479 89.08236146 165.14831085 94.2734375 164.8125 C97.60164197 165.04137366 99.33136288 166.04175315 102 168 C102.433125 168.721875 102.86625 169.44375 103.3125 170.1875 C104.79997091 172.19414332 104.79997091 172.19414332 106.85546875 172.1484375 C108.2602645 172.09214332 109.66414287 171.99331845 111.0625 171.84765625 C113 172 113 172 114.3203125 173.46875 C117.52813948 176.3930946 122.4086475 175.430074 126.5546875 175.49609375 C130.5415429 176.07920525 132.16386581 177.20049485 135 180 C135.33 180.66 135.66 181.32 136 182 C140.4786148 182.16285872 144.22711056 182.03706315 148.5625 180.875 C152.93620656 179.79470198 155.70596573 180.56865524 160 182 C161.175625 181.95875 162.35125 181.9175 163.5625 181.875 C168.03955804 182.03780211 169.59595713 183.09238005 173 186 C174.88513168 188.23632324 176.65679819 190.52064673 178.38671875 192.87890625 C179.8191694 194.76224936 181.33013776 196.33482838 183 198 C183.515625 198.86625 184.03125 199.7325 184.5625 200.625 C185.77912906 203.11190375 185.77912906 203.11190375 188 204 C188.44921875 206.03125 188.44921875 206.03125 188.6875 208.5 C188.77386719 209.3146875 188.86023438 210.129375 188.94921875 210.96875 C188.96597656 211.6390625 188.98273438 212.309375 189 213 C188 214 188 214 185.52258676 214.1241985 C184.40810759 214.12381878 183.29362842 214.12343906 182.14537716 214.12304783 C180.22478132 214.1260344 180.22478132 214.1260344 178.26538557 214.12908131 C176.82592561 214.12622771 175.38646583 214.1232821 173.94700623 214.12025452 C172.43234125 214.12069009 170.91767635 214.12156473 169.40301186 214.12284368 C165.22088409 214.12509147 161.03878168 214.12106351 156.85665715 214.11606562 C152.35424683 214.11176535 147.85183806 214.11320724 143.34942627 214.1139679 C135.54206946 214.1144934 127.73472097 214.11134384 119.92736626 214.10573006 C108.63910579 214.09761863 97.35084938 214.09500021 86.06258631 214.09374207 C67.75013664 214.09155098 49.4376914 214.08488937 31.12524414 214.07543945 C13.33162458 214.06626679 -4.46199378 214.05918525 -22.25561523 214.05493164 C-23.89956221 214.05453756 -23.89956221 214.05453756 -25.57672025 214.05413551 C-31.07460375 214.05283051 -36.57248727 214.0515668 -42.07037079 214.05032361 C-87.71358361 214.03994924 -133.35679157 214.02232939 -179 214 C-179.33 212.68 -179.66 211.36 -180 210 C-179.48050781 209.6596875 -178.96101562 209.319375 -178.42578125 208.96875 C-174.55725952 206.28009164 -171.81401041 204.09496952 -169.625 199.875 C-167.15872782 195.53436096 -164.37495184 194.54662562 -159.7578125 192.99609375 C-154.89041158 191.23803818 -150.5016642 188.52774835 -146 186 C-140.33348398 182.95687103 -135.77608341 181.91361779 -129.3671875 181.75390625 C-128.31402344 181.72103516 -127.26085937 181.68816406 -126.17578125 181.65429688 C-123.96755866 181.59288477 -121.75921695 181.53562156 -119.55078125 181.48242188 C-118.50019531 181.44826172 -117.44960937 181.41410156 -116.3671875 181.37890625 C-115.40925293 181.3538501 -114.45131836 181.32879395 -113.46435547 181.30297852 C-110.74788324 181.15621691 -110.74788324 181.15621691 -108 179 C-105.65234375 179.05078125 -105.65234375 179.05078125 -102.9375 179.3125 C-96.99782893 179.45373392 -93.98803727 177.52809272 -89.484375 173.82421875 C-83.29510503 169.27958184 -78.3358867 168.73479988 -71 169.1875 C-63.84575901 169.54931879 -63.84575901 169.54931879 -57.5625 166.5625 C-54.43347197 162.93761507 -52.6361683 158.73408356 -52 154 C-52.95266698 148.2839981 -55.03047696 143.91325095 -59.1875 139.875 C-65.45970203 135.69353198 -71.75811507 134.61263034 -79.08203125 133.5390625 C-81.66846788 133.0612469 -83.71772547 132.38709577 -86.125 131.375 C-90.69196976 129.68937298 -94.95981062 129.93133652 -99.75 130.0625 C-108.96481006 130.27637789 -118.08524434 129.32344194 -125.6875 123.5625 C-128.60852734 120.32568592 -129.96996173 118.31294686 -130.02734375 113.89453125 C-129.67044385 108.43121744 -128.11644124 105.53300544 -125 101 C-124.63420562 99.49109817 -124.32469455 97.96780856 -124.0625 96.4375 C-123.21328724 91.97349667 -121.63548785 89.85645474 -118 87 C-117.31550781 86.71769531 -116.63101563 86.43539062 -115.92578125 86.14453125 C-113.83200926 85.15535711 -113.83200926 85.15535711 -113.12890625 82.9765625 C-112.75263046 81.41436924 -112.37762117 79.85187036 -112.00390625 78.2890625 C-110.60344351 75.09578948 -108.91844423 73.88557919 -106 72 C-102.5546875 70.83984375 -102.5546875 70.83984375 -98.875 69.9375 C-93.27370731 68.5660303 -93.27370731 68.5660303 -89 65 C-84.16017282 62.20635458 -78.79716744 62.66903213 -73.375 62.6875 C-71.94414062 62.66333008 -71.94414062 62.66333008 -70.484375 62.63867188 C-69.56914062 62.63802734 -68.65390625 62.63738281 -67.7109375 62.63671875 C-66.87868652 62.63373779 -66.04643555 62.63075684 -65.18896484 62.62768555 C-62.51273993 63.0828766 -61.80820184 64.05794011 -60 66 C-57.09372359 66.18170011 -57.09372359 66.18170011 -53.875 65.75 C-52.70839844 65.63527344 -51.54179687 65.52054687 -50.33984375 65.40234375 C-48.4121102 65.17011386 -46.4858893 64.92160431 -44.56640625 64.62890625 C-37.06924235 63.51464886 -28.81386031 63.95634081 -22.25 68.0625 C-19.13977712 69.91667133 -18.25442309 70.2054007 -14.875 70.375 C-11 71 -11 71 -8.5625 73.875 C-8.18480469 74.41640625 -7.80710937 74.9578125 -7.41796875 75.515625 C-5.09845779 77.9437632 -2.17956599 78.39206409 0.97265625 79.3046875 C3 80 3 80 5.0625 81.75 C6.62903267 85.50967841 6.47188568 89.21732075 5.4375 93.125 C4.50208133 97.13393714 6.11392262 100.52496703 8 104 C8.96656655 105.38388637 9.9466077 106.75842589 10.9375 108.125 C16.17688363 115.9648601 18.32730203 124.586835 17 134 C14.75224524 138.30819662 11.3015172 140.20323377 7.23046875 142.6015625 C3.92253237 144.67554013 0.92651826 147.10766829 -2.1171875 149.546875 C-5.83102375 152.41315526 -8.93175769 152.3939974 -13.51953125 152.34765625 C-16 152 -16 152 -19 149.8125 C-21.96501454 145.64294831 -23 143.14580642 -23 138 C-28.56663461 137.71207062 -32.2172507 137.77442489 -37 141 C-40.16121832 145.12234883 -40.4057486 148.37523306 -40.375 153.5 C-40.38273438 154.7890625 -40.39046875 156.078125 -40.3984375 157.40625 C-39.96626933 161.30423741 -39.60316939 163.07786519 -37 166 C-30.90221788 169.0790781 -25.56097923 169.43831057 -18.8125 169.3125 C-17.93658203 169.31572266 -17.06066406 169.31894531 -16.15820312 169.32226562 C-11.54077119 169.28375785 -8.2767098 168.80827327 -4 167 C-0.65234375 166.83984375 -0.65234375 166.83984375 3.0625 166.9375 C11.9877567 167.07573999 20.53934539 167.07660168 29 164 C30.37360336 163.8787997 31.74888436 163.77571254 33.125 163.6875 C37.01898912 163.34637208 37.01898912 163.34637208 39.3125 160.9375 C44.98974681 151.05488518 47.11811761 138.58942171 44.36328125 127.41796875 C43.66285086 125.57634932 42.84057574 123.78202056 42 122 C41.67 121.01 41.34 120.02 41 119 C39.10119174 118.1184184 39.10119174 118.1184184 36.8125 117.5625 C28.7320606 115.03496919 25.3062366 111.18410583 20.734375 104.265625 C18.55664201 101.42083867 16.25061608 100.40367512 13 99 C9.92914016 95.21260619 10 92.7254579 10 88 C9.07796291 85.63477442 8.08301035 83.29598193 7 81 C6.67 80.01 6.34 79.02 6 78 C3.0544576 76.61858072 0.04239263 75.57303707 -3.01953125 74.4765625 C-6.39619014 72.80372232 -7.71013377 70.92700474 -10 68 C-12.00380079 67.28248113 -12.00380079 67.28248113 -14.0625 67.1875 C-16.16015625 66.80078125 -16.16015625 66.80078125 -18 66 C-19.58266103 63.46669769 -20.35201611 60.90242783 -21 58 C-21.845625 58.66 -22.69125 59.32 -23.5625 60 C-27.5150573 62.2996697 -29.50452934 62.66599565 -34 62 C-36.4375 60 -36.4375 60 -38 58 C-38.7425 58.495 -38.7425 58.495 -39.5 59 C-44.42264687 60.96905875 -48.62968739 60.58365167 -53.375 58.5625 C-54.57125 58.046875 -55.7675 57.53125 -57 57 C-58.68273138 56.80676769 -60.37172978 56.66359239 -62.0625 56.5625 C-66.7055645 56.18029652 -69.59559699 55.40440301 -73 52 C-74.61019637 47.0846637 -74.35634078 44.03792136 -72.3125 39.3125 C-68.77077482 32.85758115 -63.5537421 27.77169777 -58.44189453 22.55053711 C-56.9813516 20.9799465 -55.68141267 19.33829342 -54.3671875 17.64453125 C-52 15 -52 15 -48.125 14.4375 C-43.96681909 14.74580619 -40.70507381 16.14746309 -37 18 C-36.77828125 17.31292969 -36.5565625 16.62585938 -36.328125 15.91796875 C-35.14387023 12.91871483 -33.9836557 10.552193 -32 8 C-29.07006577 6.74493862 -26.34909278 6.24558618 -23.2109375 5.7109375 C-18.74982548 4.72319737 -15.2673784 2.63316386 -11.375 0.3046875 C-6.92600742 -2.13933145 -4.55663755 -2.39223471 0 0 Z M64 85 C60.83109427 88.16890573 60.12429006 92.28375243 58.8125 96.5 C58.52697266 97.38042969 58.24144531 98.26085937 57.94726562 99.16796875 C57.68236328 100.00972656 57.41746094 100.85148437 57.14453125 101.71875 C56.90065674 102.49154297 56.65678223 103.26433594 56.40551758 104.06054688 C55.77604229 106.06942055 55.77604229 106.06942055 57 108 C58.65 108 60.3 108 62 108 C65.96527529 97.26216008 65.96527529 97.26216008 67 86 C66.01 85.67 65.02 85.34 64 85 Z M76 90 C75.67 91.65 75.34 93.3 75 95 C76.32 94.67 77.64 94.34 79 94 C78.34 92.68 77.68 91.36 77 90 C76.67 90 76.34 90 76 90 Z M89.0546875 95.515625 C88.70664062 96.00546875 88.35859375 96.4953125 88 97 C89.74635165 97.53293835 91.49727652 98.05090663 93.25 98.5625 C94.22453125 98.85253906 95.1990625 99.14257812 96.203125 99.44140625 C98.99414223 99.99883008 100.39533923 100.06977139 103 99 C104.75422772 97.02329393 104.75422772 97.02329393 106 95 C104.06845515 93.06845515 100.6889823 93.78145991 98.125 93.75 C96.86945313 93.72421875 95.61390625 93.6984375 94.3203125 93.671875 C91.02964458 93.69865374 91.02964458 93.69865374 89.0546875 95.515625 Z M38 97 C37.01 98.485 37.01 98.485 36 100 C37.53359237 106.64556693 41.34830657 109.08938411 46.91796875 112.71484375 C47.60503906 113.13894531 48.29210937 113.56304687 49 114 C49.66 113.67 50.32 113.34 51 113 C51 107.7512174 49.87558928 105.41572627 46.1875 101.625 C43.53707661 99.04916638 41.6852035 97.57969493 38 97 Z M-76 113 C-75.195625 113.804375 -74.39125 114.60875 -73.5625 115.4375 C-72.375 116.625 -71.1875 117.8125 -70 119 C-68.33382885 119.04063832 -66.66611905 119.042721 -65 119 C-65.47191915 114.75272765 -67.92770669 112.76506398 -71 110 C-72.96822886 110 -74.50528545 111.84280164 -76 113 Z M-85 114 C-85.66 114.66 -86.32 115.32 -87 116 C-86.67958603 118.60280568 -86.67958603 118.60280568 -86 121 C-80.91696314 121.11320856 -80.91696314 121.11320856 -76 120 C-76.50256112 117.98567734 -76.50256112 117.98567734 -78 116 C-81.54588501 114.70079254 -81.54588501 114.70079254 -85 114 Z M-54.625 116.25 C-56.22579764 117.86984327 -56.22579764 117.86984327 -55.8125 119.8125 C-55.544375 120.534375 -55.27625 121.25625 -55 122 C-54.649375 123.0725 -54.29875 124.145 -53.9375 125.25 C-53.4734375 126.61125 -53.4734375 126.61125 -53 128 C-52.34 128 -51.68 128 -51 128 C-49.82712428 121.31468008 -49.82712428 121.31468008 -52 115 C-53.20958807 114.89838154 -53.20958807 114.89838154 -54.625 116.25 Z M-42 122 C-42.33 122.66 -42.66 123.32 -43 124 C-41.35 123.67 -39.7 123.34 -38 123 C-39.32 122.67 -40.64 122.34 -42 122 Z M-41 133 C-36.4923533 132.46968862 -33.58045212 130.74778884 -30 128 C-30 127.34 -30 126.68 -30 126 C-35.78137941 124.809716 -37.88776285 128.80757057 -41 133 Z " fill="#00A450" transform="translate(334,53)"/>
<path d="M0 0 C1.43085938 -0.02416992 1.43085938 -0.02416992 2.890625 -0.04882812 C4.26347656 -0.04979492 4.26347656 -0.04979492 5.6640625 -0.05078125 C6.49631348 -0.05376221 7.32856445 -0.05674316 8.18603516 -0.05981445 C10.86226007 0.3953766 11.56679816 1.37044011 13.375 3.3125 C16.28127641 3.49420011 16.28127641 3.49420011 19.5 3.0625 C20.66660156 2.94777344 21.83320313 2.83304687 23.03515625 2.71484375 C24.9628898 2.48261386 26.8891107 2.23410431 28.80859375 1.94140625 C36.30575765 0.82714886 44.56113969 1.26884081 51.125 5.375 C54.23522288 7.22917133 55.12057691 7.5179007 58.5 7.6875 C62.375 8.3125 62.375 8.3125 64.8125 11.1875 C65.19019531 11.72890625 65.56789063 12.2703125 65.95703125 12.828125 C68.27654221 15.2562632 71.19543401 15.70456409 74.34765625 16.6171875 C76.375 17.3125 76.375 17.3125 78.4375 19.0625 C80.00403267 22.82217841 79.84688568 26.52982075 78.8125 30.4375 C77.87708133 34.44643714 79.48892262 37.83746703 81.375 41.3125 C82.34156655 42.69638637 83.3216077 44.07092589 84.3125 45.4375 C89.55188363 53.2773601 91.70230203 61.899335 90.375 71.3125 C88.12724524 75.62069662 84.6765172 77.51573377 80.60546875 79.9140625 C77.29753237 81.98804013 74.30151826 84.42016829 71.2578125 86.859375 C67.54397625 89.72565526 64.44324231 89.7064974 59.85546875 89.66015625 C57.375 89.3125 57.375 89.3125 54.375 87.125 C51.40998546 82.95544831 50.375 80.45830642 50.375 75.3125 C44.80836539 75.02457062 41.1577493 75.08692489 36.375 78.3125 C33.21378168 82.43484883 32.9692514 85.68773306 33 90.8125 C32.99226563 92.1015625 32.98453125 93.390625 32.9765625 94.71875 C33.39767299 98.51700146 33.9790162 100.36644486 36.375 103.3125 C38.5986698 104.73951818 38.5986698 104.73951818 41.0625 105.625 C41.87074219 105.95113281 42.67898438 106.27726562 43.51171875 106.61328125 C44.12660156 106.84402344 44.74148438 107.07476562 45.375 107.3125 C45.375 107.6425 45.375 107.9725 45.375 108.3125 C34.155 108.3125 22.935 108.3125 11.375 108.3125 C11.375 107.6525 11.375 106.9925 11.375 106.3125 C12.44622452 105.41736718 13.55821025 104.57066398 14.6875 103.75 C18.85655508 100.27578743 20.65283228 96.68655327 21.375 91.3125 C20.42233302 85.5964981 18.34452304 81.22575095 14.1875 77.1875 C7.91529797 73.00603198 1.61688493 71.92513034 -5.70703125 70.8515625 C-8.29346788 70.3737469 -10.34272547 69.69959577 -12.75 68.6875 C-17.31696976 67.00187298 -21.58481062 67.24383652 -26.375 67.375 C-35.58981006 67.58887789 -44.71024434 66.63594194 -52.3125 60.875 C-55.23352734 57.63818592 -56.59496173 55.62544686 -56.65234375 51.20703125 C-56.29544385 45.74371744 -54.74144124 42.84550544 -51.625 38.3125 C-51.25920562 36.80359817 -50.94969455 35.28030856 -50.6875 33.75 C-49.83828724 29.28599667 -48.26048785 27.16895474 -44.625 24.3125 C-43.94050781 24.03019531 -43.25601563 23.74789062 -42.55078125 23.45703125 C-40.45700926 22.46785711 -40.45700926 22.46785711 -39.75390625 20.2890625 C-39.37763046 18.72686924 -39.00262117 17.16437036 -38.62890625 15.6015625 C-37.22844351 12.40828948 -35.54344423 11.19807919 -32.625 9.3125 C-29.1796875 8.15234375 -29.1796875 8.15234375 -25.5 7.25 C-19.89870731 5.8785303 -19.89870731 5.8785303 -15.625 2.3125 C-10.78517282 -0.48114542 -5.42216744 -0.01846787 0 0 Z M-2.625 50.3125 C-1.820625 51.116875 -1.01625 51.92125 -0.1875 52.75 C1 53.9375 2.1875 55.125 3.375 56.3125 C5.04117115 56.35313832 6.70888095 56.355221 8.375 56.3125 C7.90308085 52.06522765 5.44729331 50.07756398 2.375 47.3125 C0.40677114 47.3125 -1.13028545 49.15530164 -2.625 50.3125 Z M-11.625 51.3125 C-12.285 51.9725 -12.945 52.6325 -13.625 53.3125 C-13.30458603 55.91530568 -13.30458603 55.91530568 -12.625 58.3125 C-7.54196314 58.42570856 -7.54196314 58.42570856 -2.625 57.3125 C-3.12756112 55.29817734 -3.12756112 55.29817734 -4.625 53.3125 C-8.17088501 52.01329254 -8.17088501 52.01329254 -11.625 51.3125 Z M18.75 53.5625 C17.14920236 55.18234327 17.14920236 55.18234327 17.5625 57.125 C17.830625 57.846875 18.09875 58.56875 18.375 59.3125 C18.725625 60.385 19.07625 61.4575 19.4375 62.5625 C19.9015625 63.92375 19.9015625 63.92375 20.375 65.3125 C21.035 65.3125 21.695 65.3125 22.375 65.3125 C23.54787572 58.62718008 23.54787572 58.62718008 21.375 52.3125 C20.16541193 52.21088154 20.16541193 52.21088154 18.75 53.5625 Z M31.375 59.3125 C31.045 59.9725 30.715 60.6325 30.375 61.3125 C32.025 60.9825 33.675 60.6525 35.375 60.3125 C34.055 59.9825 32.735 59.6525 31.375 59.3125 Z M32.375 70.3125 C36.8826467 69.78218862 39.79454788 68.06028884 43.375 65.3125 C43.375 64.6525 43.375 63.9925 43.375 63.3125 C37.59362059 62.122216 35.48723715 66.12007057 32.375 70.3125 Z " fill="#00A450" transform="translate(260.625,115.6875)"/>
<path d="M0 0 C2.64 0 5.28 0 8 0 C11.87091462 8.06533508 15.57205928 16.10751451 18.6640625 24.51171875 C20.65983639 29.72290612 22.84179249 34.85436673 25 40 C25.89249246 42.14038934 26.78442137 44.28101375 27.67578125 46.421875 C28.11083984 47.46601563 28.54589844 48.51015625 28.99414062 49.5859375 C31.99707031 56.79296875 31.99707031 56.79296875 35 64 C36.51699365 64.25334099 38.03906041 64.47635264 39.5625 64.6875 C40.40941406 64.81511719 41.25632812 64.94273437 42.12890625 65.07421875 C45.82889944 65.15575875 45.82889944 65.15575875 52 62 C52.33 44.51 52.66 27.02 53 9 C49.37 9.33 45.74 9.66 42 10 C42 8.02 42 6.04 42 4 C51.57702631 -0.05582704 61.5065387 -0.3730183 71.78759766 -0.37060547 C73.86574276 -0.37498051 75.94175891 -0.41144107 78.01953125 -0.44921875 C90.37048288 -0.5546556 101.30160133 1.44503905 110.83984375 9.7890625 C119.38534198 18.53544947 121.40515806 27.41432554 121.28881836 39.29296875 C121.05378589 49.5964551 118.63673867 55.23092132 111.39453125 62.765625 C103.07871416 70.52524552 94.31013897 72.33205881 83.17553711 72.22705078 C82.34516937 72.22734283 81.51480164 72.22763489 80.65927124 72.22793579 C77.94851777 72.22655626 75.23804846 72.21106083 72.52734375 72.1953125 C70.63448741 72.19157746 68.74162912 72.18873281 66.84877014 72.18673706 C61.89220747 72.17913926 56.93576397 72.15952425 51.97924805 72.1373291 C46.91131197 72.11678726 41.84335643 72.10771758 36.77539062 72.09765625 C26.85020836 72.0762744 16.92511413 72.04218548 7 72 C6.67 70.35 6.34 68.7 6 67 C9.61973402 65.68373308 12.09567131 65 16 65 C15.12855441 62.34373803 14.22999564 59.70282363 13.3125 57.0625 C12.94608398 55.93038086 12.94608398 55.93038086 12.57226562 54.77539062 C11.84529593 52.7233116 11.11780584 50.86858386 10 49 C7.74153878 47.8138532 7.74153878 47.8138532 5 48 C3.24236328 47.95166016 3.24236328 47.95166016 1.44921875 47.90234375 C-0.41283203 47.91974609 -0.41283203 47.91974609 -2.3125 47.9375 C-3.56675781 47.94652344 -4.82101562 47.95554688 -6.11328125 47.96484375 C-7.54220703 47.98224609 -7.54220703 47.98224609 -9 48 C-9.83719383 50.29032311 -10.6698929 52.58210957 -11.5 54.875 C-11.85771484 55.85146484 -11.85771484 55.85146484 -12.22265625 56.84765625 C-13.54877533 60.33457589 -13.54877533 60.33457589 -14 64 C-11.36 64.66 -8.72 65.32 -6 66 C-6 67.98 -6 69.96 -6 72 C-14.91 72 -23.82 72 -33 72 C-33.495 69.525 -33.495 69.525 -34 67 C-33.41992188 66.94585937 -32.83984375 66.89171875 -32.2421875 66.8359375 C-29.38383324 66.27936027 -27.48663446 65.54421697 -25 64 C-23.34502582 61.31402225 -23.34502582 61.31402225 -22.13671875 58.01171875 C-21.89006973 57.39933853 -21.64342072 56.78695831 -21.38929749 56.15602112 C-20.57324592 54.11114431 -19.78497736 52.05699134 -19 50 C-18.43071718 48.53155493 -17.86138003 47.06313091 -17.29199219 45.59472656 C-15.4786255 40.88628053 -13.70643133 36.16277992 -11.9375 31.4375 C-11.03396671 29.03285335 -10.12952576 26.62854946 -9.2250061 24.22427368 C-8.64110519 22.67198905 -8.05758045 21.11956286 -7.47445679 19.56698608 C-5.01799532 13.03104239 -2.52048315 6.51154984 0 0 Z M70 8 C69.88594058 9.53824707 69.84043136 11.08165199 69.82299805 12.62402344 C69.81016281 13.60884705 69.79732758 14.59367065 69.78410339 15.6083374 C69.77671646 16.68117981 69.76932953 17.75402222 69.76171875 18.859375 C69.753647 19.95590393 69.74557526 21.05243286 69.73725891 22.18218994 C69.72339744 24.50913909 69.71268457 26.83610875 69.70483398 29.16308594 C69.68763968 32.72109655 69.64377301 36.27817392 69.59960938 39.8359375 C69.58948141 42.09374315 69.58096563 44.35155672 69.57421875 46.609375 C69.55671066 47.67412048 69.53920258 48.73886597 69.52116394 49.83587646 C69.51527847 55.78539727 69.51527847 55.78539727 71.90405273 61.13183594 C76.15418585 64.9200734 79.66598296 65.56565866 85.265625 65.44140625 C90.85279574 64.53947726 95.66955305 61.58868566 99.4453125 57.39453125 C104.63176568 49.30750611 105.05934863 38.10865266 103.46484375 28.9140625 C101.46544409 20.06426074 98.51410793 14.41015771 91 9 C86.44751682 7.12315601 82.59221816 6.75552862 77.6875 6.8125 C75.83705078 6.82216797 75.83705078 6.82216797 73.94921875 6.83203125 C71.1128111 6.66527037 71.1128111 6.66527037 70 8 Z M-1 24 C-1.8394882 26.10171867 -2.67139656 28.20646625 -3.5 30.3125 C-3.9640625 31.48425781 -4.428125 32.65601563 -4.90625 33.86328125 C-6.16462513 36.91846448 -6.16462513 36.91846448 -6 40 C-1.71 40 2.58 40 7 40 C6.38125 38.1025 5.7625 36.205 5.125 34.25 C4.77695312 33.18265625 4.42890625 32.1153125 4.0703125 31.015625 C3.1932578 28.54450739 2.24073795 26.3026308 1 24 C0.34 24 -0.32 24 -1 24 Z " fill="#000000" transform="translate(573,191)"/>
<path d="M0 0 C0.99 0 1.98 0 3 0 C1.44381218 6.52274467 -0.1924541 12.93887147 -2.44921875 19.2578125 C-3.10047943 21.01329899 -3.10047943 21.01329899 -3 23 C-1.35 22.67 0.3 22.34 2 22 C3.65 15.73 5.3 9.46 7 3 C10.69418201 3 12.77836178 4.28179295 16 6 C15.67 7.32 15.34 8.64 15 10 C15.55171875 9.67257813 16.1034375 9.34515625 16.671875 9.0078125 C19.38780923 7.83212285 21.30551759 7.79751362 24.25 7.875 C25.14203125 7.89304688 26.0340625 7.91109375 26.953125 7.9296875 C27.96632813 7.96449219 27.96632813 7.96449219 29 8 C29 8.99 29 9.98 29 11 C30.57914015 11.53341184 32.16354387 12.05125763 33.75 12.5625 C34.63171875 12.85253906 35.5134375 13.14257812 36.421875 13.44140625 C39.11075522 14.02399696 40.46111187 13.98423857 43 13 C44.0194119 12.01979625 45.02246356 11.02196992 46 10 C46.66 10 47.32 10 48 10 C47.12960972 15.86262876 45.76677492 21.6036383 44.4375 27.375 C44.08655273 28.90833984 44.08655273 28.90833984 43.72851562 30.47265625 C43.1539152 32.98213566 42.57769775 35.49123214 42 38 C40.72125 37.96519531 39.4425 37.93039063 38.125 37.89453125 C36.41667991 37.86637213 34.70834548 37.83907426 33 37.8125 C32.16082031 37.78736328 31.32164062 37.76222656 30.45703125 37.73632812 C23.17533176 37.6516572 17.93504794 39.08093019 11.75 43.125 C7.38617884 47.68717667 5.31750353 52.36925647 4.5625 58.625 C5.45858446 65.53765153 8.51012642 69.9967259 12.79296875 75.30078125 C14 77 14 77 14 79 C1.79 79 -10.42 79 -23 79 C-21.35 76.36 -19.7 73.72 -18 71 C-14.34844973 61.70287885 -12.89483741 49.82358922 -16.4375 40.3125 C-16.953125 39.219375 -17.46875 38.12625 -18 37 C-18.33 36.01 -18.66 35.02 -19 34 C-20.89880826 33.1184184 -20.89880826 33.1184184 -23.1875 32.5625 C-31.97569712 29.81358526 -36.39342022 24.82300827 -41 17 C-41 16.34 -41 15.68 -41 15 C-35.33357449 13.77482692 -29.76291482 13.90771133 -24 14 C-23.54625 15.19625 -23.0925 16.3925 -22.625 17.625 C-19.94286387 23.12631572 -15.29551281 25.33203171 -10 28 C-10.28875 26.783125 -10.5775 25.56625 -10.875 24.3125 C-11.16015625 22.07421875 -11.16015625 22.07421875 -11 20 C-8.3125 17.625 -8.3125 17.625 -6.6328125 16.4765625 C-2.2867414 12.54638337 -1.00354394 5.56420403 0 0 Z " fill="#7F3724" transform="translate(394,138)"/>
<path d="M0 0 C4.71933381 3.330366 8.41648502 6.77127416 11 12 C11.801957 17.36805454 11.74992974 22.34390516 9.5 27.3125 C0.99871257 36.45138399 -6.56006345 40.39097184 -19.1484375 41.203125 C-25.9180307 41.3014726 -30.870516 40.90343979 -37 38 C-38.010625 37.608125 -39.02125 37.21625 -40.0625 36.8125 C-44.60557391 34.00932674 -48.59397023 29.81205954 -51 25 C-52.40221878 19.01719988 -52.66086311 14.19156262 -49.6875 8.6875 C-39.59176385 -6.08044893 -14.92902372 -8.53800353 0 0 Z " fill="#EA1C23" transform="translate(223,191)"/>
<path d="M0 0 C26.07 0 52.14 0 79 0 C77.73113676 3.80658972 76.46505212 4.17841944 73.0625 6.1875 C62.89902526 12.45103676 52.34145408 20.38496078 44.8046875 29.71875 C40.7958606 32.97941143 37.47057291 32.78027213 32.4375 32.8125 C31.06803223 32.84802979 31.06803223 32.84802979 29.67089844 32.88427734 C26.78032794 32.95022003 23.89121498 32.9782688 21 33 C20.03658691 33.01369629 19.07317383 33.02739258 18.08056641 33.04150391 C6.68574156 33.20221257 6.68574156 33.20221257 1 33 C0.67 32.67 0.34 32.34 0 32 C0 21.44 0 10.88 0 0 Z " fill="#0063A4" transform="translate(103,234)"/>
<path d="M0 0 C0.77915771 0.00202423 1.55831543 0.00404846 2.36108398 0.00613403 C3.15635498 0.00517731 3.95162598 0.00422058 4.77099609 0.00323486 C6.45564859 0.0025531 8.1403037 0.00440711 9.82495117 0.00857544 C12.41257595 0.01392378 15.00002714 0.00863034 17.58764648 0.00222778 C19.22045937 0.00288857 20.85327215 0.00416973 22.48608398 0.00613403 C23.2652417 0.0041098 24.04439941 0.00208557 24.84716797 0 C30.30863294 0.02399549 30.30863294 0.02399549 31.42358398 1.13894653 C31.46422231 2.80511768 31.46630499 4.47282748 31.42358398 6.13894653 C29.96651672 6.64262411 28.50788303 7.1417721 27.04858398 7.63894653 C26.23647461 7.91738403 25.42436523 8.19582153 24.58764648 8.48269653 C22.42358398 9.13894653 22.42358398 9.13894653 20.42358398 9.13894653 C20.42358398 27.61894653 20.42358398 46.09894653 20.42358398 65.13894653 C37.21354632 65.20179074 37.21354632 65.20179074 50.92358398 57.70144653 C52.37051936 55.22959861 53.49515886 52.84685315 54.42358398 50.13894653 C56.40358398 50.13894653 58.38358398 50.13894653 60.42358398 50.13894653 C60.5315089 57.22601616 60.45940336 64.118393 59.42358398 71.13894653 C58.42358398 72.13894653 58.42358398 72.13894653 55.79771423 72.25920105 C54.62745193 72.25698044 53.45718964 72.25475983 52.25146484 72.25247192 C51.28564232 72.25269096 51.28564232 72.25269096 50.30030823 72.25291443 C48.16298096 72.25221538 46.02573986 72.24442344 43.88842773 72.23660278 C42.41012113 72.23473857 40.93181391 72.23331468 39.45350647 72.23231506 C35.55559596 72.22849012 31.6577225 72.21866005 27.75982666 72.20761108 C23.78512066 72.19739645 19.81040869 72.19281733 15.83569336 72.18777466 C8.03163998 72.17703775 0.22761717 72.15996163 -7.57641602 72.13894653 C-7.57641602 70.15894653 -7.57641602 68.17894653 -7.57641602 66.13894653 C-3.94641602 65.14894653 -0.31641602 64.15894653 3.42358398 63.13894653 C3.42358398 45.64894653 3.42358398 28.15894653 3.42358398 10.13894653 C-1.52641602 8.15894653 -1.52641602 8.15894653 -6.57641602 6.13894653 C-6.57641602 -0.68143029 -6.20725887 0.02727221 0 0 Z " fill="#000000" transform="translate(707.576416015625,190.86105346679688)"/>
<path d="M0 0 C2.75 0.375 2.75 0.375 4.75 2.8125 C8.90671395 6.3630265 12.36209719 5.9352452 17.69140625 5.94140625 C21.39042581 6.46578833 22.53117938 7.42552659 24.75 10.375 C25 13.125 25 13.125 24.75 15.375 C25.41 15.375 26.07 15.375 26.75 15.375 C26.75 13.395 26.75 11.415 26.75 9.375 C29.04240007 9.43485379 31.33406206 9.52359027 33.625 9.625 C34.90117187 9.67140625 36.17734375 9.7178125 37.4921875 9.765625 C40.75 10.375 40.75 10.375 42.1953125 12.421875 C42.37835938 13.06640625 42.56140625 13.7109375 42.75 14.375 C41.1 16.025 39.45 17.675 37.75 19.375 C38.6575 19.045 39.565 18.715 40.5 18.375 C43.75 17.375 43.75 17.375 47.75 17.375 C48.74 20.84 48.74 20.84 49.75 24.375 C49.13511719 24.60574219 48.52023437 24.83648437 47.88671875 25.07421875 C46.67435547 25.56341797 46.67435547 25.56341797 45.4375 26.0625 C44.63699219 26.37574219 43.83648437 26.68898437 43.01171875 27.01171875 C40.06674384 28.7868418 39.12332564 30.22289068 37.75 33.375 C37.27620437 37.01322105 37.27620437 37.01322105 37.375 40.875 C37.36726563 42.1640625 37.35953125 43.453125 37.3515625 44.78125 C37.77267299 48.57950146 38.3540162 50.42894486 40.75 53.375 C42.9736698 54.80201818 42.9736698 54.80201818 45.4375 55.6875 C46.24574219 56.01363281 47.05398438 56.33976562 47.88671875 56.67578125 C48.50160156 56.90652344 49.11648438 57.13726562 49.75 57.375 C49.75 57.705 49.75 58.035 49.75 58.375 C38.53 58.375 27.31 58.375 15.75 58.375 C15.75 57.715 15.75 57.055 15.75 56.375 C16.82122452 55.47986718 17.93321025 54.63316398 19.0625 53.8125 C23.23155508 50.33828743 25.02783228 46.74905327 25.75 41.375 C24.79733302 35.6589981 22.71952304 31.28825095 18.5625 27.25 C12.30406079 23.0777072 6.02970313 22.00491135 -1.2734375 20.9140625 C-4.81055941 20.27348137 -8.05230718 19.22403901 -11.41015625 17.9609375 C-13.40460752 17.22327292 -13.40460752 17.22327292 -16.25 17.375 C-15.76675181 12.22035266 -13.06389239 8.55949681 -10.25 4.375 C-9.26 5.86 -9.26 5.86 -8.25 7.375 C-5.81306689 7.73916047 -5.81306689 7.73916047 -3.125 7.5625 C-2.21492187 7.53542969 -1.30484375 7.50835937 -0.3671875 7.48046875 C0.33148438 7.44566406 1.03015625 7.41085938 1.75 7.375 C0.1 5.395 -1.55 3.415 -3.25 1.375 C-2.25 0.375 -2.25 0.375 0 0 Z " fill="#7E3724" transform="translate(256.25,165.625)"/>
<path d="M0 0 C0.66 0 1.32 0 2 0 C1.48041715 4.37934119 0.94324258 8.68803391 0 13 C0.99 12.67 1.98 12.34 3 12 C3.03738281 11.37351562 3.07476562 10.74703125 3.11328125 10.1015625 C3.17902344 9.28429687 3.24476563 8.46703125 3.3125 7.625 C3.37050781 6.81289063 3.42851562 6.00078125 3.48828125 5.1640625 C4 3 4 3 7 1 C9.375 0.76953125 9.375 0.76953125 12 0.8125 C12.86625 0.81894531 13.7325 0.82539063 14.625 0.83203125 C17 1 17 1 20 2 C21.175625 1.814375 22.35125 1.62875 23.5625 1.4375 C24.696875 1.293125 25.83125 1.14875 27 1 C27.66 1.66 28.32 2.32 29 3 C28.9765625 6.0390625 28.9765625 6.0390625 28.625 9.625 C28.51414062 10.81351562 28.40328125 12.00203125 28.2890625 13.2265625 C28.19367188 14.14179688 28.09828125 15.05703125 28 16 C25.36 15.67 22.72 15.34 20 15 C20 14.34 20 13.68 20 13 C20.99 13 21.98 13 23 13 C23.33 10.36 23.66 7.72 24 5 C22.06890419 4.95710245 22.06890419 4.95710245 20 6 C18.20728609 9.48797488 18.20728609 9.48797488 17 13 C17.66 13 18.32 13 19 13 C19 13.66 19 14.32 19 15 C5.635 15.495 5.635 15.495 -8 16 C-8 15.01 -8 14.02 -8 13 C-7.01 12.67 -6.02 12.34 -5 12 C-4.67 9.69 -4.34 7.38 -4 5 C-8.60592579 6.84237032 -10.52927971 10.16606534 -13.31640625 14.1015625 C-13.87199219 14.72804688 -14.42757813 15.35453125 -15 16 C-15.99 16 -16.98 16 -18 16 C-18.12117188 15.21753906 -18.24234375 14.43507813 -18.3671875 13.62890625 C-18.61855469 12.11103516 -18.61855469 12.11103516 -18.875 10.5625 C-19.03742188 9.55316406 -19.19984375 8.54382813 -19.3671875 7.50390625 C-19.57601563 6.67761719 -19.78484375 5.85132813 -20 5 C-20.66 4.67 -21.32 4.34 -22 4 C-22 3.34 -22 2.68 -22 2 C-21.36908447 1.97494385 -20.73816895 1.9498877 -20.08813477 1.92407227 C-17.24603175 1.80845863 -14.40428917 1.68557684 -11.5625 1.5625 C-10.56927734 1.52318359 -9.57605469 1.48386719 -8.55273438 1.44335938 C-7.60849609 1.40146484 -6.66425781 1.35957031 -5.69140625 1.31640625 C-4.81685791 1.27974854 -3.94230957 1.24309082 -3.04125977 1.20532227 C-1.0072598 1.21818934 -1.0072598 1.21818934 0 0 Z M-13 3 C-13.99 3.495 -13.99 3.495 -15 4 C-15 5.98 -15 7.96 -15 10 C-13.35 8.35 -11.7 6.7 -10 5 C-10.99 4.34 -11.98 3.68 -13 3 Z M10 5 C8.515 8.465 8.515 8.465 7 12 C8.485 12.99 8.485 12.99 10 14 C10.99 13.67 11.98 13.34 13 13 C14.4477922 10.10441559 15 8.25811062 15 5 C13.35 5 11.7 5 10 5 Z " fill="#010000" transform="translate(364,311)"/>
<path d="M0 0 C-0.53034647 5.83381122 -2.27964266 10.85738601 -4.35546875 16.328125 C-4.56816406 17.20984375 -4.78085937 18.0915625 -5 19 C-4.34 19.99 -3.68 20.98 -3 22 C-5.88265149 22.96088383 -7.67662271 23.11670941 -10.66796875 23.09765625 C-11.56064453 23.09443359 -12.45332031 23.09121094 -13.37304688 23.08789062 C-14.76620117 23.07532227 -14.76620117 23.07532227 -16.1875 23.0625 C-17.12787109 23.05798828 -18.06824219 23.05347656 -19.03710938 23.04882812 C-21.35813712 23.03704626 -23.67903644 23.02059558 -26 23 C-25.44143734 18.38611938 -25.44143734 18.38611938 -23.44140625 16.63671875 C-18.22222222 14 -18.22222222 14 -16 14 C-16 13.01 -16 12.02 -16 11 C-16.763125 11.66 -17.52625 12.32 -18.3125 13 C-21 15 -21 15 -24 15 C-24.66 14.34 -25.32 13.68 -26 13 C-26.99 13.33 -27.98 13.66 -29 14 C-30.22520264 17.00847418 -30.22520264 17.00847418 -31 20 C-30.01 20.33 -29.02 20.66 -28 21 C-28 21.33 -28 21.66 -28 22 C-31.63 22.33 -35.26 22.66 -39 23 C-39.33 22.34 -39.66 21.68 -40 21 C-38.68 20.67 -37.36 20.34 -36 20 C-35.24572703 15.02093741 -35.24572703 15.02093741 -35 10 C-31.36534398 7.67382015 -28.23963281 7.68595313 -24 8 C-23.34 8.66 -22.68 9.32 -22 10 C-21.46375 9.649375 -20.9275 9.29875 -20.375 8.9375 C-17.26725237 7.71075751 -15.20568297 8.27143569 -12 9 C-10.60804085 13.17587745 -12.17676781 15.13474776 -14 19 C-12.68 19 -11.36 19 -10 19 C-9.32187886 17.1291122 -8.6580054 15.25305707 -8 13.375 C-7.62875 12.33085937 -7.2575 11.28671875 -6.875 10.2109375 C-5.99516436 6.98225494 -5.84011738 4.32755706 -6 1 C-3 0 -3 0 0 0 Z M-19 17 C-19.99 18.485 -19.99 18.485 -21 20 C-20.01 19.67 -19.02 19.34 -18 19 C-18.33 18.34 -18.66 17.68 -19 17 Z " fill="#010000" transform="translate(606,304)"/>
<path d="M0 0 C-0.60825035 4.34464536 -1.26167392 8.67551867 -2 13 C-1.54109375 12.66226562 -1.0821875 12.32453125 -0.609375 11.9765625 C2.52191205 9.70045889 5.53499458 7.73250271 9 6 C9.33 5.34 9.66 4.68 10 4 C9.2575 4.474375 8.515 4.94875 7.75 5.4375 C5.38949985 6.77869327 3.63351523 7.512312 1 8 C1.125 6.1875 1.125 6.1875 2 4 C5.18976724 1.89765341 7.03465831 0.89507155 10.875 1.3125 C11.57625 1.539375 12.2775 1.76625 13 2 C14.46726798 5.81489674 13.43336419 8.29011622 12 12 C12.66 12 13.32 12 14 12 C13.34 13.32 12.68 14.64 12 16 C7.49767666 16.07417023 2.99570909 16.1286105 -1.50708008 16.16479492 C-3.03871861 16.17987936 -4.57031398 16.20034978 -6.10180664 16.22631836 C-8.30365654 16.26271847 -10.50493533 16.27972913 -12.70703125 16.29296875 C-13.39150833 16.30845261 -14.07598541 16.32393646 -14.78120422 16.33988953 C-17.62542432 16.34089584 -19.55583126 16.29543003 -21.9597168 14.6965332 C-23 13 -23 13 -22.9375 9.5625 C-21.89370336 5.59607277 -21.42302742 4.22496782 -18 2 C-10.42401961 0.2879902 -10.42401961 0.2879902 -7 2 C-7.33 3.32 -7.66 4.64 -8 6 C-9.11375 5.79375 -10.2275 5.5875 -11.375 5.375 C-12.57125 5.25125 -13.7675 5.1275 -15 5 C-17.28728734 6.83883881 -17.28728734 6.83883881 -17.125 9.625 C-17.08375 10.40875 -17.0425 11.1925 -17 12 C-14.36 11.67 -11.72 11.34 -9 11 C-9 11.66 -9 12.32 -9 13 C-8.34 13 -7.68 13 -7 13 C-6.97421875 12.22914063 -6.9484375 11.45828125 -6.921875 10.6640625 C-6.86515625 9.66117187 -6.8084375 8.65828125 -6.75 7.625 C-6.68039063 6.12839844 -6.68039063 6.12839844 -6.609375 4.6015625 C-6 2 -6 2 -4.078125 0.6484375 C-2 0 -2 0 0 0 Z M5 11 C4.67 11.66 4.34 12.32 4 13 C4.99 12.67 5.98 12.34 7 12 C6.34 11.67 5.68 11.34 5 11 Z " fill="#000000" transform="translate(95,311)"/>
<path d="M0 0 C0.99 0 1.98 0 3 0 C3.86419223 2.59257669 4.17580932 4.34037707 4.31640625 7.01171875 C4.35830078 7.76904297 4.40019531 8.52636719 4.44335938 9.30664062 C4.48267578 10.09232422 4.52199219 10.87800781 4.5625 11.6875 C4.60568359 12.48478516 4.64886719 13.28207031 4.69335938 14.10351562 C4.79927368 16.06881447 4.90012551 18.03438496 5 20 C6.65 20 8.3 20 10 20 C11.85102717 13.66692592 13.37968409 7.57534861 14 1 C15.98 0.67 17.96 0.34 20 0 C18.95545271 5.88633122 17.66020966 11.41311074 15.48828125 16.9921875 C14.91720562 19.34045047 15.24258262 20.7328312 16 23 C9.58311325 23.10349817 3.37305598 22.74507544 -3 22 C-3 21.34 -3 20.68 -3 20 C-2.01 19.67 -1.02 19.34 0 19 C0 17.35 0 15.7 0 14 C-2.31 14 -4.62 14 -7 14 C-7.66 15.98 -8.32 17.96 -9 20 C-8.34 20.66 -7.68 21.32 -7 22 C-10.63 22 -14.26 22 -18 22 C-18 21.34 -18 20.68 -18 20 C-17.29230469 19.82339844 -16.58460938 19.64679688 -15.85546875 19.46484375 C-11.78035201 17.37432558 -9.87828517 14.27328861 -7.3125 10.5625 C-6.82716797 9.88123047 -6.34183594 9.19996094 -5.84179688 8.49804688 C-3.84986833 5.69286198 -1.90854337 2.86281506 0 0 Z M-2 7 C-2.66 8.32 -3.32 9.64 -4 11 C-2.68 11 -1.36 11 0 11 C-0.33 9.68 -0.66 8.36 -1 7 C-1.33 7 -1.66 7 -2 7 Z " fill="#000000" transform="translate(628,304)"/>
<path d="M0 0 C-0.33 2.97 -0.66 5.94 -1 9 C0.32 9.66 1.64 10.32 3 11 C2.95359375 10.38511719 2.9071875 9.77023437 2.859375 9.13671875 C2.80523438 7.92435547 2.80523438 7.92435547 2.75 6.6875 C2.70359375 5.88699219 2.6571875 5.08648437 2.609375 4.26171875 C3 2 3 2 4.6953125 0.2265625 C7.388042 -1.20651727 9.09082384 -1.37137207 12.125 -1.3125 C12.99382813 -1.30863281 13.86265625 -1.30476563 14.7578125 -1.30078125 C17 -1 17 -1 19 1 C18.9765625 3.8203125 18.9765625 3.8203125 18.625 7.125 C18.51414062 8.22070312 18.40328125 9.31640625 18.2890625 10.4453125 C18.19367187 11.28835938 18.09828125 12.13140625 18 13 C15.36 13.33 12.72 13.66 10 14 C10 13.01 10 12.02 10 11 C10.99 11 11.98 11 13 11 C13.33 8.36 13.66 5.72 14 3 C12.35 3.33 10.7 3.66 9 4 C8.24572703 8.97906259 8.24572703 8.97906259 8 14 C1.07 14 -5.86 14 -13 14 C-13.33 12.68 -13.66 11.36 -14 10 C-12.71186658 9.16121545 -11.41936744 8.32913217 -10.125 7.5 C-9.40570312 7.0359375 -8.68640625 6.571875 -7.9453125 6.09375 C-6 5 -6 5 -4 5 C-4 4.01 -4 3.02 -4 2 C-5.1446875 2.99 -5.1446875 2.99 -6.3125 4 C-9 6 -9 6 -12 6 C-11.875 4.1875 -11.875 4.1875 -11 2 C-7.0208455 -0.62262456 -4.58166871 -1.48230458 0 0 Z M-7 8 C-7.99 9.485 -7.99 9.485 -9 11 C-7.68 10.34 -6.36 9.68 -5 9 C-5.66 8.67 -6.32 8.34 -7 8 Z " fill="#000000" transform="translate(726,313)"/>
<path d="M0 0 C0.33 1.65 0.66 3.3 1 5 C-2.3 5.33 -5.6 5.66 -9 6 C-8.67 7.32 -8.34 8.64 -8 10 C-6.0509375 9.7215625 -6.0509375 9.7215625 -4.0625 9.4375 C-1.84765625 9.12109375 -1.84765625 9.12109375 0 9 C0.33 9.33 0.66 9.66 1 10 C2.49821059 6.62902617 3 4.79557881 3 1 C6.27127586 -1.18085057 7.27376723 -1.24887859 11.0625 -1.1875 C12.37927734 -1.17783203 12.37927734 -1.17783203 13.72265625 -1.16796875 C16 -1 16 -1 18 0 C17.91621094 0.77085937 17.83242188 1.54171875 17.74609375 2.3359375 C17.64425781 3.33882813 17.54242187 4.34171875 17.4375 5.375 C17.33308594 6.37273437 17.22867188 7.37046875 17.12109375 8.3984375 C16.78855292 10.984037 16.78855292 10.984037 18 13 C0.58536585 14.79268293 0.58536585 14.79268293 -3 13 C-3.99 13.495 -3.99 13.495 -5 14 C-11.19856887 14.45080501 -11.19856887 14.45080501 -14 12.875 C-15 11 -15 11 -15 8.125 C-13.77369886 4.29280895 -12.03267233 2.58886662 -9 0 C-5.93109813 -1.53445094 -3.29905734 -0.54984289 0 0 Z M-7 2 C-3 3 -3 3 -3 3 Z M8 3 C7.19787372 4.87387216 7.19787372 4.87387216 6.8125 7.0625 C6.65394531 7.79597656 6.49539063 8.52945312 6.33203125 9.28515625 C6.22246094 9.85105469 6.11289062 10.41695313 6 11 C9 12.33333333 9 12.33333333 12 11 C12.80212628 9.12612784 12.80212628 9.12612784 13.1875 6.9375 C13.34605469 6.20402344 13.50460937 5.47054688 13.66796875 4.71484375 C13.77753906 4.14894531 13.88710938 3.58304687 14 3 C11 1.66666667 11 1.66666667 8 3 Z " fill="#000000" transform="translate(660,313)"/>
<path d="M0 0 C0.33 0.66 0.66 1.32 1 2 C1.886875 1.484375 2.77375 0.96875 3.6875 0.4375 C7.20023331 -1.0868937 8.44706507 -1.14947895 12 0 C13.25541557 3.76624671 12.37061958 5.37188934 11 9 C11.66 9.33 12.32 9.66 13 10 C12.67 10.99 12.34 11.98 12 13 C7.23692563 13.95261487 2.8333472 14.08333357 -2 14 C-2.33 13.34 -2.66 12.68 -3 12 C-5.52363988 12.62533375 -5.52363988 12.62533375 -8 14 C-8.81931089 16.51176074 -8.81931089 16.51176074 -9 19 C-10 20 -10 20 -13.0625 20.0625 C-14.031875 20.041875 -15.00125 20.02125 -16 20 C-15.505 18.515 -15.505 18.515 -15 17 C-14.01 17 -13.02 17 -12 17 C-12.75150023 13.72226496 -12.75150023 13.72226496 -16 12 C-16.5 8.6875 -16.5 8.6875 -16 5 C-13.90743391 2.32616555 -12.21200865 0.56560404 -9.125 -0.875 C-5.95751762 -1.06132249 -3.09855237 -0.64309578 0 0 Z M-9.9375 3.125 C-11.30361625 5.53579338 -11.22111261 7.27294446 -11 10 C-3.90751627 12.08602463 1.84062896 8.22038181 8 5 C8 4.01 8 3.02 8 2 C7.13375 2.433125 7.13375 2.433125 6.25 2.875 C4.16666667 3.91666667 2.08333333 4.95833333 0 6 C-0.33 5.01 -0.66 4.02 -1 3 C-5.61009488 1.82991255 -5.61009488 1.82991255 -9.9375 3.125 Z M4 9 C3.67 9.66 3.34 10.32 3 11 C3.99 10.67 4.98 10.34 6 10 C5.34 9.67 4.68 9.34 4 9 Z " fill="#000000" transform="translate(126,313)"/>
<path d="M0 0 C3.06303578 -0.08115993 6.12390815 -0.14057409 9.1875 -0.1875 C10.48397461 -0.22520508 10.48397461 -0.22520508 11.80664062 -0.26367188 C16.64271958 -0.31925899 20.16969762 -0.3313652 24 3 C25.19182045 6.94790524 25.26691188 9.21496506 23.9375 13.125 C21.32853852 16.9963622 18.50233574 20.26160585 13.85546875 21.6328125 C9.95442457 22.13445156 6.11564894 22.10530464 2.1875 22.0625 C1.00510742 22.05573242 1.00510742 22.05573242 -0.20117188 22.04882812 C-2.13414761 22.03711312 -4.06708393 22.01917998 -6 22 C-5.505 20.515 -5.505 20.515 -5 19 C-4.01 19 -3.02 19 -2 19 C-1.70996094 17.78763672 -1.70996094 17.78763672 -1.4140625 16.55078125 C-1.02347656 14.94783203 -1.02347656 14.94783203 -0.625 13.3125 C-0.36976563 12.25675781 -0.11453125 11.20101563 0.1484375 10.11328125 C0.91905489 7.29593234 1.85498543 4.68331675 3 2 C2.01 2 1.02 2 0 2 C0 1.34 0 0.68 0 0 Z M8 2 C7.16301614 4.45714547 6.33027576 6.91558857 5.5 9.375 C5.26152344 10.07367188 5.02304688 10.77234375 4.77734375 11.4921875 C3.46264088 15.16403079 3.46264088 15.16403079 3 19 C7.01269866 20.30770983 9.28935975 19.58351145 13.09375 18.0078125 C16.01955203 16.46097454 17.41964741 14.89731308 19 12 C19.50070321 8.37357334 19.50070321 8.37357334 19 5 C16.60236815 2.60236815 15.66726502 2.65719414 12.375 2.375 C11.55773437 2.30023438 10.74046875 2.22546875 9.8984375 2.1484375 C9.27195313 2.09945313 8.64546875 2.05046875 8 2 Z " fill="#000000" transform="translate(213,305)"/>
<path d="M0 0 C0.639375 0.37125 1.27875 0.7425 1.9375 1.125 C5.01494519 2.43058281 6.89468405 1.07491706 10 0 C12.69420225 -0.17507451 15.29586254 -0.09324612 18 0 C19.1875 1.5 19.1875 1.5 20 4 C19.27101296 6.78824238 18.1843275 9.37665092 17 12 C17.66 12 18.32 12 19 12 C19 12.66 19 13.32 19 14 C16.36 14.33 13.72 14.66 11 15 C10.67 14.01 10.34 13.02 10 12 C10.99 12 11.98 12 13 12 C13.33 9.36 13.66 6.72 14 4 C11.50995496 4.56076801 11.50995496 4.56076801 9 6 C7.62810173 9.02982306 7.62810173 9.02982306 7 12 C7.66 12 8.32 12 9 12 C9 12.99 9 13.98 9 15 C4.66666667 15 0.33333333 15 -4 15 C-5.5159375 15.061875 -5.5159375 15.061875 -7.0625 15.125 C-10 15 -10 15 -13 13 C-13.58880749 9.21480896 -13.31922042 7.50163208 -11.25 4.25 C-7.67183859 0.67183859 -5.09088928 -0.50908893 0 0 Z M-5 3 C-1 4 -1 4 -1 4 Z M3 4 C3 4.66 3 5.32 3 6 C-0.63 6 -4.26 6 -8 6 C-8.33 7.32 -8.66 8.64 -9 10 C-8.34 10.66 -7.68 11.32 -7 12 C-4.0574037 11.69347955 -1.65457692 11.32728846 1 10 C1 10.66 1 11.32 1 12 C1.66 12 2.32 12 3 12 C3.66 9.69 4.32 7.38 5 5 C4.34 4.67 3.68 4.34 3 4 Z " fill="#000000" transform="translate(407,312)"/>
<path d="M0 0 C0.69222656 0.06703125 1.38445312 0.1340625 2.09765625 0.203125 C3.9375 0.75 3.9375 0.75 5.9375 3.75 C5.875 6.6875 5.875 6.6875 4.9375 9.75 C1.51647005 12.99559251 -0.77544604 14.67979706 -5.5 14.9375 C-9.0625 14.75 -9.0625 14.75 -12.0625 12.75 C-12.25 9.25 -12.25 9.25 -12.0625 5.75 C-12.0625 5.09 -12.0625 4.43 -12.0625 3.75 C-12.67738281 4.5440625 -13.29226563 5.338125 -13.92578125 6.15625 C-14.73402344 7.1771875 -15.54226563 8.198125 -16.375 9.25 C-17.17550781 10.2709375 -17.97601563 11.291875 -18.80078125 12.34375 C-19.54714844 13.1378125 -20.29351562 13.931875 -21.0625 14.75 C-22.0525 14.75 -23.0425 14.75 -24.0625 14.75 C-24.7225 10.79 -25.3825 6.83 -26.0625 2.75 C-26.7225 2.75 -27.3825 2.75 -28.0625 2.75 C-28.0625 2.09 -28.0625 1.43 -28.0625 0.75 C-27.44205811 0.75523682 -26.82161621 0.76047363 -26.18237305 0.76586914 C-23.37159233 0.78665466 -20.56082779 0.79966517 -17.75 0.8125 C-16.28530273 0.82506836 -16.28530273 0.82506836 -14.79101562 0.83789062 C-13.85322266 0.84111328 -12.91542969 0.84433594 -11.94921875 0.84765625 C-11.08514404 0.85289307 -10.22106934 0.85812988 -9.33081055 0.86352539 C-5.96497905 0.6950708 -3.43313756 -0.38502477 0 0 Z M-21.0625 2.75 C-21.0625 4.4 -21.0625 6.05 -21.0625 7.75 C-19.06266466 6.95882096 -19.06266466 6.95882096 -17.0625 5.75 C-16.7325 4.76 -16.4025 3.77 -16.0625 2.75 C-17.7125 2.75 -19.3625 2.75 -21.0625 2.75 Z M-6.9375 4.4375 C-8.22435671 7.08270547 -8.30463848 8.84433826 -8.0625 11.75 C-6.32674351 12.62436418 -6.32674351 12.62436418 -4.0625 12.75 C-1.18935929 11.3017286 -1.18935929 11.3017286 0.9375 8.75 C1.35559201 5.58151973 1.35559201 5.58151973 0.9375 2.75 C-3.39355369 2.26779079 -3.39355369 2.26779079 -6.9375 4.4375 Z " fill="#000000" transform="translate(327.0625,312.25)"/>
<path d="M0 0 C3.96 0 7.92 0 12 0 C11.67 0.99 11.34 1.98 11 3 C10.01 3 9.02 3 8 3 C7.80664062 3.65226562 7.61328125 4.30453125 7.4140625 4.9765625 C6.01359552 9.6771398 4.58791274 14.35840891 3 19 C4.58467728 18.71572583 6.1677057 18.42225182 7.75 18.125 C9.07257812 17.88136719 9.07257812 17.88136719 10.421875 17.6328125 C12.87216884 17.03137674 14.78779274 16.18582281 17 15 C17.33 15 17.66 15 18 15 C17.896875 14.071875 17.79375 13.14375 17.6875 12.1875 C17.790625 11.135625 17.89375 10.08375 18 9 C20.38892501 7.11400657 21.91851558 6 25 6 C24.45144652 10.571279 23.58255197 14.67435795 22 19 C22.66 19.66 23.32 20.32 24 21 C20.52334905 22.06888524 17.32862522 22.11475767 13.703125 22.09765625 C12.49785156 22.09443359 11.29257812 22.09121094 10.05078125 22.08789062 C8.79652344 22.07951172 7.54226563 22.07113281 6.25 22.0625 C4.98027344 22.05798828 3.71054687 22.05347656 2.40234375 22.04882812 C-0.73181836 22.03704556 -3.86588541 22.02059416 -7 22 C-7 21.34 -7 20.68 -7 20 C-5.35 19.67 -3.7 19.34 -2 19 C-1.79503906 18.18015625 -1.59007812 17.3603125 -1.37890625 16.515625 C-0.25260417 12.01041667 0.87369792 7.50520833 2 3 C1.34 2.67 0.68 2.34 0 2 C0 1.34 0 0.68 0 0 Z " fill="#000000" transform="translate(515,305)"/>
<path d="M0 0 C-0.19335938 0.68964844 -0.38671875 1.37929688 -0.5859375 2.08984375 C-1.87206729 6.73137157 -3.13570576 11.37635845 -4.25 16.0625 C-4.42015625 16.77535156 -4.5903125 17.48820312 -4.765625 18.22265625 C-5.18234479 20.10223489 -5.18234479 20.10223489 -4 22 C-9.07672201 22.84612033 -13.84869218 23.26193091 -19 23 C-21 21 -21 21 -21.375 18.1875 C-20.9175983 14.29958551 -19.69507803 12.77434503 -17 10 C-13.78548731 8.39274365 -10.56387464 8.94251815 -7 9 C-6.79029441 4.85906302 -6.79029441 4.85906302 -8 1 C-5.07175348 0.02391783 -3.04386724 -0.08226668 0 0 Z M-14.1875 12.1875 C-16.17932686 14.17932686 -16.73123279 15.22273887 -17 18 C-16.67 18.66 -16.34 19.32 -16 20 C-14.02 20 -12.04 20 -10 20 C-9.34 17.36 -8.68 14.72 -8 12 C-11.79851941 10.57153656 -11.79851941 10.57153656 -14.1875 12.1875 Z " fill="#000000" transform="translate(188,304)"/>
<path d="M0 0 C-1.36874156 6.95776959 -3.4533129 13.38603107 -6 20 C-5.34 20 -4.68 20 -4 20 C-4 20.66 -4 21.32 -4 22 C-16.228471 23.99648506 -16.228471 23.99648506 -20 21.875 C-21 20 -21 20 -20.9375 17.0625 C-19.88669111 13.62985763 -18.74950228 12.24959278 -16 10 C-12.78548731 8.39274365 -9.56387464 8.94251815 -6 9 C-5.67 7.02 -5.34 5.04 -5 3 C-5.66 3 -6.32 3 -7 3 C-7 2.34 -7 1.68 -7 1 C-4.53721199 -0.231394 -2.7204945 -0.07159196 0 0 Z M-14.25 12.0625 C-16.32315919 13.96164751 -16.32315919 13.96164751 -16.25 17.1875 C-16.1675 18.115625 -16.085 19.04375 -16 20 C-14.02 20 -12.04 20 -10 20 C-9.34 17.36 -8.68 14.72 -8 12 C-11.78094132 10.60598629 -11.78094132 10.60598629 -14.25 12.0625 Z " fill="#000000" transform="translate(486,304)"/>
<path d="M0 0 C0.99 0 1.98 0 3 0 C3.33745354 2.39531756 3.6700829 4.79114268 4 7.1875 C4.09539063 7.86103516 4.19078125 8.53457031 4.2890625 9.22851562 C4.78324613 12.84664577 5.11346131 16.34796401 5 20 C5.99 20.33 6.98 20.66 8 21 C8 21.33 8 21.66 8 22 C4.37 22 0.74 22 -3 22 C-3 21.34 -3 20.68 -3 20 C-2.01 20 -1.02 20 0 20 C0 18.02 0 16.04 0 14 C-2.31 14 -4.62 14 -7 14 C-7.73080266 15.97746603 -8.39421747 17.98072489 -9 20 C-8.67 20.66 -8.34 21.32 -8 22 C-11.3 22 -14.6 22 -18 22 C-18 21.34 -18 20.68 -18 20 C-17.2575 19.77699219 -16.515 19.55398438 -15.75 19.32421875 C-12.34833548 17.68620132 -11.12110143 15.91290028 -9 12.8125 C-8.31550781 11.8328125 -7.63101562 10.853125 -6.92578125 9.84375 C-5.77154929 8.13932633 -4.62162711 6.43195433 -3.48046875 4.71875 C-2.38334434 3.10123728 -1.19994051 1.54278065 0 0 Z M-2 7 C-2.66 8.32 -3.32 9.64 -4 11 C-2.68 11 -1.36 11 0 11 C-0.33 9.68 -0.66 8.36 -1 7 C-1.33 7 -1.66 7 -2 7 Z " fill="#000000" transform="translate(18,304)"/>
<path d="M0 0 C0.86882812 -0.00515625 1.73765625 -0.0103125 2.6328125 -0.015625 C4.875 0.25 4.875 0.25 6.875 2.25 C6.61275349 4.26055661 6.27264263 6.26178687 5.875 8.25 C5.875 9.57 5.875 10.89 5.875 12.25 C5.875 12.91 5.875 13.57 5.875 14.25 C-0.49805598 14.99507544 -6.70811325 15.35349817 -13.125 15.25 C-12.795 14.26 -12.465 13.27 -12.125 12.25 C-11.465 11.92 -10.805 11.59 -10.125 11.25 C-9.81073231 8.9558459 -9.74575424 6.69226779 -9.6640625 4.37890625 C-9.125 2.25 -9.125 2.25 -7.40625 0.98046875 C-4.82487964 0.15389982 -2.70829302 -0.01616891 0 0 Z M-4.125 5.25 C-4.86106499 8.81769552 -4.86106499 8.81769552 -5.125 12.25 C-4.135 12.58 -3.145 12.91 -2.125 13.25 C1.00106964 11.64519216 1.00106964 11.64519216 1.38671875 9.3046875 C1.44472656 8.58539063 1.50273437 7.86609375 1.5625 7.125 C1.665625 5.84625 1.76875 4.5675 1.875 3.25 C-1.30990007 2.9726499 -1.30990007 2.9726499 -4.125 5.25 Z " fill="#010000" transform="translate(291.125,311.75)"/>
<path d="M0 0 C2 2 2 2 2.4375 4.8125 C1.85847714 9.03109512 0.2480597 10.35623047 -3 13 C-6.55353929 14.1845131 -9.27013478 14.26641894 -13 14 C-15 12.9375 -15 12.9375 -16 11 C-15.92857823 7.07180291 -15.58982358 4.77287228 -13.1875 1.625 C-8.75659873 -1.66652666 -5.33865522 -1.08750384 0 0 Z M-9.75 3.1875 C-11.32831986 5.47606379 -11.78739686 7.23615924 -12 10 C-11.34 10.66 -10.68 11.32 -10 12 C-7.46048456 11.90888062 -7.46048456 11.90888062 -5 11 C-2.70986347 7.5647952 -2.82157027 6.014669 -3 2 C-6.58743484 1.69148755 -6.58743484 1.69148755 -9.75 3.1875 Z " fill="#000000" transform="translate(454,313)"/>
<path d="M0 0 C1.1875 2.6875 1.1875 2.6875 2 6 C0.74835083 9.16593614 -0.6093018 10.6852709 -3.25 12.8125 C-6.78073615 14.33713606 -9.19005233 14.48490243 -13 14 C-15.5 12.375 -15.5 12.375 -17 10 C-17.0625 7 -17.0625 7 -16 4 C-10.60789998 -1.25020265 -6.99175205 -1.03156997 0 0 Z M-10.875 3.6875 C-12.16185671 6.33270547 -12.24213848 8.09433826 -12 11 C-10.27523089 11.95502158 -10.27523089 11.95502158 -8 12 C-5.1255155 9.95910144 -5.1255155 9.95910144 -3 7 C-2.58013054 4.28836222 -2.58013054 4.28836222 -3 2 C-7.33105369 1.51779079 -7.33105369 1.51779079 -10.875 3.6875 Z " fill="#010000" transform="translate(500,313)"/>
<path d="M0 0 C0.69222656 0.06703125 1.38445312 0.1340625 2.09765625 0.203125 C3.9375 0.75 3.9375 0.75 5.9375 3.75 C5.74342419 6.855213 5.51252841 8.98329545 3.625 11.5 C-0.63652261 14.65668341 -3.69035494 15.14070146 -9.0625 14.75 C-10.0525 14.09 -11.0425 13.43 -12.0625 12.75 C-12.5625 9.4375 -12.5625 9.4375 -12.0625 5.75 C-8.50564724 1.32796684 -5.68663721 -0.63775371 0 0 Z M-6.375 4.4375 C-8.34794288 7.14116247 -8.42587162 8.47965541 -8.0625 11.75 C-6.32674351 12.62436418 -6.32674351 12.62436418 -4.0625 12.75 C-1.18935929 11.3017286 -1.18935929 11.3017286 0.9375 8.75 C1.35559201 5.58151973 1.35559201 5.58151973 0.9375 2.75 C-2.33284459 2.38662838 -3.67133753 2.46455712 -6.375 4.4375 Z " fill="#010000" transform="translate(152.0625,312.25)"/>
<path d="M0 0 C1 1 1 1 1.3125 4.8125 C1.27831671 7.99154601 1.15861406 8.78669144 -0.8125 11.4375 C-4.76625639 14.26161171 -8.24706017 14.41692455 -13 14 C-15.5 12.3125 -15.5 12.3125 -17 10 C-17.09471972 6.30593088 -16.04944399 5.05725094 -13.625 2.25 C-8.9224412 -1.78076468 -5.74646606 -0.92684936 0 0 Z M-10.9375 4.1875 C-12.13012788 7.34445615 -11.99752325 8.82606237 -11 12 C-7.98197607 11.67372714 -6.40308719 11.38918764 -4.1875 9.25 C-2.80391706 6.62847443 -2.75639573 4.92325122 -3 2 C-7.55593289 1.41239913 -7.55593289 1.41239913 -10.9375 4.1875 Z " fill="#000000" transform="translate(70,313)"/>
<path d="M0 0 C1.625 1.875 1.625 1.875 2.1875 4.75 C1.44735405 8.86192196 -0.17967093 10.27415075 -3.375 12.875 C-6.92853929 14.0595131 -9.64513478 14.14141894 -13.375 13.875 C-15.375 12.8125 -15.375 12.8125 -16.375 10.875 C-16.30288247 6.90853584 -15.9792878 4.64043122 -13.5 1.5 C-9.36846814 -1.65940672 -4.71855978 -2.23510727 0 0 Z M-10.125 3 C-11.81485241 5.53477861 -12.04230609 7.88075483 -12.375 10.875 C-10.135165 11.82520416 -10.135165 11.82520416 -7.375 11.875 C-4.375 9.875 -4.375 9.875 -2.375 6.875 C-2.42479584 4.114835 -2.42479584 4.114835 -3.375 1.875 C-6.94207395 1.57776602 -6.94207395 1.57776602 -10.125 3 Z " fill="#000000" transform="translate(762.375,313.125)"/>
<path d="M0 0 C2 2 2 2 2.4375 5.375 C2 9 2 9 -0.375 11.375 C-4.56622654 13.96956881 -6.99636206 14.4313481 -12 14 C-14.5 12.3125 -14.5 12.3125 -16 10 C-16.09471972 6.30593088 -15.04944399 5.05725094 -12.625 2.25 C-8.27171445 -1.48138761 -5.44683965 -1.08936793 0 0 Z M-9.875 3.6875 C-11.16185671 6.33270547 -11.24213848 8.09433826 -11 11 C-9.27523089 11.95502158 -9.27523089 11.95502158 -7 12 C-4.1255155 9.95910144 -4.1255155 9.95910144 -2 7 C-1.58013054 4.28836222 -1.58013054 4.28836222 -2 2 C-6.33105369 1.51779079 -6.33105369 1.51779079 -9.875 3.6875 Z " fill="#010000" transform="translate(566,313)"/>
<path d="M0 0 C0.33 1.65 0.66 3.3 1 5 C-2.63 5 -6.26 5 -10 5 C-9.67 6.65 -9.34 8.3 -9 10 C-6.36 9.67 -3.72 9.34 -1 9 C-2 12 -2 12 -3.6875 13.1875 C-6.61713759 14.21683212 -8.9136699 14.26266639 -12 14 C-12.99 13.34 -13.98 12.68 -15 12 C-15.54657403 8.99384282 -15.58777273 6.97511721 -13.98046875 4.30859375 C-9.55606921 -1.23861414 -6.68691724 -1.13551425 0 0 Z M-7 2 C-3 3 -3 3 -3 3 Z " fill="#010000" transform="translate(252,313)"/>
<path d="M0 0 C0.33 1.65 0.66 3.3 1 5 C-2.63 5 -6.26 5 -10 5 C-9.67 6.65 -9.34 8.3 -9 10 C-6.36 9.67 -3.72 9.34 -1 9 C-1.72265625 10.94140625 -1.72265625 10.94140625 -3 13 C-5.05859375 13.71484375 -5.05859375 13.71484375 -7.4375 13.9375 C-8.21996094 14.02902344 -9.00242187 14.12054688 -9.80859375 14.21484375 C-12 14 -12 14 -13.7890625 12.71875 C-15 11 -15 11 -14.9375 7.5625 C-13.93102548 3.73789684 -13.09787171 2.36896072 -10 0 C-6.30581799 -1.231394 -3.7943739 -0.64432764 0 0 Z M-7 2 C-3 3 -3 3 -3 3 Z " fill="#000000" transform="translate(280,313)"/>
<path d="M0 0 C0.33 1.65 0.66 3.3 1 5 C-2.3 5.33 -5.6 5.66 -9 6 C-9.33 7.32 -9.66 8.64 -10 10 C-5.545 9.505 -5.545 9.505 -1 9 C-1 9.99 -1 10.98 -1 12 C-4.63465602 14.32617985 -7.76036719 14.31404687 -12 14 C-14 12 -14 12 -14.4375 8.6875 C-13.89444451 4.11031804 -12.51844617 2.84826595 -9 0 C-5.93109813 -1.53445094 -3.29905734 -0.54984289 0 0 Z M-7 2 C-3 3 -3 3 -3 3 Z " fill="#000000" transform="translate(704,313)"/>
<path d="M0 0 C0.5625 1.9375 0.5625 1.9375 1 4 C0 5 0 5 -2.28515625 5.09765625 C-3.65994141 5.08025391 -3.65994141 5.08025391 -5.0625 5.0625 C-5.98160156 5.05347656 -6.90070313 5.04445313 -7.84765625 5.03515625 C-8.55792969 5.02355469 -9.26820313 5.01195312 -10 5 C-9.67 6.65 -9.34 8.3 -9 10 C-6.36 9.67 -3.72 9.34 -1 9 C-1.72265625 10.94140625 -1.72265625 10.94140625 -3 13 C-5.05859375 13.71484375 -5.05859375 13.71484375 -7.4375 13.9375 C-8.21996094 14.02902344 -9.00242188 14.12054688 -9.80859375 14.21484375 C-12 14 -12 14 -13.7890625 12.71875 C-15 11 -15 11 -14.9375 7.5625 C-13.93102548 3.73789684 -13.09787171 2.36896072 -10 0 C-6.30581799 -1.231394 -3.7943739 -0.64432764 0 0 Z M-8 2 C-8 2.33 -8 2.66 -8 3 C-6.35 3 -4.7 3 -3 3 C-3 2.67 -3 2.34 -3 2 C-4.65 2 -6.3 2 -8 2 Z " fill="#000000" transform="translate(200,313)"/>
<path d="M0 0 C0.33 1.65 0.66 3.3 1 5 C0.01 5 -0.98 5 -2 5 C-2 4.34 -2 3.68 -2 3 C-2.99 3.33 -3.98 3.66 -5 4 C-3.35 5.65 -1.7 7.3 0 9 C-1.75 13.875 -1.75 13.875 -4 15 C-7.5625 15.125 -7.5625 15.125 -11 15 C-12 14 -12 14 -12.0625 11.4375 C-12.041875 10.633125 -12.02125 9.82875 -12 9 C-11.01 9 -10.02 9 -9 9 C-8.67 9.99 -8.34 10.98 -8 12 C-7.01 11.67 -6.02 11.34 -5 11 C-6.65 9.68 -8.3 8.36 -10 7 C-9.6875 4.625 -9.6875 4.625 -9 2 C-5.5647952 -0.29013653 -4.014669 -0.17842973 0 0 Z " fill="#010000" transform="translate(264,312)"/>
<path d="M0 0 C0.33 1.65 0.66 3.3 1 5 C0.01 5 -0.98 5 -2 5 C-2 4.34 -2 3.68 -2 3 C-2.99 3 -3.98 3 -5 3 C-4.154375 3.721875 -3.30875 4.44375 -2.4375 5.1875 C0 8 0 8 0 10.6875 C-1 13 -1 13 -4 15 C-6.33199388 15.07905064 -8.66832622 15.08798769 -11 15 C-11.33 13.35 -11.66 11.7 -12 10 C-11.01 9.67 -10.02 9.34 -9 9 C-8.67 9.99 -8.34 10.98 -8 12 C-6.68 12 -5.36 12 -4 12 C-5.37691962 9.24616077 -7.36720042 8.48516899 -10 7 C-9.6875 4.625 -9.6875 4.625 -9 2 C-5.5647952 -0.29013653 -4.014669 -0.17842973 0 0 Z " fill="#000000" transform="translate(39,312)"/>
<path d="M0 0 C0.33 1.65 0.66 3.3 1 5 C0.01 5 -0.98 5 -2 5 C-2 4.34 -2 3.68 -2 3 C-2.99 3 -3.98 3 -5 3 C-5 3.66 -5 4.32 -5 5 C-4.360625 5.226875 -3.72125 5.45375 -3.0625 5.6875 C-1 7 -1 7 -0.25 9.625 C-0.12625 10.800625 -0.12625 10.800625 0 12 C-2.71182212 14.60334924 -3.89133813 14.99456691 -7.75 15.1875 C-9.35875 15.0946875 -9.35875 15.0946875 -11 15 C-11.33 13.35 -11.66 11.7 -12 10 C-11.01 9.67 -10.02 9.34 -9 9 C-8.67 9.99 -8.34 10.98 -8 12 C-7.01 12 -6.02 12 -5 12 C-5 11.34 -5 10.68 -5 10 C-7.46326712 8.3553326 -7.46326712 8.3553326 -10 7 C-9.75 4.625 -9.75 4.625 -9 2 C-6.09557968 -0.17831524 -3.54875053 -0.19715281 0 0 Z " fill="#000000" transform="translate(52,312)"/>
<path d="M0 0 C-0.45833333 1.83333333 -0.91666667 3.66666667 -1.375 5.5 C-1.78298828 7.13775391 -1.78298828 7.13775391 -2.19921875 8.80859375 C-2.6734367 10.69852579 -3.1530462 12.58714087 -3.64453125 14.47265625 C-4.40620762 17.40428834 -5 19.95607088 -5 23 C-7.64 23 -10.28 23 -13 23 C-13 22.01 -13 21.02 -13 20 C-12.01 20 -11.02 20 -10 20 C-9.87882812 19.43152344 -9.75765625 18.86304688 -9.6328125 18.27734375 C-8.81522158 14.51013635 -7.97039945 10.80349688 -6.8125 7.125 C-5.69719946 4.00044633 -5.69719946 4.00044633 -7 1 C-4 0 -4 0 0 0 Z " fill="#000000" transform="translate(344,304)"/>
<path d="M0 0 C0.66 0 1.32 0 2 0 C2 1.32 2 2.64 2 4 C3.32 4 4.64 4 6 4 C5.67 4.99 5.34 5.98 5 7 C3.35 7 1.7 7 0 7 C-0.33 9.31 -0.66 11.62 -1 14 C0.32 14.66 1.64 15.32 3 16 C-0.22213757 18.14809171 -1.27775401 18.29386153 -5 18 C-5.33 17.67 -5.66 17.34 -6 17 C-5.29411765 9.58823529 -5.29411765 9.58823529 -4 7 C-4.66 7 -5.32 7 -6 7 C-6 6.34 -6 5.68 -6 5 C-5.38125 4.731875 -4.7625 4.46375 -4.125 4.1875 C-1.7004767 3.04443152 -1.7004767 3.04443152 0 0 Z " fill="#000000" transform="translate(547,309)"/>
<path d="M0 0 C0.66 0.66 1.32 1.32 2 2 C1.67 2.66 1.34 3.32 1 4 C2.32 4 3.64 4 5 4 C5 4.99 5 5.98 5 7 C3.35 7 1.7 7 0 7 C-0.66 9.31 -1.32 11.62 -2 14 C-0.68 14.33 0.64 14.66 2 15 C2 15.66 2 16.32 2 17 C-0.70879335 18.35439668 -3.00933268 18.06501451 -6 18 C-7.48055721 14.15055126 -6.33585208 11.77181765 -5 8 C-5 6.68 -5 5.36 -5 4 C-2.5 1.75 -2.5 1.75 0 0 Z " fill="#010000" transform="translate(435,309)"/>
<path d="M0 0 C0 1.32 0 2.64 0 4 C1.32 4 2.64 4 4 4 C3.67 4.99 3.34 5.98 3 7 C1.35 7 -0.3 7 -2 7 C-2.33 9.31 -2.66 11.62 -3 14 C-1.68 14.66 -0.36 15.32 1 16 C-2.22791555 18.1519437 -3.28400809 18.20086443 -7 18 C-8.24317468 13.57982335 -8.32108468 9.39770471 -7 5 C-2.9375 0 -2.9375 0 0 0 Z " fill="#000000" transform="translate(688,309)"/>
<path d="M0 0 C-0.54162166 2.54773987 -1.10722774 5.08603097 -1.6875 7.625 C-1.83638672 8.33785156 -1.98527344 9.05070312 -2.13867188 9.78515625 C-3.37251204 15.05921815 -5.18166358 18.13393438 -9 22 C-11.3125 22.875 -11.3125 22.875 -13 23 C-12.731875 22.484375 -12.46375 21.96875 -12.1875 21.4375 C-7.10624931 12.03422195 -7.10624931 12.03422195 -7 2 C-4.35261084 0.5393715 -3.10551666 0 0 0 Z " fill="#000000" transform="translate(713,312)"/>
<path d="M0 0 C3.63 0 7.26 0 11 0 C10.34 1.32 9.68 2.64 9 4 C5.37 4 1.74 4 -2 4 C-1.34 2.68 -0.68 1.36 0 0 Z " fill="#000000" transform="translate(131,306)"/>
<path d="M0 0 C1.65 0 3.3 0 5 0 C4.67 1.32 4.34 2.64 4 4 C2.68 4 1.36 4 0 4 C0 2.68 0 1.36 0 0 Z " fill="#020000" transform="translate(710,305)"/>
<path d="M0 0 C1.65 0 3.3 0 5 0 C4.34 1.32 3.68 2.64 3 4 C1.68 3.67 0.36 3.34 -1 3 C-0.67 2.01 -0.34 1.02 0 0 Z " fill="#030100" transform="translate(93,305)"/>
<path d="M0 0 C1.32 0 2.64 0 4 0 C3.67 1.32 3.34 2.64 3 4 C1.68 3.67 0.36 3.34 -1 3 C-0.67 2.01 -0.34 1.02 0 0 Z " fill="#000000" transform="translate(538,305)"/>
<path d="M0 0 C1.32 0 2.64 0 4 0 C3.67 1.32 3.34 2.64 3 4 C2.01 4 1.02 4 0 4 C0 2.68 0 1.36 0 0 Z " fill="#010000" transform="translate(364,305)"/>
<path d="M0 0 C0.33 0 0.66 0 1 0 C1 2.31 1 4.62 1 7 C0.01 7.495 0.01 7.495 -1 8 C-1.125 2.25 -1.125 2.25 0 0 Z " fill="#548676" transform="translate(3,193)"/>
<path d="M0 0 C0.33 1.32 0.66 2.64 1 4 C0.01 3.67 -0.98 3.34 -2 3 C-1.34 2.01 -0.68 1.02 0 0 Z " fill="#5C7752" transform="translate(29,182)"/>
<path d="M0 0 C2 1 2 1 2 1 Z " fill="#09A453" transform="translate(85,206)"/>
</svg>
